<svg width="35" height="35" viewBox="0 0 35 35" version="1.1" xmlns="http://www.w3.org/2000/svg" xmlns:xlink="http://www.w3.org/1999/xlink">
<title>lnr-user</title>
<desc>Created using Figma</desc>
<g id="Canvas" transform="translate(226 657)">
<g id="lnr-user">
<g id="Vector">
<use xlink:href="#path0_fill" transform="translate(-218.632 -657)" fill="#7D7D7D"/>
</g>
<g id="Vector">
<use xlink:href="#path1_fill" transform="translate(-226 -636)" fill="#7D7D7D"/>
</g>
</g>
</g>
<defs>
<path id="path0_fill" d="M 10.1316 19.25C 4.54447 19.25 0 14.9327 0 9.625C 0 4.31725 4.54447 0 10.1316 0C 15.7187 0 20.2632 4.31725 20.2632 9.625C 20.2632 14.9327 15.7187 19.25 10.1316 19.25ZM 10.1316 1.75C 5.56132 1.75 1.84211 5.28325 1.84211 9.625C 1.84211 13.9668 5.56132 17.5 10.1316 17.5C 14.7018 17.5 18.4211 13.9668 18.4211 9.625C 18.4211 5.28325 14.7018 1.75 10.1316 1.75Z"/>
<path id="path1_fill" d="M 32.2368 14L 2.76316 14C 1.23974 14 0 12.8222 0 11.375C 0 11.256 0.0257896 8.42625 2.25658 5.6C 3.55526 3.955 5.33289 2.64775 7.54158 1.71675C 10.2384 0.5775 13.5892 0 17.5 0C 21.4108 0 24.7616 0.5775 27.4584 1.71675C 29.6671 2.6495 31.4447 3.955 32.7434 5.6C 34.9742 8.42625 35 11.256 35 11.375C 35 12.8222 33.7603 14 32.2368 14ZM 17.5 1.75C 11.0766 1.75 6.33684 3.41775 3.79289 6.573C 1.88632 8.93725 1.84395 11.354 1.84211 11.3785C 1.84211 11.858 2.25474 12.25 2.76316 12.25L 32.2368 12.25C 32.7453 12.25 33.1579 11.858 33.1579 11.375C 33.1579 11.354 33.1155 8.93725 31.2071 6.573C 28.6613 3.41775 23.9216 1.75 17.5 1.75Z"/>
</defs>
</svg>
