<svg width="45" height="45" viewBox="0 0 45 45" version="1.1" xmlns="http://www.w3.org/2000/svg" xmlns:xlink="http://www.w3.org/1999/xlink">
<title>lnr-user</title>
<desc>Created using Figma</desc>
<g id="Canvas" transform="translate(-2793 -389)">
<g id="lnr-user" filter="url(#filter0_d)">
<g id="Vector">
<use xlink:href="#path0_fill" transform="translate(2805.37 390)" fill="#FFFFFF"/>
<mask id="mask0_outline_out">
<rect id="mask0_outline_inv" fill="white" x="-1" y="-1" width="22" height="21" transform="translate(2805.37 390)"/>
<use xlink:href="#path0_fill" fill="black" transform="translate(2805.37 390)"/>
</mask>
<g mask="url(#mask0_outline_out)">
<use xlink:href="#path1_stroke_2x" transform="translate(2805.37 390)" fill="#FFFFFF"/>
</g>
</g>
<g id="Vector">
<use xlink:href="#path2_fill" transform="translate(2798 411)" fill="#FFFFFF"/>
<mask id="mask1_outline_out">
<rect id="mask1_outline_inv" fill="white" x="-1" y="-1" width="37" height="16" transform="translate(2798 411)"/>
<use xlink:href="#path2_fill" fill="black" transform="translate(2798 411)"/>
</mask>
<g mask="url(#mask1_outline_out)">
<use xlink:href="#path3_stroke_2x" transform="translate(2798 411)" fill="#FFFFFF"/>
</g>
</g>
</g>
</g>
<defs>
<filter id="filter0_d" filterUnits="userSpaceOnUse" x="2793" y="389" width="45" height="45" color-interpolation-filters="sRGB">
<feFlood flood-opacity="0" result="BackgroundImageFix"/>
<feColorMatrix in="SourceAlpha" type="matrix" values="0 0 0 0 0 0 0 0 0 0 0 0 0 0 0 0 0 0 255 0"/>
<feOffset dx="0" dy="4"/>
<feGaussianBlur stdDeviation="2"/>
<feColorMatrix type="matrix" values="0 0 0 0 0 0 0 0 0 0 0 0 0 0 0 0 0 0 0.25 0"/>
<feBlend mode="normal" in2="BackgroundImageFix" result="effect1_dropShadow"/>
<feBlend mode="normal" in="SourceGraphic" in2="effect1_dropShadow" result="shape"/>
</filter>
<path id="path0_fill" d="M 10.1316 19.25C 4.54447 19.25 0 14.9327 0 9.625C 0 4.31725 4.54447 0 10.1316 0C 15.7187 0 20.2632 4.31725 20.2632 9.625C 20.2632 14.9327 15.7187 19.25 10.1316 19.25ZM 10.1316 1.75C 5.56132 1.75 1.84211 5.28325 1.84211 9.625C 1.84211 13.9667 5.56132 17.5 10.1316 17.5C 14.7018 17.5 18.4211 13.9667 18.4211 9.625C 18.4211 5.28325 14.7018 1.75 10.1316 1.75Z"/>
<path id="path1_stroke_2x" d="M 10.1316 18.75C 4.79614 18.75 0.5 14.6328 0.5 9.625L -0.5 9.625C -0.5 15.2327 4.29281 19.75 10.1316 19.75L 10.1316 18.75ZM 0.5 9.625C 0.5 4.61725 4.79614 0.5 10.1316 0.5L 10.1316 -0.5C 4.29281 -0.5 -0.5 4.01725 -0.5 9.625L 0.5 9.625ZM 10.1316 0.5C 15.467 0.5 19.7632 4.61725 19.7632 9.625L 20.7632 9.625C 20.7632 4.01725 15.9703 -0.5 10.1316 -0.5L 10.1316 0.5ZM 19.7632 9.625C 19.7632 14.6328 15.467 18.75 10.1316 18.75L 10.1316 19.75C 15.9703 19.75 20.7632 15.2327 20.7632 9.625L 19.7632 9.625ZM 10.1316 1.25C 5.30965 1.25 1.34211 4.98325 1.34211 9.625L 2.34211 9.625C 2.34211 5.58325 5.81298 2.25 10.1316 2.25L 10.1316 1.25ZM 1.34211 9.625C 1.34211 14.2667 5.30965 18 10.1316 18L 10.1316 17C 5.81298 17 2.34211 13.6668 2.34211 9.625L 1.34211 9.625ZM 10.1316 18C 14.9535 18 18.9211 14.2667 18.9211 9.625L 17.9211 9.625C 17.9211 13.6668 14.4502 17 10.1316 17L 10.1316 18ZM 18.9211 9.625C 18.9211 4.98325 14.9535 1.25 10.1316 1.25L 10.1316 2.25C 14.4502 2.25 17.9211 5.58325 17.9211 9.625L 18.9211 9.625Z"/>
<path id="path2_fill" d="M 32.2368 14L 2.76316 14C 1.23974 14 0 12.8222 0 11.375C 0 11.256 0.0257896 8.42625 2.25658 5.6C 3.55526 3.955 5.33289 2.64775 7.54158 1.71675C 10.2384 0.5775 13.5892 0 17.5 0C 21.4108 0 24.7616 0.5775 27.4584 1.71675C 29.6671 2.6495 31.4447 3.955 32.7434 5.6C 34.9742 8.42625 35 11.256 35 11.375C 35 12.8222 33.7603 14 32.2368 14ZM 17.5 1.75C 11.0766 1.75 6.33684 3.41775 3.79289 6.573C 1.88632 8.93725 1.84395 11.354 1.84211 11.3785C 1.84211 11.858 2.25474 12.25 2.76316 12.25L 32.2368 12.25C 32.7453 12.25 33.1579 11.858 33.1579 11.375C 33.1579 11.354 33.1155 8.93725 31.2071 6.573C 28.6613 3.41775 23.9216 1.75 17.5 1.75Z"/>
<path id="path3_stroke_2x" d="M 2.25658 5.6L 1.86414 5.29018L 1.86411 5.29022L 2.25658 5.6ZM 7.54158 1.71675L 7.73579 2.17749L 7.73615 2.17734L 7.54158 1.71675ZM 27.4584 1.71675L 27.2639 2.17734L 27.2639 2.17736L 27.4584 1.71675ZM 32.7434 5.6L 33.1359 5.29022L 33.1359 5.29018L 32.7434 5.6ZM 3.79289 6.573L 4.18211 6.88687L 4.18214 6.88683L 3.79289 6.573ZM 1.84211 11.3785L 1.34351 11.341L 1.34211 11.3597L 1.34211 11.3785L 1.84211 11.3785ZM 31.2071 6.573L 30.818 6.88697L 30.818 6.88705L 31.2071 6.573ZM 32.2368 13.5L 2.76316 13.5L 2.76316 14.5L 32.2368 14.5L 32.2368 13.5ZM 2.76316 13.5C 1.4914 13.5 0.5 12.5222 0.5 11.375L -0.5 11.375C -0.5 13.1222 0.988071 14.5 2.76316 14.5L 2.76316 13.5ZM 0.5 11.375C 0.5 11.31 0.517067 8.61085 2.64905 5.90978L 1.86411 5.29022C -0.465488 8.24165 -0.5 11.202 -0.5 11.375L 0.5 11.375ZM 2.64902 5.90982C 3.88844 4.33989 5.59377 3.08039 7.73579 2.17749L 7.34737 1.25601C 5.07202 2.21511 3.22209 3.57011 1.86414 5.29018L 2.64902 5.90982ZM 7.73615 2.17734C 10.3545 1.07126 13.6348 0.5 17.5 0.5L 17.5 -0.5C 13.5436 -0.5 10.1224 0.0837421 7.34701 1.25616L 7.73615 2.17734ZM 17.5 0.5C 21.3652 0.5 24.6455 1.07126 27.2639 2.17734L 27.653 1.25616C 24.8776 0.0837421 21.4564 -0.5 17.5 -0.5L 17.5 0.5ZM 27.2639 2.17736C 29.4064 3.08215 31.1117 4.34005 32.351 5.90982L 33.1359 5.29018C 31.7778 3.56995 29.9278 2.21685 27.6529 1.25614L 27.2639 2.17736ZM 32.3509 5.90978C 34.4829 8.61085 34.5 11.31 34.5 11.375L 35.5 11.375C 35.5 11.202 35.4655 8.24165 33.1359 5.29022L 32.3509 5.90978ZM 34.5 11.375C 34.5 12.5222 33.5086 13.5 32.2368 13.5L 32.2368 14.5C 34.0119 14.5 35.5 13.1222 35.5 11.375L 34.5 11.375ZM 17.5 1.25C 11.0138 1.25 6.08679 2.93128 3.40365 6.25917L 4.18214 6.88683C 6.58689 3.90422 11.1393 2.25 17.5 2.25L 17.5 1.25ZM 3.40368 6.25913C 2.3988 7.50523 1.88456 8.76601 1.62124 9.72014C 1.48954 10.1974 1.42021 10.5993 1.38359 10.8866C 1.34745 11.1702 1.34206 11.3604 1.34351 11.341L 2.3407 11.416C 2.34153 11.4049 2.37808 9.12395 4.18211 6.88687L 3.40368 6.25913ZM 1.34211 11.3785C 1.34211 12.1593 2.00441 12.75 2.76316 12.75L 2.76316 11.75C 2.50507 11.75 2.34211 11.5567 2.34211 11.3785L 1.34211 11.3785ZM 2.76316 12.75L 32.2368 12.75L 32.2368 11.75L 2.76316 11.75L 2.76316 12.75ZM 32.2368 12.75C 32.9969 12.75 33.6579 12.158 33.6579 11.375L 32.6579 11.375C 32.6579 11.558 32.4936 11.75 32.2368 11.75L 32.2368 12.75ZM 33.6579 11.375C 33.6579 11.2942 33.6044 8.74686 31.5962 6.25895L 30.818 6.88705C 32.6266 9.12763 32.6579 11.4138 32.6579 11.375L 33.6579 11.375ZM 31.5962 6.25903C 28.9113 2.93133 23.9844 1.25 17.5 1.25L 17.5 2.25C 23.8587 2.25 28.4113 3.90417 30.818 6.88697L 31.5962 6.25903Z"/>
</defs>
</svg>
