<svg width="45" height="45" viewBox="0 0 45 45" version="1.1" xmlns="http://www.w3.org/2000/svg" xmlns:xlink="http://www.w3.org/1999/xlink">
<title>lnr-bubble</title>
<desc>Created using Figma</desc>
<g id="Canvas" transform="translate(-3121 -389)">
<g id="lnr-bubble" filter="url(#filter0_d)">
<g id="Vector">
<use xlink:href="#path0_fill" transform="translate(3126 390)" fill="#FFFFFF"/>
<mask id="mask0_outline_out">
<rect id="mask0_outline_inv" fill="white" x="-1" y="-1" width="37" height="37" transform="translate(3126 390)"/>
<use xlink:href="#path0_fill" fill="black" transform="translate(3126 390)"/>
</mask>
<g mask="url(#mask0_outline_out)">
<use xlink:href="#path1_stroke_2x" transform="translate(3126 390)" fill="#FFFFFF"/>
</g>
</g>
</g>
</g>
<defs>
<filter id="filter0_d" filterUnits="userSpaceOnUse" x="3121" y="389" width="45" height="45" color-interpolation-filters="sRGB">
<feFlood flood-opacity="0" result="BackgroundImageFix"/>
<feColorMatrix in="SourceAlpha" type="matrix" values="0 0 0 0 0 0 0 0 0 0 0 0 0 0 0 0 0 0 255 0"/>
<feOffset dx="0" dy="4"/>
<feGaussianBlur stdDeviation="2"/>
<feColorMatrix type="matrix" values="0 0 0 0 0 0 0 0 0 0 0 0 0 0 0 0 0 0 0.25 0"/>
<feBlend mode="normal" in2="BackgroundImageFix" result="effect1_dropShadow"/>
<feBlend mode="normal" in="SourceGraphic" in2="effect1_dropShadow" result="shape"/>
</filter>
<path id="path0_fill" d="M 0.921369 34.9979C 0.506899 34.9979 0.144007 34.6892 0.033482 34.2424C -0.0770432 33.7957 0.0924289 33.3223 0.447952 33.0855C 3.56292 30.9981 4.85423 27.9617 5.31291 26.5413C 1.92715 23.6449 0.00032446 19.6368 0.00032446 15.4414C 0.00032446 13.3231 0.475583 11.2707 1.41505 9.33978C 2.3103 7.49941 3.58871 5.85049 5.21159 4.4383C 8.5034 1.57687 12.8673 -9.61976e-08 17.5002 -9.61976e-08C 22.133 -9.61976e-08 26.4969 1.57687 29.7887 4.4383C 31.4116 5.84843 32.69 7.49735 33.5853 9.33978C 34.5247 11.2687 35 13.3211 35 15.4414C 35 17.5618 34.5247 19.6121 33.5853 21.5431C 32.69 23.3834 31.4116 25.0323 29.7887 26.4445C 26.4969 29.306 22.133 30.8828 17.5002 30.8828C 15.5973 30.8828 13.7294 30.6173 11.9444 30.0903C 11.1542 30.679 9.67681 31.7227 7.91209 32.7047C 5.17107 34.228 2.82056 35 0.923211 35L 0.921369 34.9979ZM 17.5002 2.06064C 8.8663 2.06064 1.84241 8.06346 1.84241 15.4414C 1.84241 19.1777 3.69371 22.7741 6.91921 25.3061C 7.23605 25.5552 7.37973 25.9978 7.28026 26.4157C 7.06473 27.3133 6.33158 29.7774 4.36976 32.155C 6.76816 31.2163 9.35076 29.588 11.2573 28.1223C 11.4839 27.9473 11.7676 27.8958 12.0328 27.9802C 13.7791 28.5381 15.6194 28.8222 17.5002 28.8222C 26.134 28.8222 33.1579 22.8194 33.1579 15.4414C 33.1579 8.06346 26.134 2.06064 17.5002 2.06064Z"/>
<path id="path1_stroke_2x" d="M 0.921369 34.9979L 1.29388 34.6644L 1.14483 34.4979L 0.921369 34.4979L 0.921369 34.9979ZM 0.447952 33.0855L 0.725077 33.5017L 0.726294 33.5009L 0.447952 33.0855ZM 5.31291 26.5413L 5.78871 26.6949L 5.89109 26.3779L 5.63794 26.1613L 5.31291 26.5413ZM 1.41505 9.33978L 1.86466 9.55853L 1.86467 9.5585L 1.41505 9.33978ZM 5.21159 4.4383L 4.88357 4.06094L 4.88337 4.06111L 5.21159 4.4383ZM 29.7887 4.4383L 29.4607 4.81566L 29.4608 4.81573L 29.7887 4.4383ZM 33.5853 9.33978L 33.1356 9.55831L 33.1358 9.55872L 33.5853 9.33978ZM 33.5853 21.5431L 33.1357 21.3243L 33.1357 21.3243L 33.5853 21.5431ZM 29.7887 26.4445L 30.1168 26.8219L 30.117 26.8217L 29.7887 26.4445ZM 11.9444 30.0903L 12.086 29.6107L 11.8462 29.5399L 11.6457 29.6893L 11.9444 30.0903ZM 7.91209 32.7047L 8.15498 33.1417L 8.15521 33.1416L 7.91209 32.7047ZM 0.923211 35L 0.550697 35.3335L 0.699752 35.5L 0.923211 35.5L 0.923211 35ZM 6.91921 25.3061L 7.22823 24.9131L 7.22795 24.9128L 6.91921 25.3061ZM 7.28026 26.4157L 7.76644 26.5325L 7.76667 26.5315L 7.28026 26.4157ZM 4.36976 32.155L 3.98409 31.8368L 2.758 33.3228L 4.55199 32.6206L 4.36976 32.155ZM 11.2573 28.1223L 11.5621 28.5187L 11.5629 28.518L 11.2573 28.1223ZM 12.0328 27.9802L 12.185 27.5039L 12.1844 27.5038L 12.0328 27.9802ZM 0.921369 34.4979C 0.770492 34.4979 0.582688 34.3804 0.518847 34.1223L -0.451882 34.3625C -0.294673 34.9979 0.243305 35.4979 0.921369 35.4979L 0.921369 34.4979ZM 0.518847 34.1223C 0.453711 33.8591 0.562763 33.6098 0.725076 33.5017L 0.170828 32.6693C -0.377905 33.0347 -0.607797 33.7324 -0.451882 34.3625L 0.518847 34.1223ZM 0.726294 33.5009C 3.97392 31.3246 5.31357 28.1664 5.78871 26.6949L 4.8371 26.3876C 4.39489 27.7571 3.15193 30.6716 0.16961 32.6702L 0.726294 33.5009ZM 5.63794 26.1613C 2.35455 23.3525 0.500324 19.4796 0.500324 15.4414L -0.499676 15.4414C -0.499676 19.794 1.49974 23.9372 4.98788 26.9212L 5.63794 26.1613ZM 0.500324 15.4414C 0.500324 13.3999 0.957945 11.4222 1.86466 9.55853L 0.965438 9.12103C -0.00677879 11.1193 -0.499676 13.2464 -0.499676 15.4414L 0.500324 15.4414ZM 1.86467 9.5585C 2.72893 7.78185 3.96482 6.18601 5.53981 4.81549L 4.88337 4.06111C 3.21261 5.51497 1.89168 7.21697 0.965425 9.12106L 1.86467 9.5585ZM 5.53962 4.81566C 8.73455 2.03845 12.9798 0.5 17.5002 0.5L 17.5002 -0.5C 12.7548 -0.5 8.27226 1.1153 4.88357 4.06094L 5.53962 4.81566ZM 17.5002 0.5C 22.0205 0.5 26.2658 2.03845 29.4607 4.81566L 30.1168 4.06094C 26.7281 1.1153 22.2455 -0.5 17.5002 -0.5L 17.5002 0.5ZM 29.4608 4.81573C 31.0355 6.18403 32.2713 7.7797 33.1356 9.55831L 34.035 9.12126C 33.1087 7.215 31.7877 5.51283 30.1167 4.06088L 29.4608 4.81573ZM 33.1358 9.55872C 34.0423 11.4201 34.5 13.3977 34.5 15.4414L 35.5 15.4414C 35.5 13.2444 35.0071 11.1172 34.0348 9.12085L 33.1358 9.55872ZM 34.5 15.4414C 34.5 17.485 34.0424 19.4606 33.1357 21.3243L 34.0349 21.7618C 35.0071 19.7636 35.5 17.6385 35.5 15.4414L 34.5 15.4414ZM 33.1357 21.3243C 32.2714 23.101 31.0355 24.6968 29.4605 26.0673L 30.117 26.8217C 31.7877 25.3679 33.1086 23.6659 34.0349 21.7618L 33.1357 21.3243ZM 29.4607 26.0672C 26.2658 28.8444 22.0205 30.3828 17.5002 30.3828L 17.5002 31.3828C 22.2455 31.3828 26.7281 29.7675 30.1168 26.8219L 29.4607 26.0672ZM 17.5002 30.3828C 15.6439 30.3828 13.8238 30.1238 12.086 29.6107L 11.8028 30.5698C 13.6351 31.1108 15.5507 31.3828 17.5002 31.3828L 17.5002 30.3828ZM 11.6457 29.6893C 10.8661 30.2701 9.40798 31.3001 7.66898 32.2678L 8.15521 33.1416C 9.94565 32.1453 11.4422 31.0879 12.2431 30.4912L 11.6457 29.6893ZM 7.6692 32.2676C 4.95944 33.7736 2.69711 34.5 0.923211 34.5L 0.923211 35.5C 2.94401 35.5 5.38269 34.6824 8.15498 33.1417L 7.6692 32.2676ZM 1.29572 34.6665L 1.29388 34.6644L 0.548855 35.3315L 0.550697 35.3335L 1.29572 34.6665ZM 17.5002 1.56064C 8.66673 1.56064 1.34241 7.71651 1.34241 15.4414L 2.34241 15.4414C 2.34241 8.41041 9.06586 2.56064 17.5002 2.56064L 17.5002 1.56064ZM 1.34241 15.4414C 1.34241 19.3477 3.27776 23.0832 6.61047 25.6994L 7.22795 24.9128C 4.10966 22.465 2.34241 19.0078 2.34241 15.4414L 1.34241 15.4414ZM 6.61019 25.6992C 6.76086 25.8177 6.85208 26.0553 6.79385 26.2999L 7.76667 26.5315C 7.90738 25.9404 7.71124 25.2928 7.22823 24.9131L 6.61019 25.6992ZM 6.79408 26.299C 6.58846 27.1553 5.87993 29.5391 3.98409 31.8368L 4.75542 32.4733C 6.78324 30.0156 7.54101 27.4713 7.76644 26.5325L 6.79408 26.299ZM 4.55199 32.6206C 7.00835 31.6592 9.63237 30.0022 11.5621 28.5187L 10.9526 27.7259C 9.06915 29.1738 6.52796 30.7734 4.18752 31.6894L 4.55199 32.6206ZM 11.5629 28.518C 11.6631 28.4406 11.7766 28.4234 11.8812 28.4567L 12.1844 27.5038C 11.7585 27.3683 11.3047 27.454 10.9517 27.7265L 11.5629 28.518ZM 11.8807 28.4565C 13.6773 29.0305 15.5689 29.3222 17.5002 29.3222L 17.5002 28.3222C 15.6699 28.3222 13.881 28.0458 12.185 27.5039L 11.8807 28.4565ZM 17.5002 29.3222C 26.3336 29.3222 33.6579 23.1663 33.6579 15.4414L 32.6579 15.4414C 32.6579 22.4724 25.9345 28.3222 17.5002 28.3222L 17.5002 29.3222ZM 33.6579 15.4414C 33.6579 7.71651 26.3336 1.56064 17.5002 1.56064L 17.5002 2.56064C 25.9345 2.56064 32.6579 8.41041 32.6579 15.4414L 33.6579 15.4414Z"/>
</defs>
</svg>
