<svg width="35" height="35" viewBox="0 0 35 35" version="1.1" xmlns="http://www.w3.org/2000/svg" xmlns:xlink="http://www.w3.org/1999/xlink">
<title>lnr-bubble</title>
<desc>Created using Figma</desc>
<g id="Canvas" transform="translate(-102 657)">
<g id="lnr-bubble">
<g id="Vector">
<use xlink:href="#path0_fill" transform="translate(102 -657)" fill="#FF5C00"/>
</g>
</g>
</g>
<defs>
<path id="path0_fill" d="M 0.921369 34.9979C 0.506899 34.9979 0.144007 34.6892 0.033482 34.2424C -0.0770432 33.7957 0.0924289 33.3223 0.447952 33.0855C 3.56292 30.9981 4.85423 27.9617 5.31291 26.5413C 1.92715 23.6449 0.00032446 19.6368 0.00032446 15.4414C 0.00032446 13.3231 0.475583 11.2707 1.41505 9.33978C 2.3103 7.49941 3.58871 5.85049 5.21159 4.4383C 8.5034 1.57687 12.8673 -9.61976e-08 17.5002 -9.61976e-08C 22.133 -9.61976e-08 26.4969 1.57687 29.7887 4.4383C 31.4116 5.84843 32.69 7.49735 33.5853 9.33978C 34.5247 11.2687 35 13.3211 35 15.4414C 35 17.5618 34.5247 19.6121 33.5853 21.5431C 32.69 23.3834 31.4116 25.0324 29.7887 26.4445C 26.4969 29.306 22.133 30.8828 17.5002 30.8828C 15.5973 30.8828 13.7294 30.6173 11.9444 30.0903C 11.1542 30.679 9.67681 31.7227 7.91209 32.7047C 5.17107 34.228 2.82056 35 0.923211 35L 0.921369 34.9979ZM 17.5002 2.06064C 8.8663 2.06064 1.84241 8.06346 1.84241 15.4414C 1.84241 19.1777 3.69371 22.7741 6.91921 25.3061C 7.23605 25.5552 7.37973 25.9978 7.28026 26.4157C 7.06473 27.3133 6.33158 29.7774 4.36976 32.155C 6.76816 31.2163 9.35076 29.588 11.2573 28.1223C 11.4839 27.9473 11.7676 27.8958 12.0328 27.9802C 13.7791 28.5381 15.6194 28.8222 17.5002 28.8222C 26.134 28.8222 33.1579 22.8194 33.1579 15.4414C 33.1579 8.06346 26.134 2.06064 17.5002 2.06064Z"/>
</defs>
</svg>
