<svg width="70" height="70" fill="none" xmlns="http://www.w3.org/2000/svg"><circle cx="35" cy="35" r="35" fill="#C4C4C4"/><path d="M47.495 36.638c.063-.525.105-1.071.105-1.638s-.042-1.113-.126-1.638l3.549-2.772a.868.868 0 0 0 .21-1.071l-3.36-5.817c-.21-.378-.651-.504-1.03-.378l-4.178 1.68a12.303 12.303 0 0 0-2.835-1.638l-.63-4.452a.838.838 0 0 0-.84-.714h-6.72a.817.817 0 0 0-.82.714l-.63 4.452c-1.028.42-1.973.987-2.834 1.638l-4.18-1.68a.83.83 0 0 0-1.028.378l-3.36 5.817c-.21.378-.126.819.21 1.071l3.549 2.772A10.555 10.555 0 0 0 22.4 35c0 .546.042 1.113.126 1.638l-3.55 2.772a.868.868 0 0 0-.21 1.07l3.36 5.818c.21.378.652.504 1.03.378l4.179-1.68a12.307 12.307 0 0 0 2.835 1.638l.63 4.452c.084.42.42.714.84.714h6.72c.42 0 .777-.294.819-.714l.63-4.452a12.636 12.636 0 0 0 2.835-1.638l4.179 1.68a.83.83 0 0 0 1.029-.378l3.36-5.817c.21-.378.126-.819-.21-1.071l-3.507-2.772zM35 41.3c-3.465 0-6.3-2.835-6.3-6.3s2.835-6.3 6.3-6.3 6.3 2.835 6.3 6.3-2.835 6.3-6.3 6.3z" fill="#fff"/></svg>