<svg width="100" height="100" viewBox="0 0 100 100" version="1.1" xmlns="http://www.w3.org/2000/svg" xmlns:xlink="http://www.w3.org/1999/xlink">
<title>lnr-cog</title>
<desc>Created using Figma</desc>
<g id="Canvas" transform="translate(178 243)">
<g id="lnr-cog">
<g id="Ellipse 2.15">
<use xlink:href="#path0_fill" transform="translate(-178 -243)" fill="#EBEBEB"/>
</g>
<g id="Vector">
<use xlink:href="#path1_fill" transform="translate(-158 -223)" fill="#7D7D7D"/>
</g>
<g id="Vector">
<use xlink:href="#path2_fill" transform="translate(-137.273 -202.273)" fill="#7D7D7D"/>
</g>
</g>
</g>
<defs>
<path id="path0_fill" d="M 100 50C 100 77.6142 77.6142 100 50 100C 22.3858 100 0 77.6142 0 50C 0 22.3858 22.3858 0 50 0C 77.6142 0 100 22.3858 100 50Z"/>
<path id="path1_fill" d="M 22.6783 60C 22.5516 60 22.4217 59.9845 22.2919 59.9505C 19.5153 59.2363 16.847 58.1356 14.3642 56.6762C 13.6438 56.2527 13.3902 55.3344 13.7891 54.6016C 14.2807 53.6988 14.5404 52.6785 14.5404 51.6427C 14.5404 48.2323 11.767 45.4589 8.35659 45.4589C 7.32389 45.4589 6.30047 45.7186 5.39763 46.2103C 4.66484 46.6091 3.74655 46.3556 3.32295 45.6352C 1.86357 43.1493 0.762847 40.4841 0.0486149 37.7076C -0.15236 36.9223 0.286692 36.1153 1.05349 35.8587C 3.57031 35.0115 5.26468 32.6555 5.26468 29.9996C 5.26468 27.3437 3.5734 24.9876 1.05349 24.1405C 0.286692 23.8808 -0.15236 23.0769 0.0486149 22.2915C 0.762847 19.515 1.86357 16.8468 3.32295 14.364C 3.74655 13.6436 4.66484 13.39 5.39763 13.7889C 6.29738 14.2805 7.3208 14.5402 8.35659 14.5402C 11.767 14.5402 14.5404 11.7668 14.5404 8.35647C 14.5404 7.32379 14.2807 6.30038 13.7891 5.39755C 13.3902 4.66478 13.6438 3.74649 14.3642 3.32291C 16.8501 1.86354 19.5153 0.762836 22.2919 0.0486142C 23.0772 -0.152357 23.8842 0.286688 24.1408 1.05347C 24.988 3.57026 27.344 5.2646 30 5.2646C 32.656 5.2646 35.012 3.57335 35.8592 1.05347C 36.1189 0.286688 36.9259 -0.152357 37.7081 0.0486142C 40.4847 0.762836 43.153 1.86354 45.6358 3.32291C 46.3562 3.74649 46.6098 4.66478 46.2109 5.39755C 45.7193 6.30038 45.4596 7.3207 45.4596 8.35647C 45.4596 11.7668 48.233 14.5402 51.6434 14.5402C 52.6761 14.5402 53.6995 14.2805 54.6024 13.7889C 55.3352 13.39 56.2535 13.6436 56.677 14.364C 58.1364 16.8498 59.2372 19.515 59.9514 22.2915C 60.1524 23.0769 59.7133 23.8839 58.9465 24.1405C 56.4297 24.9876 54.7353 27.3437 54.7353 29.9996C 54.7353 32.6555 56.4266 35.0115 58.9465 35.8587C 59.7133 36.1184 60.1524 36.9223 59.9514 37.7076C 59.2372 40.4841 58.1364 43.1524 56.677 45.6352C 56.2535 46.3556 55.3352 46.6091 54.6024 46.2103C 53.6995 45.7186 52.6792 45.4589 51.6434 45.4589C 48.233 45.4589 45.4596 48.2323 45.4596 51.6427C 45.4596 52.6754 45.7193 53.6988 46.2109 54.6016C 46.6098 55.3344 46.3562 56.2527 45.6358 56.6762C 43.1499 58.1356 40.4847 59.2363 37.7081 59.9505C 36.9228 60.1515 36.1158 59.7125 35.8592 58.9457C 35.012 56.4289 32.656 54.7345 30 54.7345C 27.344 54.7345 24.988 56.4258 24.1408 58.9457C 23.9244 59.5857 23.3246 60 22.6753 60L 22.6783 60ZM 30.0031 51.6458C 33.4877 51.6458 36.626 53.5875 38.2121 56.5989C 39.8199 56.1011 41.3844 55.458 42.8809 54.6758C 42.547 53.7049 42.3738 52.6784 42.3738 51.6458C 42.3738 46.5318 46.5356 42.3701 51.6496 42.3701C 52.6823 42.3701 53.7088 42.5433 54.6797 42.8772C 55.4619 41.3807 56.1081 39.8194 56.6028 38.2085C 53.5913 36.6255 51.6496 33.4872 51.6496 29.9996C 51.6496 26.5119 53.5913 23.3768 56.6028 21.7907C 56.105 20.1829 55.4619 18.6184 54.6797 17.1219C 53.7088 17.4559 52.6823 17.629 51.6496 17.629C 46.5356 17.629 42.3738 13.4673 42.3738 8.35338C 42.3738 7.32069 42.547 6.29419 42.8809 5.32335C 41.3844 4.5411 39.823 3.8949 38.2121 3.4002C 36.6291 6.41168 33.4908 8.35338 30.0031 8.35338C 26.5154 8.35338 23.3802 6.41168 21.7941 3.4002C 20.1863 3.8949 18.6218 4.5411 17.1253 5.32335C 17.4592 6.29419 17.6323 7.32069 17.6323 8.35338C 17.6323 13.4673 13.4706 17.629 8.35659 17.629C 7.32389 17.629 6.29738 17.4559 5.32651 17.1219C 4.54426 18.6184 3.89805 20.1798 3.40334 21.7907C 6.41487 23.3737 8.35659 26.5119 8.35659 29.9996C 8.35659 33.4872 6.41487 36.6224 3.40334 38.2085C 3.89805 39.8163 4.54426 41.3807 5.32651 42.8772C 6.29738 42.5433 7.32389 42.3701 8.35659 42.3701C 13.4706 42.3701 17.6323 46.5318 17.6323 51.6458C 17.6323 52.6784 17.4592 53.7049 17.1253 54.6758C 18.6218 55.458 20.1832 56.1042 21.7941 56.5989C 23.3771 53.5875 26.5154 51.6458 30.0031 51.6458Z"/>
<path id="path2_fill" d="M 9.27575 18.5512C 4.16172 18.5512 0 14.3896 0 9.27561C 0 4.16166 4.16172 0 9.27575 0C 14.3898 0 18.5515 4.16166 18.5515 9.27561C 18.5515 14.3896 14.3898 18.5512 9.27575 18.5512ZM 9.27575 3.09187C 5.86536 3.09187 3.09192 5.86528 3.09192 9.27561C 3.09192 12.6859 5.86536 15.4594 9.27575 15.4594C 12.6861 15.4594 15.4596 12.6859 15.4596 9.27561C 15.4596 5.86528 12.6861 3.09187 9.27575 3.09187Z"/>
</defs>
</svg>
