<svg width="100" height="100" viewBox="0 0 100 100" version="1.1" xmlns="http://www.w3.org/2000/svg" xmlns:xlink="http://www.w3.org/1999/xlink">
<title>lnr-diamond</title>
<desc>Created using Figma</desc>
<g id="Canvas" transform="translate(92 95)">
<g id="lnr-diamond">
<g id="Ellipse 2.17">
<use xlink:href="#path0_fill" transform="translate(-92 -95)" fill="#EBEBEB"/>
</g>
<g id="Vector">
<use xlink:href="#path1_fill" transform="translate(-72 -75)" fill="#BB6BD9"/>
</g>
</g>
</g>
<defs>
<path id="path0_fill" d="M 100 50C 100 77.6142 77.6142 100 50 100C 22.3858 100 0 77.6142 0 50C 0 22.3858 22.3858 0 50 0C 77.6142 0 100 22.3858 100 50Z"/>
<path id="path1_fill" d="M 59.6827 19.4994L 50.2091 4.49913C 49.9659 4.11288 49.6059 3.85412 49.2049 3.77537L 30.2578 0.0253128C 30.0872 -0.00843775 29.9104 -0.00843775 29.7399 0.0253128L 10.7927 3.77537C 10.3917 3.85412 10.0317 4.11288 9.78855 4.49913L 0.314985 19.4994C -0.136589 20.2156 -0.0986943 21.2131 0.403405 21.8769L 28.8241 59.3775C 29.1241 59.7712 29.5504 60 29.9988 60C 30.4472 60 30.8735 59.775 31.1735 59.3775L 59.5942 21.8769C 60.0995 21.2094 60.1374 20.2156 59.6827 19.4994ZM 40.3755 18.7494L 29.9988 52.6386L 19.6221 18.7494L 40.3755 18.7494ZM 21.1789 14.9993L 29.9988 4.52538L 38.8187 14.9993L 21.1789 14.9993ZM 34.5998 4.68664L 46.2776 6.99667L 42.3839 13.9305L 34.5967 4.68664L 34.5998 4.68664ZM 17.6137 13.9305L 13.7201 6.99667L 25.3978 4.68664L 17.6137 13.9305ZM 14.7464 15.5843L 5.32018 17.8231L 10.9759 8.86795L 14.7464 15.5843ZM 16.3474 19.0306L 25.7389 49.7023L 4.60651 21.8169L 16.3474 19.0269L 16.3474 19.0306ZM 43.6502 19.0306L 55.3911 21.8207L 34.2588 49.7061L 43.6502 19.0344L 43.6502 19.0306ZM 45.2513 15.5843L 49.0217 8.86795L 54.6775 17.8231L 45.2513 15.5843Z"/>
</defs>
</svg>
