<svg width="100" height="100" viewBox="0 0 100 100" version="1.1" xmlns="http://www.w3.org/2000/svg" xmlns:xlink="http://www.w3.org/1999/xlink">
<title>lnr-pencil</title>
<desc>Created using Figma</desc>
<g id="Canvas" transform="translate(7 243)">
<rect x="-7" y="-243" width="100" height="100" fill="#E5E5E5"/>
<g id="Component 5">
<g id="Rectangle 2.7">
<use xlink:href="#path0_fill" transform="translate(-253 -661)" fill="#EE964B"/>
<use xlink:href="#path0_fill" transform="translate(-253 -661)" fill="url(#paint1_linear)"/>
<use xlink:href="#path0_fill" transform="translate(-253 -661)" fill="url(#paint2_linear)"/>
</g>
<g id="Rectangle 2.8" filter="url(#filter0_d)">
<use xlink:href="#path1_fill" transform="translate(-228 -600)" fill="#FFFFFF"/>
</g>
<g id="lnr-pencil">
<g id="Ellipse 2.16">
<use xlink:href="#path2_fill" transform="translate(-7 -243)" fill="#EBEBEB"/>
</g>
<g id="Vector">
<use xlink:href="#path3_fill" transform="translate(14 -223)" fill="#7D7D7D"/>
</g>
</g>
</g>
</g>
<defs>
<filter id="filter0_d" filterUnits="userSpaceOnUse" x="-228" y="-600" width="374" height="668" color-interpolation-filters="sRGB">
<feFlood flood-opacity="0" result="BackgroundImageFix"/>
<feColorMatrix in="SourceAlpha" type="matrix" values="0 0 0 0 0 0 0 0 0 0 0 0 0 0 0 0 0 0 255 0"/>
<feOffset dx="5" dy="5"/>
<feGaussianBlur stdDeviation="2"/>
<feColorMatrix type="matrix" values="0 0 0 0 0 0 0 0 0 0 0 0 0 0 0 0 0 0 0.25 0"/>
<feBlend mode="normal" in2="BackgroundImageFix" result="effect1_dropShadow"/>
<feBlend mode="normal" in="SourceGraphic" in2="effect1_dropShadow" result="shape"/>
</filter>
<linearGradient id="paint1_linear" x1="0" y1="0" x2="1" y2="0" gradientUnits="userSpaceOnUse" gradientTransform="matrix(-153 -271 153.174 -86.4782 218.413 547.239)">
<stop offset="0" stop-color="#28AFB0"/>
<stop offset="1" stop-color="#FFFFFF" stop-opacity="0"/>
</linearGradient>
<linearGradient id="paint2_linear" x1="0" y1="0" x2="1" y2="0" gradientUnits="userSpaceOnUse" gradientTransform="matrix(-469 708 -400.174 -265.087 665.087 164.543)">
<stop offset="0" stop-color="#FFFFFF"/>
<stop offset="1" stop-color="#FFFFFF" stop-opacity="0"/>
</linearGradient>
<path id="path0_fill" d="M 0 0L 416 0L 416 736L 0 736L 0 0Z"/>
<path id="path1_fill" d="M 0 27C 0 12.0883 12.0883 0 27 0L 338 0C 352.912 0 365 12.0883 365 27L 365 632C 365 646.912 352.912 659 338 659L 27 659C 12.0883 659 0 646.912 0 632L 0 27Z"/>
<path id="path2_fill" d="M 100 50C 100 77.6142 77.6142 100 50 100C 22.3858 100 0 77.6142 0 50C 0 22.3858 22.3858 0 50 0C 77.6142 0 100 22.3858 100 50Z"/>
<path id="path3_fill" d="M 57.3837 2.6164C 55.6956 0.928207 53.4518 1.11904e-09 51.0638 1.11904e-09C 48.6758 1.11904e-09 46.432 0.928207 44.7439 2.6164L 6.44593 40.9162C 6.28973 41.0724 6.17259 41.2586 6.09749 41.4659L 0.089968 57.9874C -0.10828 58.5371 0.026889 59.1499 0.438404 59.5614C 0.723762 59.8468 1.10824 60 1.50174 60C 1.67295 60 1.84717 59.97 2.01538 59.9099L 18.5361 53.9021C 18.7433 53.827 18.9296 53.7068 19.0858 53.5536L 57.3837 15.2538C 59.0718 13.5656 60 11.3217 60 8.93361C 60 6.54551 59.0718 4.30159 57.3837 2.6134L 57.3837 2.6164ZM 17.1964 51.1956L 4.01288 55.9898L 8.80688 42.8056L 42.0525 9.55842L 50.442 17.9483L 17.1964 51.1956ZM 55.2571 13.1301L 52.5657 15.8216L 44.1762 7.43166L 46.8675 4.74016C 47.9879 3.61971 49.4778 3.0039 51.0608 3.0039C 52.6438 3.0039 54.1337 3.61971 55.2541 4.74016C 56.3745 5.86062 56.9902 7.35055 56.9902 8.93361C 56.9902 10.5167 56.3745 12.0066 55.2541 13.1271L 55.2571 13.1301Z"/>
</defs>
</svg>
