<svg width="56" height="55" viewBox="0 0 56 55" version="1.1" xmlns="http://www.w3.org/2000/svg" xmlns:xlink="http://www.w3.org/1999/xlink">
<title>Inr-heart</title>
<desc>Created using Figma</desc>
<g id="Canvas" transform="translate(-2930 -1052)">
<g id="Inr-heart">
<g id="Ellipse 2.4">
<use xlink:href="#path0_fill" transform="translate(2930.34 1052)" fill="#FFFFFF"/>
<use xlink:href="#path0_fill" transform="translate(2930.34 1052)" fill="url(#paint1_linear)"/>
</g>
<g id="Vector" filter="url(#filter0_d)">
<use xlink:href="#path1_fill" transform="translate(2940.34 1062)" fill="#EB1313"/>
<use xlink:href="#path2_stroke" transform="translate(2940.34 1062)" fill="#EB1313"/>
</g>
</g>
</g>
<defs>
<filter id="filter0_d" filterUnits="userSpaceOnUse" x="2935" y="1061" width="45" height="45" color-interpolation-filters="sRGB">
<feFlood flood-opacity="0" result="BackgroundImageFix"/>
<feColorMatrix in="SourceAlpha" type="matrix" values="0 0 0 0 0 0 0 0 0 0 0 0 0 0 0 0 0 0 255 0"/>
<feOffset dx="0" dy="4"/>
<feGaussianBlur stdDeviation="2"/>
<feColorMatrix type="matrix" values="0 0 0 0 0 0 0 0 0 0 0 0 0 0 0 0 0 0 0.25 0"/>
<feBlend mode="normal" in2="BackgroundImageFix" result="effect1_dropShadow"/>
<feBlend mode="normal" in="SourceGraphic" in2="effect1_dropShadow" result="shape"/>
</filter>
<linearGradient id="paint1_linear" x1="0" y1="0" x2="1" y2="0" gradientUnits="userSpaceOnUse" gradientTransform="matrix(-1.5691e-06 -76.5 76.5 -1.5691e-06 -10.25 55)">
<stop offset="0" stop-color="#FFFFFF"/>
<stop offset="1" stop-color="#FFFFFF" stop-opacity="0"/>
</linearGradient>
<path id="path0_fill" d="M 55 27.5C 55 42.6878 42.6878 55 27.5 55C 12.3122 55 0 42.6878 0 27.5C 0 12.3122 12.3122 0 27.5 0C 42.6878 0 55 12.3122 55 27.5Z"/>
<path id="path1_fill" d="M 17.5 35C 17.3453 35 17.1924 34.9568 17.0524 34.8703C 16.8792 34.7632 12.7676 32.1918 8.59342 27.9794C 6.12316 25.4882 4.15211 22.9394 2.73 20.4029C 0.917368 17.1685 0 13.9403 0 10.8088C 0 4.84853 4.33816 -3.65721e-15 9.67105 -3.65721e-15C 11.4763 -3.65721e-15 13.3939 0.755588 15.0703 2.12882C 16.0503 2.93176 16.8847 3.89941 17.5 4.92676C 18.1153 3.89941 18.9497 2.93176 19.9297 2.12882C 21.6061 0.755588 23.5237 -3.65721e-15 25.329 -3.65721e-15C 30.6618 -3.65721e-15 35 4.84853 35 10.8088C 35 13.9403 34.0808 17.1685 32.27 20.4029C 30.8497 22.9394 28.8768 25.4882 26.4084 27.9794C 22.2342 32.1918 18.1226 34.7632 17.9495 34.8703C 17.8095 34.9568 17.6566 35 17.5018 35L 17.5 35ZM 9.67105 2.05882C 5.355 2.05882 1.84211 5.985 1.84211 10.8088C 1.84211 17.0676 6.17105 22.7541 9.80184 26.425C 13.0439 29.7026 16.3303 32.0003 17.5 32.7806C 18.6697 32.0003 21.9561 29.7026 25.1982 26.425C 28.829 22.7562 33.1579 17.0676 33.1579 10.8088C 33.1579 5.985 29.645 2.05882 25.329 2.05882C 22.1918 2.05882 19.145 4.94324 18.3732 7.53118C 18.2479 7.95118 17.8961 8.23529 17.5 8.23529C 17.1039 8.23529 16.7521 7.95118 16.6268 7.53118C 15.855 4.94324 12.8082 2.05882 9.67105 2.05882L 9.67105 2.05882Z"/>
<path id="path2_stroke" d="M 17.0524 34.8703L 16.8552 35.1893L 16.8553 35.1893L 17.0524 34.8703ZM 8.59342 27.9794L 8.85979 27.7155L 8.8597 27.7154L 8.59342 27.9794ZM 2.73 20.4029L 2.40287 20.5863L 2.4029 20.5863L 2.73 20.4029ZM 15.0703 2.12882L 15.3079 1.83875L 15.3079 1.83873L 15.0703 2.12882ZM 17.5 4.92676L 17.1783 5.11944L 17.5 5.65663L 17.8217 5.11944L 17.5 4.92676ZM 19.9297 2.12882L 19.6921 1.83873L 19.6921 1.83875L 19.9297 2.12882ZM 32.27 20.4029L 32.5972 20.5862L 32.5972 20.5861L 32.27 20.4029ZM 26.4084 27.9794L 26.6748 28.2434L 26.6748 28.2434L 26.4084 27.9794ZM 17.9495 34.8703L 18.1465 35.1893L 18.1467 35.1893L 17.9495 34.8703ZM 9.80184 26.425L 9.53523 26.6887L 9.53524 26.6887L 9.80184 26.425ZM 17.5 32.7806L 17.2919 33.0926L 17.5 33.2314L 17.7081 33.0926L 17.5 32.7806ZM 25.1982 26.425L 24.9316 26.1612L 24.9316 26.1613L 25.1982 26.425ZM 18.3732 7.53118L 18.7325 7.63835L 18.3732 7.53118ZM 16.6268 7.53118L 16.2675 7.63835L 16.6268 7.53118ZM 17.5 34.625C 17.4168 34.625 17.3319 34.6022 17.2494 34.5512L 16.8553 35.1893C 17.0529 35.3114 17.2737 35.375 17.5 35.375L 17.5 34.625ZM 17.2496 34.5513C 17.0889 34.452 13.0048 31.8984 8.85979 27.7155L 8.32705 28.2434C 12.5304 32.4852 16.6695 35.0745 16.8552 35.1893L 17.2496 34.5513ZM 8.8597 27.7154C 6.40863 25.2435 4.45973 22.7213 3.0571 20.2195L 2.4029 20.5863C 3.84448 23.1575 5.83768 25.7329 8.32714 28.2435L 8.8597 27.7154ZM 3.05713 20.2196C 1.27017 17.031 0.375 13.8653 0.375 10.8088L -0.375 10.8088C -0.375 14.0153 0.564569 17.3061 2.40287 20.5863L 3.05713 20.2196ZM 0.375 10.8088C 0.375 5.01532 4.5834 0.375 9.67105 0.375L 9.67105 -0.375C 4.09292 -0.375 -0.375 4.68173 -0.375 10.8088L 0.375 10.8088ZM 9.67105 0.375C 11.3733 0.375 13.2095 1.08921 14.8326 2.41891L 15.3079 1.83873C 13.5784 0.421964 11.5794 -0.375 9.67105 -0.375L 9.67105 0.375ZM 14.8326 2.41889C 15.7801 3.19517 16.5858 4.1301 17.1783 5.11944L 17.8217 4.73409C 17.1837 3.66872 16.3205 2.66836 15.3079 1.83875L 14.8326 2.41889ZM 17.8217 5.11944C 18.4142 4.1301 19.22 3.19517 20.1674 2.41889L 19.6921 1.83875C 18.6795 2.66836 17.8163 3.66872 17.1783 4.73409L 17.8217 5.11944ZM 20.1674 2.41891C 21.7906 1.08921 23.6267 0.375 25.329 0.375L 25.329 -0.375C 23.4207 -0.375 21.4216 0.421964 19.6921 1.83873L 20.1674 2.41891ZM 25.329 0.375C 30.4166 0.375 34.625 5.01532 34.625 10.8088L 35.375 10.8088C 35.375 4.68173 30.9071 -0.375 25.329 -0.375L 25.329 0.375ZM 34.625 10.8088C 34.625 13.8652 33.7281 17.0309 31.9428 20.2198L 32.5972 20.5861C 34.4335 17.3061 35.375 14.0154 35.375 10.8088L 34.625 10.8088ZM 31.9428 20.2197C 30.5421 22.7213 28.5914 25.2435 26.142 27.7155L 26.6748 28.2434C 29.1622 25.733 31.1574 23.1576 32.5972 20.5862L 31.9428 20.2197ZM 26.1421 27.7155C 21.997 31.8984 17.913 34.452 17.7523 34.5513L 18.1467 35.1893C 18.3323 35.0745 22.4714 32.4852 26.6748 28.2434L 26.1421 27.7155ZM 17.7524 34.5512C 17.67 34.6022 17.585 34.625 17.5018 34.625L 17.5018 35.375C 17.7281 35.375 17.949 35.3114 18.1465 35.1893L 17.7524 34.5512ZM 17.5018 34.625L 17.5 34.625L 17.5 35.375L 17.5018 35.375L 17.5018 34.625ZM 9.67105 1.68382C 5.10976 1.68382 1.46711 5.81821 1.46711 10.8088L 2.21711 10.8088C 2.21711 6.1518 5.60024 2.43382 9.67105 2.43382L 9.67105 1.68382ZM 1.46711 10.8088C 1.46711 17.2266 5.89372 23.007 9.53523 26.6887L 10.0685 26.1613C 6.44839 22.5013 2.21711 16.9087 2.21711 10.8088L 1.46711 10.8088ZM 9.53524 26.6887C 12.8022 29.9915 16.1114 32.3051 17.2919 33.0926L 17.7081 32.4686C 16.5491 31.6955 13.2857 29.4138 10.0684 26.1613L 9.53524 26.6887ZM 17.7081 33.0926C 18.8886 32.3051 22.1978 29.9915 25.4648 26.6887L 24.9316 26.1613C 21.7143 29.4138 18.4509 31.6955 17.2919 32.4686L 17.7081 33.0926ZM 25.4647 26.6888C 29.1063 23.009 33.5329 17.2265 33.5329 10.8088L 32.7829 10.8088C 32.7829 16.9088 28.5516 22.5033 24.9316 26.1612L 25.4647 26.6888ZM 33.5329 10.8088C 33.5329 5.81821 29.8902 1.68382 25.329 1.68382L 25.329 2.43382C 29.3998 2.43382 32.7829 6.1518 32.7829 10.8088L 33.5329 10.8088ZM 25.329 1.68382C 23.6476 1.68382 22.0195 2.45411 20.7237 3.53674C 19.4283 4.61892 18.4247 6.04632 18.0138 7.424L 18.7325 7.63835C 19.0935 6.42809 19.9992 5.11931 21.2045 4.1123C 22.4093 3.10574 23.8731 2.43382 25.329 2.43382L 25.329 1.68382ZM 18.0138 7.424C 17.9289 7.70859 17.7069 7.86029 17.5 7.86029L 17.5 8.61029C 18.0852 8.61029 18.5669 8.19376 18.7325 7.63835L 18.0138 7.424ZM 17.5 7.86029C 17.2931 7.86029 17.0711 7.70859 16.9862 7.424L 16.2675 7.63835C 16.4331 8.19376 16.9148 8.61029 17.5 8.61029L 17.5 7.86029ZM 16.9862 7.424C 16.5753 6.04632 15.5717 4.61892 14.2764 3.53674C 12.9805 2.45411 11.3524 1.68382 9.67105 1.68382L 9.67105 2.43382C 11.1269 2.43382 12.5907 3.10574 13.7955 4.1123C 15.0008 5.11931 15.9065 6.42809 16.2675 7.63835L 16.9862 7.424Z"/>
</defs>
</svg>
