<svg width="60" height="60" viewBox="0 0 60 60" fill="none" xmlns="http://www.w3.org/2000/svg">
<circle cx="30" cy="30" r="30" fill="url(#paint0_linear)"/>
<path d="M13.4584 42.625H19.2918V25.125H13.4584V42.625ZM45.5418 26.5834C45.5418 24.9792 44.2293 23.6667 42.6251 23.6667H33.423L34.8084 17.0021L34.8522 16.5355C34.8522 15.9375 34.6043 15.3834 34.2105 14.9896L32.6647 13.4584L23.0689 23.0688C22.5293 23.5938 22.2084 24.323 22.2084 25.125V39.7084C22.2084 41.3125 23.5209 42.625 25.1251 42.625H38.2501C39.4605 42.625 40.4959 41.8959 40.9334 40.8459L45.3376 30.5646C45.4689 30.2292 45.5418 29.8792 45.5418 29.5V26.5834Z" fill="white"/>
<defs>
<linearGradient id="paint0_linear" x1="30" y1="0" x2="30" y2="60" gradientUnits="userSpaceOnUse">
<stop stop-color="#01DF8A"/>
<stop offset="1" stop-color="#7CF4F5"/>
</linearGradient>
</defs>
</svg>
