<svg width="56" height="55" viewBox="0 0 56 55" version="1.1" xmlns="http://www.w3.org/2000/svg" xmlns:xlink="http://www.w3.org/1999/xlink">
<title>lnr-thumbs-up</title>
<desc>Created using Figma</desc>
<g id="Canvas" transform="translate(-2999 -1052)">
<g id="lnr-thumbs-up">
<g id="Ellipse 2.5">
<use xlink:href="#path0_fill" transform="translate(2999.01 1052)" fill="#FFFFFF"/>
<use xlink:href="#path0_fill" transform="translate(2999.01 1052)" fill="url(#paint1_linear)"/>
</g>
<g id="Vector" filter="url(#filter0_d)">
<use xlink:href="#path1_fill" transform="translate(3009.01 1062)" fill="#42D473"/>
<use xlink:href="#path2_stroke" transform="translate(3009.01 1062)" fill="#42D473"/>
</g>
</g>
</g>
<defs>
<filter id="filter0_d" filterUnits="userSpaceOnUse" x="3004" y="1061" width="45" height="45" color-interpolation-filters="sRGB">
<feFlood flood-opacity="0" result="BackgroundImageFix"/>
<feColorMatrix in="SourceAlpha" type="matrix" values="0 0 0 0 0 0 0 0 0 0 0 0 0 0 0 0 0 0 255 0"/>
<feOffset dx="0" dy="4"/>
<feGaussianBlur stdDeviation="2"/>
<feColorMatrix type="matrix" values="0 0 0 0 0 0 0 0 0 0 0 0 0 0 0 0 0 0 0.25 0"/>
<feBlend mode="normal" in2="BackgroundImageFix" result="effect1_dropShadow"/>
<feBlend mode="normal" in="SourceGraphic" in2="effect1_dropShadow" result="shape"/>
</filter>
<linearGradient id="paint1_linear" x1="0" y1="0" x2="1" y2="0" gradientUnits="userSpaceOnUse" gradientTransform="matrix(-1.5691e-06 -76.5 76.5 -1.5691e-06 -10.25 55)">
<stop offset="0" stop-color="#FFFFFF"/>
<stop offset="1" stop-color="#FFFFFF" stop-opacity="0"/>
</linearGradient>
<path id="path0_fill" d="M 55 27.5C 55 42.6878 42.6878 55 27.5 55C 12.3122 55 0 42.6878 0 27.5C 0 12.3122 12.3122 0 27.5 0C 42.6878 0 55 12.3122 55 27.5Z"/>
<path id="path1_fill" d="M 33.7595 19.613C 34.5502 18.7188 35 17.2419 35 15.835C 35 14.9058 34.7947 14.092 34.4056 13.4813C 33.8987 12.6869 33.0884 12.2494 32.1245 12.2494L 27.4517 12.2494C 29.9952 7.71536 30.6377 4.29954 29.3615 2.08765C 28.4709 0.545973 26.8395 0 25.7114 0C 25.2652 0 24.8868 0.323734 24.8279 0.757712C 24.5084 3.06585 22.7074 5.82021 19.8873 8.31383C 17.185 10.7025 13.8651 12.6116 10.4523 13.7561C 10.0222 12.8671 9.09939 12.2511 8.03203 12.2511L 2.67734 12.2511C 1.20123 12.2511 1.69552e-10 13.4288 1.69552e-10 14.876L 1.69552e-10 30.6252C 1.69552e-10 32.0724 1.20123 33.2501 2.67734 33.2501L 8.03203 33.2501C 9.16365 33.2501 10.1311 32.5589 10.5237 31.5842C 14.0239 32.0146 15.3412 32.7041 16.6174 33.3726C 18.2149 34.209 19.7213 35 24.6548 35C 25.9399 35 27.15 34.671 28.0639 34.0743C 28.9563 33.4916 29.5275 32.6726 29.7167 31.7242C 30.4289 31.4407 31.0607 30.7862 31.5444 29.8133C 32.0157 28.8666 32.3209 27.6574 32.3209 26.7317C 32.3209 26.5584 32.3102 26.3992 32.2905 26.2522C 32.7421 25.9267 33.1473 25.4245 33.4811 24.763C 33.963 23.8093 34.2521 22.6141 34.2521 21.5677C 34.2521 20.8257 34.1111 20.208 33.8345 19.7285C 33.8113 19.69 33.7881 19.6515 33.7649 19.6148L 33.7595 19.613ZM 8.02846 31.4984L 2.67377 31.4984C 2.18114 31.4984 1.78133 31.1064 1.78133 30.6235L 1.78133 14.8743C 1.78133 14.3913 2.18114 13.9993 2.67377 13.9993L 8.02846 13.9993C 8.52109 13.9993 8.9209 14.3913 8.9209 14.8743L 8.9209 30.6217L 8.9209 30.6235C 8.9209 31.1064 8.52109 31.4984 8.02846 31.4984L 8.02846 31.4984ZM 32.7296 17.9786C 32.4601 18.5106 32.187 18.7031 32.0692 18.7031C 31.5766 18.7031 31.1768 19.095 31.1768 19.578C 31.1768 20.061 31.5766 20.453 32.0692 20.453C 32.1442 20.453 32.1977 20.453 32.278 20.5895C 32.3958 20.7942 32.4637 21.1494 32.4637 21.5659C 32.4637 22.3446 32.2388 23.2703 31.8782 23.9843C 31.5248 24.6825 31.166 24.9363 31.009 24.9363C 30.5163 24.9363 30.1165 25.3282 30.1165 25.8112C 30.1165 26.1209 30.2807 26.3939 30.5288 26.5497C 30.5842 27.1044 30.32 28.5883 29.6346 29.556C 29.3758 29.9218 29.1027 30.1317 28.8885 30.1317C 28.3959 30.1317 27.9961 30.5237 27.9961 31.0067C 27.9961 32.5466 26.2612 33.2483 24.6494 33.2483C 20.164 33.2483 18.9074 32.5904 17.4527 31.8274C 16.0926 31.1152 14.5647 30.3137 10.704 29.843L 10.704 15.5165C 14.4541 14.3108 18.1149 12.2319 21.0778 9.61402C 23.9212 7.10115 25.7882 4.38528 26.4218 1.86891C 26.9073 2.02115 27.4553 2.34313 27.8069 2.95035C 28.403 3.9828 28.8493 6.61817 25.142 12.6746C 24.976 12.9441 24.9725 13.2818 25.1313 13.5566C 25.2902 13.8313 25.5865 14.0011 25.9077 14.0011L 32.1245 14.0011C 32.4797 14.0011 32.7082 14.1235 32.892 14.4105C 33.1009 14.7378 33.2151 15.2452 33.2151 15.8367C 33.2151 16.5787 33.033 17.3801 32.7296 17.9804L 32.7296 17.9786Z"/>
<path id="path2_stroke" d="M 33.7595 19.613L 33.5722 19.4474L 33.3201 19.7325L 33.6819 19.8507L 33.7595 19.613ZM 34.4056 13.4813L 34.6165 13.347L 34.6164 13.3469L 34.4056 13.4813ZM 27.4517 12.2494L 27.2336 12.1271L 27.0248 12.4994L 27.4517 12.4994L 27.4517 12.2494ZM 29.3615 2.08765L 29.5781 1.96271L 29.578 1.96258L 29.3615 2.08765ZM 24.8279 0.757712L 25.0755 0.791991L 25.0756 0.791335L 24.8279 0.757712ZM 19.8873 8.31383L 20.0529 8.50115L 20.0529 8.50112L 19.8873 8.31383ZM 10.4523 13.7561L 10.2273 13.865L 10.3232 14.0631L 10.5318 13.9931L 10.4523 13.7561ZM 10.5237 31.5842L 10.5543 31.336L 10.3636 31.3126L 10.2919 31.4908L 10.5237 31.5842ZM 16.6174 33.3726L 16.5014 33.594L 16.5014 33.5941L 16.6174 33.3726ZM 28.0639 34.0743L 27.9272 33.865L 27.9272 33.865L 28.0639 34.0743ZM 29.7167 31.7242L 29.6243 31.4919L 29.4981 31.5421L 29.4715 31.6753L 29.7167 31.7242ZM 31.5444 29.8133L 31.3206 29.7019L 31.3206 29.702L 31.5444 29.8133ZM 32.2905 26.2522L 32.1444 26.0494L 32.0229 26.1369L 32.0427 26.2853L 32.2905 26.2522ZM 33.4811 24.763L 33.2579 24.6503L 33.2579 24.6504L 33.4811 24.763ZM 33.8345 19.7285L 34.051 19.6035L 34.0486 19.5995L 33.8345 19.7285ZM 33.7649 19.6148L 33.9762 19.4813L 33.9281 19.4051L 33.8425 19.3771L 33.7649 19.6148ZM 32.7296 17.9786L 32.9796 17.9786L 32.5066 17.8656L 32.7296 17.9786ZM 32.278 20.5895L 32.4947 20.4648L 32.4935 20.4627L 32.278 20.5895ZM 31.8782 23.9843L 32.1013 24.0972L 32.1014 24.097L 31.8782 23.9843ZM 30.5288 26.5497L 30.7776 26.5249L 30.7655 26.403L 30.6618 26.3379L 30.5288 26.5497ZM 29.6346 29.556L 29.4306 29.4115L 29.4305 29.4116L 29.6346 29.556ZM 17.4527 31.8274L 17.5688 31.606L 17.5687 31.6059L 17.4527 31.8274ZM 10.704 29.843L 10.454 29.843L 10.454 30.0644L 10.6738 30.0912L 10.704 29.843ZM 10.704 15.5165L 10.6275 15.2785L 10.454 15.3342L 10.454 15.5165L 10.704 15.5165ZM 21.0778 9.61402L 21.2434 9.80137L 21.2434 9.80135L 21.0778 9.61402ZM 26.4218 1.86891L 26.4966 1.63036L 26.244 1.55115L 26.1794 1.80786L 26.4218 1.86891ZM 27.8069 2.95035L 28.0234 2.82534L 28.0232 2.82507L 27.8069 2.95035ZM 25.142 12.6746L 25.3549 12.8057L 25.3553 12.8051L 25.142 12.6746ZM 32.892 14.4105L 33.1028 14.276L 33.1025 14.2757L 32.892 14.4105ZM 32.7296 17.9804L 32.4796 17.9804L 32.9527 18.0931L 32.7296 17.9804ZM 33.9468 19.7786C 34.7891 18.8261 35.25 17.2836 35.25 15.835L 34.75 15.835C 34.75 17.2002 34.3113 18.6116 33.5722 19.4474L 33.9468 19.7786ZM 35.25 15.835C 35.25 14.8716 35.0375 14.0078 34.6165 13.347L 34.1948 13.6157C 34.552 14.1763 34.75 14.9399 34.75 15.835L 35.25 15.835ZM 34.6164 13.3469C 34.0623 12.4784 33.1713 11.9994 32.1245 11.9994L 32.1245 12.4994C 33.0054 12.4994 33.7352 12.8953 34.1949 13.6158L 34.6164 13.3469ZM 32.1245 11.9994L 27.4517 11.9994L 27.4517 12.4994L 32.1245 12.4994L 32.1245 11.9994ZM 27.6697 12.3717C 28.9488 10.0916 29.7588 8.07763 30.0847 6.3439C 30.4108 4.60906 30.2552 3.13632 29.5781 1.96271L 29.145 2.21258C 29.744 3.25087 29.9053 4.59199 29.5933 6.25153C 29.2811 7.9122 28.4981 9.87312 27.2336 12.1271L 27.6697 12.3717ZM 29.578 1.96258C 28.6316 0.324386 26.9041 -0.25 25.7114 -0.25L 25.7114 0.25C 26.7748 0.25 28.3101 0.767559 29.145 2.21271L 29.578 1.96258ZM 25.7114 -0.25C 25.1443 -0.25 24.6564 0.162064 24.5802 0.724089L 25.0756 0.791335C 25.1171 0.485404 25.3861 0.25 25.7114 0.25L 25.7114 -0.25ZM 24.5802 0.723434C 24.2727 2.94543 22.5229 5.64965 19.7217 8.12655L 20.0529 8.50112C 22.8919 5.99077 24.7441 3.18627 25.0755 0.791991L 24.5802 0.723434ZM 19.7217 8.12652C 17.0447 10.4928 13.7541 12.3851 10.3729 13.519L 10.5318 13.9931C 13.976 12.8381 17.3252 10.9121 20.0529 8.50115L 19.7217 8.12652ZM 10.6774 13.6472C 10.2064 12.6738 9.19732 12.0011 8.03203 12.0011L 8.03203 12.5011C 9.00146 12.5011 9.83799 13.0604 10.2273 13.865L 10.6774 13.6472ZM 8.03203 12.0011L 2.67734 12.0011L 2.67734 12.5011L 8.03203 12.5011L 8.03203 12.0011ZM 2.67734 12.0011C 1.06785 12.0011 -0.25 13.2861 -0.25 14.876L 0.25 14.876C 0.25 13.5715 1.33462 12.5011 2.67734 12.5011L 2.67734 12.0011ZM -0.25 14.876L -0.25 30.6252L 0.25 30.6252L 0.25 14.876L -0.25 14.876ZM -0.25 30.6252C -0.25 32.2151 1.06785 33.5001 2.67734 33.5001L 2.67734 33.0001C 1.33462 33.0001 0.25 31.9297 0.25 30.6252L -0.25 30.6252ZM 2.67734 33.5001L 8.03203 33.5001L 8.03203 33.0001L 2.67734 33.0001L 2.67734 33.5001ZM 8.03203 33.5001C 9.26735 33.5001 10.3255 32.7453 10.7556 31.6776L 10.2919 31.4908C 9.93665 32.3724 9.05995 33.0001 8.03203 33.0001L 8.03203 33.5001ZM 10.4932 31.8323C 13.9571 32.2583 15.2454 32.9362 16.5014 33.594L 16.7334 33.1511C 15.4369 32.472 14.0907 31.771 10.5543 31.336L 10.4932 31.8323ZM 16.5014 33.5941C 17.3022 34.0134 18.1003 34.4323 19.3237 34.7423C 20.5435 35.0514 22.1758 35.25 24.6548 35.25L 24.6548 34.75C 22.2003 34.75 20.6126 34.5531 19.4465 34.2576C 18.2839 33.963 17.53 33.5683 16.7333 33.1511L 16.5014 33.5941ZM 24.6548 35.25C 25.9797 35.25 27.2394 34.9113 28.2006 34.2836L 27.9272 33.865C 27.0607 34.4308 25.9 34.75 24.6548 34.75L 24.6548 35.25ZM 28.2006 34.2836C 29.1439 33.6677 29.7583 32.7934 29.9619 31.7731L 29.4715 31.6753C 29.2967 32.5518 28.7688 33.3155 27.9272 33.865L 28.2006 34.2836ZM 29.8092 31.9564C 30.5975 31.6426 31.2679 30.9311 31.7683 29.9246L 31.3206 29.702C 30.8536 30.6413 30.2603 31.2387 29.6243 31.4919L 29.8092 31.9564ZM 31.7683 29.9247C 32.2542 28.9484 32.5709 27.7013 32.5709 26.7317L 32.0709 26.7317C 32.0709 27.6134 31.7771 28.7847 31.3206 29.7019L 31.7683 29.9247ZM 32.5709 26.7317C 32.5709 26.5481 32.5595 26.3778 32.5383 26.2191L 32.0427 26.2853C 32.0608 26.4206 32.0709 26.5687 32.0709 26.7317L 32.5709 26.7317ZM 32.4367 26.455C 32.929 26.1002 33.3575 25.5627 33.7042 24.8756L 33.2579 24.6504C 32.937 25.2862 32.5553 25.7532 32.1444 26.0494L 32.4367 26.455ZM 33.7042 24.8758C 34.2033 23.888 34.5021 22.6543 34.5021 21.5677L 34.0021 21.5677C 34.0021 22.5739 33.7226 23.7306 33.2579 24.6503L 33.7042 24.8758ZM 34.5021 21.5677C 34.5021 20.7959 34.3557 20.1316 34.051 19.6036L 33.6179 19.8535C 33.8666 20.2844 34.0021 20.8555 34.0021 21.5677L 34.5021 21.5677ZM 34.0486 19.5995C 34.0256 19.5614 34.0011 19.5206 33.9762 19.4813L 33.5535 19.7482C 33.575 19.7824 33.5969 19.8186 33.6203 19.8576L 34.0486 19.5995ZM 33.8425 19.3771L 33.8371 19.3754L 33.6819 19.8507L 33.6872 19.8524L 33.8425 19.3771ZM 8.02846 31.2484L 2.67377 31.2484L 2.67377 31.7484L 8.02846 31.7484L 8.02846 31.2484ZM 2.67377 31.2484C 2.31452 31.2484 2.03133 30.9637 2.03133 30.6235L 1.53133 30.6235C 1.53133 31.2492 2.04776 31.7484 2.67377 31.7484L 2.67377 31.2484ZM 2.03133 30.6235L 2.03133 14.8743L 1.53133 14.8743L 1.53133 30.6235L 2.03133 30.6235ZM 2.03133 14.8743C 2.03133 14.534 2.31452 14.2493 2.67377 14.2493L 2.67377 13.7493C 2.04776 13.7493 1.53133 14.2486 1.53133 14.8743L 2.03133 14.8743ZM 2.67377 14.2493L 8.02846 14.2493L 8.02846 13.7493L 2.67377 13.7493L 2.67377 14.2493ZM 8.02846 14.2493C 8.3877 14.2493 8.6709 14.534 8.6709 14.8743L 9.1709 14.8743C 9.1709 14.2486 8.65447 13.7493 8.02846 13.7493L 8.02846 14.2493ZM 8.6709 14.8743L 8.6709 30.6217L 9.1709 30.6217L 9.1709 14.8743L 8.6709 14.8743ZM 8.6709 30.6217L 8.6709 30.6235L 9.1709 30.6235L 9.1709 30.6217L 8.6709 30.6217ZM 8.6709 30.6235C 8.6709 30.9637 8.3877 31.2484 8.02846 31.2484L 8.02846 31.7484C 8.65447 31.7484 9.1709 31.2492 9.1709 30.6235L 8.6709 30.6235ZM 32.5066 17.8656C 32.3812 18.1132 32.2604 18.2705 32.1673 18.362C 32.1206 18.4078 32.0841 18.434 32.0607 18.4473C 32.0328 18.4632 32.0376 18.4531 32.0692 18.4531L 32.0692 18.9531C 32.1597 18.9531 32.2429 18.9189 32.3077 18.882C 32.3771 18.8426 32.4477 18.7874 32.5177 18.7187C 32.658 18.5809 32.8086 18.376 32.9526 18.0916L 32.5066 17.8656ZM 32.0692 18.4531C 31.4432 18.4531 30.9268 18.9523 30.9268 19.578L 31.4268 19.578C 31.4268 19.2378 31.71 18.9531 32.0692 18.9531L 32.0692 18.4531ZM 30.9268 19.578C 30.9268 20.2037 31.4432 20.703 32.0692 20.703L 32.0692 20.203C 31.71 20.203 31.4268 19.9183 31.4268 19.578L 30.9268 19.578ZM 32.0692 20.703C 32.0793 20.703 32.0845 20.703 32.0888 20.7031C 32.0927 20.7032 32.0928 20.7034 32.0907 20.7031C 32.0884 20.7028 32.0835 20.702 32.0769 20.7001C 32.0702 20.6982 32.0631 20.6954 32.0562 20.6918C 32.0494 20.6883 32.0442 20.6847 32.0408 20.6819C 32.0375 20.6793 32.0363 20.6779 32.0373 20.6789C 32.0382 20.68 32.041 20.6832 32.0454 20.6894C 32.0498 20.6956 32.0556 20.7043 32.0626 20.7163L 32.4935 20.4627C 32.4439 20.3784 32.3809 20.2971 32.287 20.2483C 32.1921 20.1989 32.0989 20.203 32.0692 20.203L 32.0692 20.703ZM 32.0613 20.7142C 32.1465 20.8621 32.2137 21.1646 32.2137 21.5659L 32.7137 21.5659C 32.7137 21.1343 32.6452 20.7263 32.4947 20.4648L 32.0613 20.7142ZM 32.2137 21.5659C 32.2137 22.3042 31.9986 23.1914 31.6551 23.8716L 32.1014 24.097C 32.479 23.3493 32.7137 22.3851 32.7137 21.5659L 32.2137 21.5659ZM 31.6552 23.8714C 31.4878 24.2021 31.3247 24.4162 31.1948 24.5437C 31.1298 24.6076 31.0763 24.6466 31.0381 24.6682C 30.9957 24.6922 30.9876 24.6863 31.009 24.6863L 31.009 25.1863C 31.1089 25.1863 31.2046 25.1486 31.2846 25.1032C 31.3689 25.0554 31.4567 24.9873 31.5451 24.9005C 31.7223 24.7266 31.9153 24.4647 32.1013 24.0972L 31.6552 23.8714ZM 31.009 24.6863C 30.383 24.6863 29.8665 25.1855 29.8665 25.8112L 30.3665 25.8112C 30.3665 25.4709 30.6497 25.1863 31.009 25.1863L 31.009 24.6863ZM 29.8665 25.8112C 29.8665 26.2118 30.0792 26.5626 30.3959 26.7614L 30.6618 26.3379C 30.4823 26.2253 30.3665 26.03 30.3665 25.8112L 29.8665 25.8112ZM 30.2801 26.5745C 30.3036 26.8101 30.2589 27.2873 30.1174 27.8355C 29.9771 28.3794 29.7497 28.9609 29.4306 29.4115L 29.8386 29.7005C 30.2049 29.1834 30.4523 28.5391 30.6016 27.9604C 30.7497 27.3861 30.8094 26.844 30.7776 26.5249L 30.2801 26.5745ZM 29.4305 29.4116C 29.311 29.5806 29.1945 29.7042 29.0922 29.783C 28.9858 29.865 28.9173 29.8817 28.8885 29.8817L 28.8885 30.3817C 29.0739 30.3817 29.249 30.2935 29.3975 30.179C 29.55 30.0614 29.6994 29.8972 29.8387 29.7004L 29.4305 29.4116ZM 28.8885 29.8817C 28.2625 29.8817 27.7461 30.381 27.7461 31.0067L 28.2461 31.0067C 28.2461 30.6664 28.5293 30.3817 28.8885 30.3817L 28.8885 29.8817ZM 27.7461 31.0067C 27.7461 31.6642 27.3824 32.1524 26.8018 32.4887C 26.2147 32.8288 25.4244 32.9983 24.6494 32.9983L 24.6494 33.4983C 25.4861 33.4983 26.3692 33.3171 27.0524 32.9213C 27.7423 32.5217 28.2461 31.8891 28.2461 31.0067L 27.7461 31.0067ZM 24.6494 32.9983C 22.4174 32.9983 21.0039 32.8345 19.9742 32.5812C 18.949 32.3291 18.2939 31.9863 17.5688 31.606L 17.3366 32.0488C 18.0662 32.4315 18.7667 32.7992 19.8548 33.0668C 20.9384 33.3332 22.396 33.4983 24.6494 33.4983L 24.6494 32.9983ZM 17.5687 31.6059C 16.1891 30.8835 14.6321 30.0701 10.7343 29.5948L 10.6738 30.0912C 14.4973 30.5574 15.9961 31.3469 17.3367 32.0489L 17.5687 31.6059ZM 10.954 29.843L 10.954 15.5165L 10.454 15.5165L 10.454 29.843L 10.954 29.843ZM 10.7805 15.7545C 14.5634 14.5383 18.2545 12.4421 21.2434 9.80137L 20.9123 9.42667C 17.9753 12.0216 14.3448 14.0833 10.6275 15.2785L 10.7805 15.7545ZM 21.2434 9.80135C 24.1083 7.26938 26.0139 4.51262 26.6642 1.92995L 26.1794 1.80786C 25.5624 4.25794 23.734 6.93291 20.9123 9.42669L 21.2434 9.80135ZM 26.347 2.10745C 26.7898 2.2463 27.2782 2.53619 27.5905 3.07563L 28.0232 2.82507C 27.6324 2.15008 27.0248 1.796 26.4966 1.63036L 26.347 2.10745ZM 27.5904 3.07536C 28.1133 3.98103 28.626 6.50399 24.9288 12.5441L 25.3553 12.8051C 29.0725 6.73235 28.6927 3.98458 28.0234 2.82534L 27.5904 3.07536ZM 24.9292 12.5435C 24.7145 12.892 24.7105 13.3281 24.9149 13.6817L 25.3477 13.4314C 25.2345 13.2355 25.2376 12.9962 25.3549 12.8057L 24.9292 12.5435ZM 24.9149 13.6817C 25.1191 14.0348 25.4985 14.2511 25.9077 14.2511L 25.9077 13.7511C 25.6745 13.7511 25.4613 13.6278 25.3477 13.4314L 24.9149 13.6817ZM 25.9077 14.2511L 32.1245 14.2511L 32.1245 13.7511L 25.9077 13.7511L 25.9077 14.2511ZM 32.1245 14.2511C 32.2733 14.2511 32.376 14.2766 32.4548 14.3187C 32.5329 14.3604 32.6067 14.4286 32.6815 14.5454L 33.1025 14.2757C 32.9935 14.1054 32.8612 13.9689 32.6903 13.8777C 32.5201 13.7868 32.331 13.7511 32.1245 13.7511L 32.1245 14.2511ZM 32.6813 14.545C 32.8542 14.816 32.9651 15.2693 32.9651 15.8367L 33.4651 15.8367C 33.4651 15.2212 33.3475 14.6596 33.1028 14.276L 32.6813 14.545ZM 32.9651 15.8367C 32.9651 16.5434 32.7906 17.3056 32.5065 17.8676L 32.9527 18.0931C 33.2755 17.4546 33.4651 16.614 33.4651 15.8367L 32.9651 15.8367ZM 32.9796 17.9804L 32.9796 17.9786L 32.4796 17.9786L 32.4796 17.9804L 32.9796 17.9804Z"/>
</defs>
</svg>
