<svg width="55" height="55" viewBox="0 0 55 55" version="1.1" xmlns="http://www.w3.org/2000/svg" xmlns:xlink="http://www.w3.org/1999/xlink">
<title>lnr-thumbs-up</title>
<desc>Created using Figma</desc>
<g id="Canvas" transform="translate(-3029 -1051)">
<g id="lnr-thumbs-up">
<g id="Ellipse 2.1">
<use xlink:href="#path0_fill" transform="translate(3029 1051)" fill="#FFFFFF"/>
</g>
<g id="Vector">
<use xlink:href="#path1_fill" transform="translate(3039 1061)" fill="#415A77"/>
<mask id="mask0_outline_out">
<rect id="mask0_outline_inv" fill="white" x="-1" y="-1" width="37" height="37" transform="translate(3039 1061)"/>
<use xlink:href="#path1_fill" fill="black" transform="translate(3039 1061)"/>
</mask>
<g mask="url(#mask0_outline_out)">
<use xlink:href="#path2_stroke_2x" transform="translate(3039 1061)" fill="#415A77"/>
</g>
</g>
</g>
</g>
<defs>
<path id="path0_fill" d="M 55 27.5C 55 42.6878 42.6878 55 27.5 55C 12.3122 55 0 42.6878 0 27.5C 0 12.3122 12.3122 0 27.5 0C 42.6878 0 55 12.3122 55 27.5Z"/>
<path id="path1_fill" d="M 33.7595 19.613C 34.5502 18.7188 35 17.2419 35 15.835C 35 14.9058 34.7947 14.092 34.4056 13.4813C 33.8987 12.6869 33.0884 12.2494 32.1245 12.2494L 27.4517 12.2494C 29.9952 7.71536 30.6377 4.29954 29.3615 2.08765C 28.4709 0.545973 26.8395 0 25.7114 0C 25.2652 0 24.8868 0.323734 24.8279 0.757712C 24.5084 3.06585 22.7074 5.82021 19.8873 8.31383C 17.185 10.7025 13.8651 12.6116 10.4523 13.7561C 10.0222 12.8671 9.09939 12.2511 8.03203 12.2511L 2.67734 12.2511C 1.20123 12.2511 1.69552e-10 13.4288 1.69552e-10 14.876L 1.69552e-10 30.6252C 1.69552e-10 32.0724 1.20123 33.2501 2.67734 33.2501L 8.03203 33.2501C 9.16365 33.2501 10.1311 32.5589 10.5237 31.5842C 14.0239 32.0146 15.3412 32.7041 16.6174 33.3726C 18.2149 34.209 19.7213 35 24.6548 35C 25.9399 35 27.15 34.671 28.0639 34.0743C 28.9563 33.4916 29.5275 32.6726 29.7167 31.7242C 30.4289 31.4407 31.0607 30.7862 31.5444 29.8133C 32.0157 28.8666 32.3209 27.6574 32.3209 26.7317C 32.3209 26.5584 32.3102 26.3992 32.2905 26.2522C 32.7421 25.9267 33.1473 25.4245 33.4811 24.763C 33.963 23.8093 34.2521 22.6141 34.2521 21.5677C 34.2521 20.8257 34.1111 20.208 33.8345 19.7285C 33.8113 19.69 33.7881 19.6515 33.7649 19.6148L 33.7595 19.613ZM 8.02846 31.4984L 2.67377 31.4984C 2.18114 31.4984 1.78133 31.1064 1.78133 30.6235L 1.78133 14.8743C 1.78133 14.3913 2.18114 13.9993 2.67377 13.9993L 8.02846 13.9993C 8.52109 13.9993 8.9209 14.3913 8.9209 14.8743L 8.9209 30.6217L 8.9209 30.6235C 8.9209 31.1064 8.52109 31.4984 8.02846 31.4984L 8.02846 31.4984ZM 32.7296 17.9786C 32.4601 18.5106 32.187 18.7031 32.0692 18.7031C 31.5766 18.7031 31.1768 19.095 31.1768 19.578C 31.1768 20.061 31.5766 20.453 32.0692 20.453C 32.1442 20.453 32.1977 20.453 32.278 20.5895C 32.3958 20.7942 32.4637 21.1494 32.4637 21.5659C 32.4637 22.3446 32.2388 23.2703 31.8782 23.9843C 31.5248 24.6825 31.166 24.9363 31.009 24.9363C 30.5163 24.9363 30.1165 25.3282 30.1165 25.8112C 30.1165 26.1209 30.2807 26.3939 30.5288 26.5497C 30.5842 27.1044 30.32 28.5883 29.6346 29.556C 29.3758 29.9218 29.1027 30.1317 28.8885 30.1317C 28.3959 30.1317 27.9961 30.5237 27.9961 31.0067C 27.9961 32.5466 26.2612 33.2483 24.6494 33.2483C 20.164 33.2483 18.9074 32.5904 17.4527 31.8274C 16.0926 31.1152 14.5647 30.3137 10.704 29.843L 10.704 15.5165C 14.4541 14.3108 18.1149 12.2319 21.0778 9.61402C 23.9212 7.10115 25.7882 4.38528 26.4218 1.86891C 26.9073 2.02115 27.4553 2.34313 27.8069 2.95035C 28.403 3.9828 28.8493 6.61817 25.142 12.6746C 24.976 12.9441 24.9725 13.2818 25.1313 13.5566C 25.2902 13.8313 25.5865 14.0011 25.9077 14.0011L 32.1245 14.0011C 32.4797 14.0011 32.7082 14.1235 32.892 14.4105C 33.1009 14.7378 33.2151 15.2452 33.2151 15.8367C 33.2151 16.5787 33.033 17.3801 32.7296 17.9804L 32.7296 17.9786Z"/>
<path id="path2_stroke_2x" d="M 33.7595 19.613L 33.3849 19.2818L 32.8807 19.852L 33.6043 20.0883L 33.7595 19.613ZM 34.4056 13.4813L 34.8273 13.2127L 34.8271 13.2124L 34.4056 13.4813ZM 27.4517 12.2494L 27.0156 12.0048L 26.5979 12.7494L 27.4517 12.7494L 27.4517 12.2494ZM 29.3615 2.08765L 29.7946 1.83777L 29.7945 1.83752L 29.3615 2.08765ZM 24.8279 0.757712L 25.3232 0.82627L 25.3233 0.824958L 24.8279 0.757712ZM 19.8873 8.31383L 20.2184 8.68846L 20.2185 8.68841L 19.8873 8.31383ZM 10.4523 13.7561L 10.0023 13.9739L 10.194 14.3701L 10.6113 14.2301L 10.4523 13.7561ZM 10.5237 31.5842L 10.5848 31.0879L 10.2035 31.041L 10.06 31.3973L 10.5237 31.5842ZM 16.6174 33.3726L 16.3854 33.8155L 16.3854 33.8155L 16.6174 33.3726ZM 28.0639 34.0743L 27.7905 33.6556L 27.7905 33.6556L 28.0639 34.0743ZM 29.7167 31.7242L 29.5318 31.2596L 29.2795 31.36L 29.2264 31.6264L 29.7167 31.7242ZM 31.5444 29.8133L 31.0968 29.5905L 31.0967 29.5907L 31.5444 29.8133ZM 32.2905 26.2522L 31.9982 25.8466L 31.7553 26.0216L 31.7949 26.3184L 32.2905 26.2522ZM 33.4811 24.763L 33.0348 24.5375L 33.0347 24.5378L 33.4811 24.763ZM 33.8345 19.7285L 34.2676 19.4786L 34.2627 19.4704L 33.8345 19.7285ZM 33.7649 19.6148L 34.1876 19.3478L 34.0914 19.1954L 33.9201 19.1395L 33.7649 19.6148ZM 32.7296 17.9786L 33.2296 17.9786L 32.2836 17.7526L 32.7296 17.9786ZM 32.278 20.5895L 32.7114 20.3401L 32.709 20.3359L 32.278 20.5895ZM 31.8782 23.9843L 32.3243 24.2101L 32.3245 24.2097L 31.8782 23.9843ZM 30.5288 26.5497L 31.0264 26.5L 31.0021 26.2564L 30.7947 26.1262L 30.5288 26.5497ZM 29.6346 29.556L 29.2266 29.267L 29.2265 29.2672L 29.6346 29.556ZM 17.4527 31.8274L 17.6849 31.3846L 17.6846 31.3845L 17.4527 31.8274ZM 10.704 29.843L 10.204 29.843L 10.204 30.2857L 10.6435 30.3393L 10.704 29.843ZM 10.704 15.5165L 10.551 15.0405L 10.204 15.152L 10.204 15.5165L 10.704 15.5165ZM 21.0778 9.61402L 21.4089 9.98872L 21.4089 9.98867L 21.0778 9.61402ZM 26.4218 1.86891L 26.5714 1.39181L 26.0662 1.23339L 25.9369 1.74681L 26.4218 1.86891ZM 27.8069 2.95035L 28.2399 2.70033L 28.2396 2.69979L 27.8069 2.95035ZM 25.142 12.6746L 25.5677 12.9368L 25.5685 12.9357L 25.142 12.6746ZM 32.892 14.4105L 33.3135 14.1415L 33.3131 14.1408L 32.892 14.4105ZM 32.7296 17.9804L 32.2296 17.9804L 33.1758 18.2059L 32.7296 17.9804ZM 34.1341 19.9442C 35.028 18.9333 35.5 17.3253 35.5 15.835L 34.5 15.835C 34.5 17.1585 34.0724 18.5043 33.3849 19.2818L 34.1341 19.9442ZM 35.5 15.835C 35.5 14.8374 35.2803 13.9236 34.8273 13.2127L 33.9839 13.75C 34.3092 14.2605 34.5 14.9741 34.5 15.835L 35.5 15.835ZM 34.8271 13.2124C 34.2258 12.27 33.2543 11.7494 32.1245 11.7494L 32.1245 12.7494C 32.9224 12.7494 33.5716 13.1038 33.9841 13.7503L 34.8271 13.2124ZM 32.1245 11.7494L 27.4517 11.7494L 27.4517 12.7494L 32.1245 12.7494L 32.1245 11.7494ZM 27.8878 12.494C 29.1741 10.2009 29.9976 8.16034 30.3304 6.39009C 30.6636 4.61759 30.5108 3.07904 29.7946 1.83777L 28.9284 2.33752C 29.4885 3.30814 29.6525 4.58345 29.3476 6.20534C 29.0423 7.82948 28.2727 9.76386 27.0156 12.0048L 27.8878 12.494ZM 29.7945 1.83752C 28.7923 0.1028 26.9687 -0.5 25.7114 -0.5L 25.7114 0.5C 26.7102 0.5 28.1494 0.989146 28.9286 2.33777L 29.7945 1.83752ZM 25.7114 -0.5C 25.0234 -0.5 24.4261 0.000394359 24.3324 0.690466L 25.3233 0.824958C 25.3475 0.647073 25.507 0.5 25.7114 0.5L 25.7114 -0.5ZM 24.3326 0.689155C 24.037 2.82501 22.3384 5.47909 19.5561 7.93926L 20.2185 8.68841C 23.0765 6.16133 24.9798 3.30669 25.3232 0.826269L 24.3326 0.689155ZM 19.5562 7.93921C 16.9044 10.2831 13.6432 12.1587 10.2934 13.282L 10.6113 14.2301C 14.0869 13.0646 17.4655 11.1218 20.2184 8.68846L 19.5562 7.93921ZM 10.9024 13.5383C 10.3906 12.4805 9.29525 11.7511 8.03203 11.7511L 8.03203 12.7511C 8.90353 12.7511 9.6538 13.2537 10.0023 13.9739L 10.9024 13.5383ZM 8.03203 11.7511L 2.67734 11.7511L 2.67734 12.7511L 8.03203 12.7511L 8.03203 11.7511ZM 2.67734 11.7511C 0.934468 11.7511 -0.5 13.1434 -0.5 14.876L 0.5 14.876C 0.5 13.7143 1.468 12.7511 2.67734 12.7511L 2.67734 11.7511ZM -0.5 14.876L -0.5 30.6252L 0.5 30.6252L 0.5 14.876L -0.5 14.876ZM -0.5 30.6252C -0.5 32.3578 0.934468 33.7501 2.67734 33.7501L 2.67734 32.7501C 1.468 32.7501 0.5 31.787 0.5 30.6252L -0.5 30.6252ZM 2.67734 33.7501L 8.03203 33.7501L 8.03203 32.7501L 2.67734 32.7501L 2.67734 33.7501ZM 8.03203 33.7501C 9.37105 33.7501 10.5199 32.9318 10.9875 31.771L 10.06 31.3973C 9.74224 32.186 8.95625 32.7501 8.03203 32.7501L 8.03203 33.7501ZM 10.4627 32.0804C 13.8903 32.502 15.1497 33.1682 16.3854 33.8155L 16.8494 32.9297C 15.5327 32.24 14.1575 31.5273 10.5848 31.0879L 10.4627 32.0804ZM 16.3854 33.8155C 17.1883 34.2359 18.0084 34.6669 19.2623 34.9846C 20.509 35.3006 22.1635 35.5 24.6548 35.5L 24.6548 34.5C 22.2126 34.5 20.6471 34.304 19.5079 34.0153C 18.3758 33.7284 17.6439 33.3457 16.8493 32.9296L 16.3854 33.8155ZM 24.6548 35.5C 26.0196 35.5 27.3287 35.1515 28.3373 34.493L 27.7905 33.6556C 26.9714 34.1905 25.8602 34.5 24.6548 34.5L 24.6548 35.5ZM 28.3373 34.493C 29.3315 33.8438 29.9892 32.9142 30.207 31.822L 29.2264 31.6264C 29.0658 32.431 28.5812 33.1394 27.7905 33.6556L 28.3373 34.493ZM 29.9016 32.1887C 30.7661 31.8446 31.475 31.076 31.9922 30.0358L 31.0967 29.5907C 30.6464 30.4964 30.0916 31.0368 29.5318 31.2596L 29.9016 32.1887ZM 31.9921 30.0361C 32.4927 29.0303 32.8209 27.7453 32.8209 26.7317L 31.8209 26.7317C 31.8209 27.5695 31.5386 28.7028 31.0968 29.5905L 31.9921 30.0361ZM 32.8209 26.7317C 32.8209 26.5378 32.8089 26.3564 32.7861 26.186L 31.7949 26.3184C 31.8114 26.442 31.8209 26.5791 31.8209 26.7317L 32.8209 26.7317ZM 32.5829 26.6578C 33.1158 26.2737 33.5678 25.701 33.9274 24.9883L 33.0347 24.5378C 32.7267 25.148 32.3684 25.5797 31.9982 25.8466L 32.5829 26.6578ZM 33.9273 24.9885C 34.4436 23.9667 34.7521 22.6945 34.7521 21.5677L 33.7521 21.5677C 33.7521 22.5337 33.4823 23.6519 33.0348 24.5375L 33.9273 24.9885ZM 34.7521 21.5677C 34.7521 20.7661 34.6002 20.0552 34.2675 19.4786L 33.4014 19.9784C 33.622 20.3608 33.7521 20.8853 33.7521 21.5677L 34.7521 21.5677ZM 34.2627 19.4704C 34.24 19.4328 34.2141 19.3897 34.1876 19.3478L 33.3421 19.8817C 33.362 19.9133 33.3825 19.9473 33.4062 19.9866L 34.2627 19.4704ZM 33.9201 19.1395L 33.9147 19.1377L 33.6043 20.0883L 33.6096 20.0901L 33.9201 19.1395ZM 8.02846 30.9984L 2.67377 30.9984L 2.67377 31.9984L 8.02846 31.9984L 8.02846 30.9984ZM 2.67377 30.9984C 2.44791 30.9984 2.28133 30.821 2.28133 30.6235L 1.28133 30.6235C 1.28133 31.3919 1.91438 31.9984 2.67377 31.9984L 2.67377 30.9984ZM 2.28133 30.6235L 2.28133 14.8743L 1.28133 14.8743L 1.28133 30.6235L 2.28133 30.6235ZM 2.28133 14.8743C 2.28133 14.6767 2.44791 14.4993 2.67377 14.4993L 2.67377 13.4993C 1.91438 13.4993 1.28133 14.1059 1.28133 14.8743L 2.28133 14.8743ZM 2.67377 14.4993L 8.02846 14.4993L 8.02846 13.4993L 2.67377 13.4993L 2.67377 14.4993ZM 8.02846 14.4993C 8.25432 14.4993 8.4209 14.6767 8.4209 14.8743L 9.4209 14.8743C 9.4209 14.1059 8.78785 13.4993 8.02846 13.4993L 8.02846 14.4993ZM 8.4209 14.8743L 8.4209 30.6217L 9.4209 30.6217L 9.4209 14.8743L 8.4209 14.8743ZM 8.4209 30.6217L 8.4209 30.6235L 9.4209 30.6235L 9.4209 30.6217L 8.4209 30.6217ZM 8.4209 30.6235C 8.4209 30.821 8.25432 30.9984 8.02846 30.9984L 8.02846 31.9984C 8.78785 31.9984 9.4209 31.3919 9.4209 30.6235L 8.4209 30.6235ZM 32.2836 17.7526C 32.1675 17.9819 32.0617 18.1153 31.9921 18.1836C 31.9752 18.2002 31.9616 18.2119 31.9517 18.2196C 31.9416 18.2275 31.9366 18.2303 31.9371 18.23C 31.9372 18.2299 31.9466 18.2245 31.9649 18.2185C 31.9819 18.213 32.0183 18.2031 32.0692 18.2031L 32.0692 19.2031C 32.2207 19.2031 32.3479 19.1467 32.4312 19.0994C 32.5236 19.0469 32.6112 18.9772 32.6929 18.897C 32.8567 18.7361 33.0223 18.5073 33.1756 18.2046L 32.2836 17.7526ZM 32.0692 18.2031C 31.3098 18.2031 30.6768 18.8096 30.6768 19.578L 31.6768 19.578C 31.6768 19.3805 31.8433 19.2031 32.0692 19.2031L 32.0692 18.2031ZM 30.6768 19.578C 30.6768 20.3464 31.3098 20.953 32.0692 20.953L 32.0692 19.953C 31.8433 19.953 31.6768 19.7756 31.6768 19.578L 30.6768 19.578ZM 32.0692 20.953C 32.1223 20.953 32.0323 20.9612 31.9409 20.9136C 31.8514 20.8671 31.8258 20.8068 31.8471 20.8431L 32.709 20.3359C 32.65 20.2357 32.5574 20.1071 32.4024 20.0265C 32.2453 19.9448 32.091 19.953 32.0692 19.953L 32.0692 20.953ZM 31.8447 20.8388C 31.8971 20.9301 31.9637 21.1798 31.9637 21.5659L 32.9637 21.5659C 32.9637 21.1191 32.8945 20.6584 32.7114 20.3401L 31.8447 20.8388ZM 31.9637 21.5659C 31.9637 22.2637 31.7584 23.1124 31.4319 23.7589L 32.3245 24.2097C 32.7192 23.4283 32.9637 22.4256 32.9637 21.5659L 31.9637 21.5659ZM 31.4321 23.7585C 31.274 24.0709 31.1258 24.2611 31.0197 24.3653C 30.9663 24.4177 30.9299 24.4421 30.9149 24.4507C 30.8912 24.4641 30.927 24.4363 31.009 24.4363L 31.009 25.4363C 31.1695 25.4363 31.309 25.3767 31.4078 25.3207C 31.5153 25.2599 31.6201 25.1772 31.7203 25.0789C 31.9211 24.8817 32.129 24.5959 32.3243 24.2101L 31.4321 23.7585ZM 31.009 24.4363C 30.2496 24.4363 29.6165 25.0428 29.6165 25.8112L 30.6165 25.8112C 30.6165 25.6137 30.7831 25.4363 31.009 25.4363L 31.009 24.4363ZM 29.6165 25.8112C 29.6165 26.3027 29.8776 26.7312 30.263 26.9732L 30.7947 26.1262C 30.6838 26.0566 30.6165 25.9391 30.6165 25.8112L 29.6165 25.8112ZM 30.0313 26.5993C 30.0506 26.7931 30.0134 27.2378 29.8753 27.7731C 29.7395 28.2995 29.5222 28.8497 29.2266 29.267L 30.0426 29.845C 30.4324 29.2947 30.6899 28.619 30.8436 28.0229C 30.9952 27.4356 31.0624 26.8609 31.0264 26.5L 30.0313 26.5993ZM 29.2265 29.2672C 29.1167 29.4223 29.0167 29.5256 28.9396 29.585C 28.8543 29.6508 28.839 29.6317 28.8885 29.6317L 28.8885 30.6317C 29.1522 30.6317 29.3806 30.5077 29.5501 30.377C 29.7277 30.2401 29.8937 30.0555 30.0427 29.8448L 29.2265 29.2672ZM 28.8885 29.6317C 28.1291 29.6317 27.4961 30.2383 27.4961 31.0067L 28.4961 31.0067C 28.4961 30.8091 28.6627 30.6317 28.8885 30.6317L 28.8885 29.6317ZM 27.4961 31.0067C 27.4961 31.5517 27.2024 31.9677 26.6765 32.2723C 26.1374 32.5846 25.3935 32.7483 24.6494 32.7483L 24.6494 33.7483C 25.517 33.7483 26.4465 33.5612 27.1778 33.1377C 27.9223 32.7064 28.4961 32.0016 28.4961 31.0067L 27.4961 31.0067ZM 24.6494 32.7483C 22.428 32.7483 21.0367 32.5851 20.0339 32.3385C 19.0402 32.0941 18.4078 31.7638 17.6849 31.3846L 17.2205 32.2702C 17.9523 32.654 18.6756 33.0342 19.7951 33.3095C 20.9057 33.5826 22.3853 33.7483 24.6494 33.7483L 24.6494 32.7483ZM 17.6846 31.3845C 16.2857 30.6519 14.6995 29.8265 10.7645 29.3467L 10.6435 30.3393C 14.4299 30.801 15.8996 31.5785 17.2208 32.2704L 17.6846 31.3845ZM 11.204 29.843L 11.204 15.5165L 10.204 15.5165L 10.204 29.843L 11.204 29.843ZM 10.8571 15.9925C 14.6726 14.7657 18.3941 12.6524 21.4089 9.98872L 20.7468 9.23932C 17.8357 11.8114 14.2355 13.8558 10.551 15.0405L 10.8571 15.9925ZM 21.4089 9.98867C 24.2955 7.43761 26.2396 4.63996 26.9067 1.991L 25.9369 1.74681C 25.3367 4.1306 23.5468 6.76468 20.7467 9.23937L 21.4089 9.98867ZM 26.2722 2.346C 26.6722 2.47145 27.1011 2.72924 27.3742 3.20091L 28.2396 2.69979C 27.8094 1.95703 27.1423 1.57085 26.5714 1.39181L 26.2722 2.346ZM 27.3739 3.20037C 27.8236 3.97925 28.4028 6.38982 24.7156 12.4136L 25.5685 12.9357C 29.2957 6.84652 28.9824 3.98635 28.2399 2.70033L 27.3739 3.20037ZM 24.7163 12.4124C 24.453 12.8399 24.4484 13.3744 24.6985 13.8069L 25.5642 13.3063C 25.4965 13.1892 25.4991 13.0483 25.5677 12.9368L 24.7163 12.4124ZM 24.6985 13.8069C 24.9479 14.2383 25.4105 14.5011 25.9077 14.5011L 25.9077 13.5011C 25.7625 13.5011 25.6324 13.4243 25.5642 13.3063L 24.6985 13.8069ZM 25.9077 14.5011L 32.1245 14.5011L 32.1245 13.5011L 25.9077 13.5011L 25.9077 14.5011ZM 32.1245 14.5011C 32.2445 14.5011 32.3039 14.5215 32.337 14.5392C 32.3687 14.5562 32.4134 14.5902 32.471 14.6802L 33.3131 14.1408C 33.1869 13.9438 33.0254 13.7732 32.8081 13.6571C 32.5922 13.5418 32.3598 13.5011 32.1245 13.5011L 32.1245 14.5011ZM 32.4706 14.6795C 32.6075 14.8942 32.7151 15.2933 32.7151 15.8367L 33.7151 15.8367C 33.7151 15.1972 33.5942 14.5814 33.3135 14.1415L 32.4706 14.6795ZM 32.7151 15.8367C 32.7151 16.5081 32.5481 17.2311 32.2834 17.7548L 33.1758 18.2059C 33.518 17.5291 33.7151 16.6492 33.7151 15.8367L 32.7151 15.8367ZM 33.2296 17.9804L 33.2296 17.9786L 32.2296 17.9786L 32.2296 17.9804L 33.2296 17.9804Z"/>
</defs>
</svg>
