<svg width="55" height="55" viewBox="0 0 55 55" version="1.1" xmlns="http://www.w3.org/2000/svg" xmlns:xlink="http://www.w3.org/1999/xlink">
<title>lnr-arrow-left-circle</title>
<desc>Created using Figma</desc>
<g id="Canvas" transform="translate(-2793 -1052)">
<g id="lnr-arrow-left-circle">
<g id="Ellipse 2.3">
<use xlink:href="#path0_fill" transform="translate(2793 1052)" fill="#FFFFFF"/>
<use xlink:href="#path0_fill" transform="translate(2793 1052)" fill="url(#paint1_linear)"/>
</g>
<g id="Vector" filter="url(#filter0_d)">
<use xlink:href="#path1_fill" transform="translate(2803 1062)" fill="#FFC700"/>
<use xlink:href="#path2_stroke" transform="translate(2803 1062)" fill="#FFC700"/>
</g>
<g id="Vector" filter="url(#filter1_d)">
<use xlink:href="#path3_fill" transform="translate(2809.45 1071.21)" fill="#FFC700"/>
<use xlink:href="#path4_stroke" transform="translate(2809.45 1071.21)" fill="#FFC700"/>
</g>
</g>
</g>
<defs>
<filter id="filter0_d" filterUnits="userSpaceOnUse" x="2798" y="1061" width="45" height="45" color-interpolation-filters="sRGB">
<feFlood flood-opacity="0" result="BackgroundImageFix"/>
<feColorMatrix in="SourceAlpha" type="matrix" values="0 0 0 0 0 0 0 0 0 0 0 0 0 0 0 0 0 0 255 0"/>
<feOffset dx="0" dy="4"/>
<feGaussianBlur stdDeviation="2"/>
<feColorMatrix type="matrix" values="0 0 0 0 0 0 0 0 0 0 0 0 0 0 0 0 0 0 0.25 0"/>
<feBlend mode="normal" in2="BackgroundImageFix" result="effect1_dropShadow"/>
<feBlend mode="normal" in="SourceGraphic" in2="effect1_dropShadow" result="shape"/>
</filter>
<filter id="filter1_d" filterUnits="userSpaceOnUse" x="2805" y="1071" width="32" height="25" color-interpolation-filters="sRGB">
<feFlood flood-opacity="0" result="BackgroundImageFix"/>
<feColorMatrix in="SourceAlpha" type="matrix" values="0 0 0 0 0 0 0 0 0 0 0 0 0 0 0 0 0 0 255 0"/>
<feOffset dx="0" dy="4"/>
<feGaussianBlur stdDeviation="2"/>
<feColorMatrix type="matrix" values="0 0 0 0 0 0 0 0 0 0 0 0 0 0 0 0 0 0 0.4 0"/>
<feBlend mode="normal" in2="BackgroundImageFix" result="effect1_dropShadow"/>
<feBlend mode="normal" in="SourceGraphic" in2="effect1_dropShadow" result="shape"/>
</filter>
<linearGradient id="paint1_linear" x1="0" y1="0" x2="1" y2="0" gradientUnits="userSpaceOnUse" gradientTransform="matrix(-1.5691e-06 -76.5 76.5 -1.5691e-06 -10.25 55)">
<stop offset="0" stop-color="#FFFFFF"/>
<stop offset="1" stop-color="#FFFFFF" stop-opacity="0"/>
</linearGradient>
<path id="path0_fill" d="M 55 27.5C 55 42.6878 42.6878 55 27.5 55C 12.3122 55 0 42.6878 0 27.5C 0 12.3122 12.3122 0 27.5 0C 42.6878 0 55 12.3122 55 27.5Z"/>
<path id="path1_fill" d="M 5.12474 5.12501C 8.42947 1.8201 12.8247 0 17.5 0C 22.1753 0 26.5687 1.8201 29.8753 5.12501C 33.1818 8.42992 35 12.8254 35 17.4991C 35 22.1727 33.18 26.5682 29.8753 29.875C 26.5705 33.1817 22.1753 35 17.5 35C 12.8247 35 8.43132 33.1799 5.12474 29.875C 1.81816 26.5701 0 22.1746 0 17.4991C 0 12.8236 1.82 8.42992 5.12474 5.12501L 5.12474 5.12501ZM 17.5 33.1596C 26.1339 33.1596 33.1579 26.1353 33.1579 17.5009C 33.1579 8.86652 26.1339 1.8422 17.5 1.8422C 8.86605 1.8422 1.84211 8.86652 1.84211 17.5009C 1.84211 26.1353 8.86605 33.1596 17.5 33.1596Z"/>
<path id="path2_stroke" d="M 29.8753 29.875L 29.7869 29.7866L 29.8753 29.875ZM 5.21313 5.21339C 8.49441 1.93194 12.8579 0.125 17.5 0.125L 17.5 -0.125C 12.7916 -0.125 8.36454 1.70826 5.03635 5.03662L 5.21313 5.21339ZM 17.5 0.125C 22.1421 0.125 26.5038 1.93192 29.7869 5.21342L 29.9636 5.0366C 26.6336 1.70827 22.2084 -0.125 17.5 -0.125L 17.5 0.125ZM 29.7869 5.21342C 33.07 8.49485 34.875 12.8585 34.875 17.4991L 35.125 17.4991C 35.125 12.7923 33.2937 8.36499 29.9636 5.0366L 29.7869 5.21342ZM 34.875 17.4991C 34.875 22.1396 33.0682 26.5033 29.7869 29.7866L 29.9637 29.9634C 33.2918 26.6332 35.125 22.2059 35.125 17.4991L 34.875 17.4991ZM 29.7869 29.7866C 26.5056 33.0699 22.1422 34.875 17.5 34.875L 17.5 35.125C 22.2084 35.125 26.6355 33.2936 29.9637 29.9634L 29.7869 29.7866ZM 17.5 34.875C 12.8579 34.875 8.49625 33.0681 5.2131 29.7866L 5.03637 29.9634C 8.36638 33.2917 12.7916 35.125 17.5 35.125L 17.5 34.875ZM 5.2131 29.7866C 1.93002 26.5052 0.125 22.1415 0.125 17.4991L -0.125 17.4991C -0.125 22.2077 1.70629 26.635 5.03637 29.9634L 5.2131 29.7866ZM 0.125 17.4991C 0.125 12.8567 1.93183 8.49486 5.21313 5.21339L 5.03635 5.03662C 1.70817 8.36498 -0.125 12.7904 -0.125 17.4991L 0.125 17.4991ZM 17.5 33.2846C 26.203 33.2846 33.2829 26.2044 33.2829 17.5009L 33.0329 17.5009C 33.0329 26.0663 26.0649 33.0346 17.5 33.0346L 17.5 33.2846ZM 33.2829 17.5009C 33.2829 8.79749 26.203 1.7172 17.5 1.7172L 17.5 1.9672C 26.0649 1.9672 33.0329 8.93555 33.0329 17.5009L 33.2829 17.5009ZM 17.5 1.7172C 8.79701 1.7172 1.71711 8.79749 1.71711 17.5009L 1.96711 17.5009C 1.96711 8.93555 8.9351 1.9672 17.5 1.9672L 17.5 1.7172ZM 1.71711 17.5009C 1.71711 26.2044 8.79701 33.2846 17.5 33.2846L 17.5 33.0346C 8.9351 33.0346 1.96711 26.0663 1.96711 17.5009L 1.71711 17.5009Z"/>
<path id="path3_fill" d="M 0.269408 7.63823L 7.63783 0.269422C 7.99704 -0.0898077 8.58099 -0.0898077 8.9402 0.269422C 9.29941 0.628651 9.29941 1.21263 8.9402 1.57186L 3.14309 7.36743L 22.1039 7.36743C 22.6123 7.36743 23.0249 7.78008 23.0249 8.28853C 23.0249 8.79698 22.6123 9.20963 22.1039 9.20963L 3.14309 9.20963L 8.93835 15.007C 9.29756 15.3663 9.29756 15.9502 8.93835 16.3095C 8.75783 16.49 8.52204 16.5784 8.28809 16.5784C 8.05414 16.5784 7.81651 16.4882 7.63783 16.3076L 0.269408 8.93883C -0.0898025 8.5796 -0.0898025 7.99562 0.269408 7.63639L 0.269408 7.63823Z"/>
<path id="path4_stroke" d="M 0.269408 7.63823L 0.144408 7.63823L 0.144408 7.94002L 0.357799 7.72662L 0.269408 7.63823ZM 7.63783 0.269422L 7.54944 0.181036L 7.54944 0.181036L 7.63783 0.269422ZM 8.9402 1.57186L 9.02857 1.66026L 9.02859 1.66025L 8.9402 1.57186ZM 3.14309 7.36743L 3.05472 7.27903L 2.84126 7.49243L 3.14309 7.49243L 3.14309 7.36743ZM 3.14309 9.20963L 3.14309 9.08463L 2.84139 9.08463L 3.05469 9.298L 3.14309 9.20963ZM 8.93835 15.007L 8.84995 15.0954L 8.84996 15.0954L 8.93835 15.007ZM 8.93835 16.3095L 9.02675 16.3979L 8.93835 16.3095ZM 7.63783 16.3076L 7.72667 16.2197L 7.72622 16.2192L 7.63783 16.3076ZM 0.269408 8.93883L 0.357799 8.85044L 0.357799 8.85044L 0.269408 8.93883ZM 0.269408 7.63639L 0.394408 7.63639L 0.394408 7.3346L 0.181017 7.548L 0.269408 7.63639ZM 0.357799 7.72662L 7.72622 0.357808L 7.54944 0.181036L 0.181017 7.54985L 0.357799 7.72662ZM 7.72622 0.357808C 8.03661 0.047397 8.54141 0.047397 8.85181 0.357808L 9.02859 0.181036C 8.62056 -0.227012 7.95746 -0.227012 7.54944 0.181036L 7.72622 0.357808ZM 8.85181 0.357808C 9.1622 0.668222 9.1622 1.17306 8.85181 1.48347L 9.02859 1.66025C 9.43661 1.2522 9.43661 0.58908 9.02859 0.181036L 8.85181 0.357808ZM 8.85182 1.48346L 3.05472 7.27903L 3.23147 7.45583L 9.02857 1.66026L 8.85182 1.48346ZM 3.14309 7.49243L 22.1039 7.49243L 22.1039 7.24243L 3.14309 7.24243L 3.14309 7.49243ZM 22.1039 7.49243C 22.5433 7.49243 22.8999 7.84911 22.8999 8.28853L 23.1499 8.28853C 23.1499 7.71105 22.6813 7.24243 22.1039 7.24243L 22.1039 7.49243ZM 22.8999 8.28853C 22.8999 8.72795 22.5433 9.08463 22.1039 9.08463L 22.1039 9.33463C 22.6813 9.33463 23.1499 8.86601 23.1499 8.28853L 22.8999 8.28853ZM 22.1039 9.08463L 3.14309 9.08463L 3.14309 9.33463L 22.1039 9.33463L 22.1039 9.08463ZM 3.05469 9.298L 8.84995 15.0954L 9.02676 14.9187L 3.2315 9.12126L 3.05469 9.298ZM 8.84996 15.0954C 9.16036 15.4058 9.16036 15.9107 8.84996 16.2211L 9.02675 16.3979C 9.43477 15.9898 9.43477 15.3267 9.02675 14.9187L 8.84996 15.0954ZM 8.84996 16.2211C 8.69406 16.377 8.49059 16.4534 8.28809 16.4534L 8.28809 16.7034C 8.55349 16.7034 8.8216 16.603 9.02675 16.3979L 8.84996 16.2211ZM 8.28809 16.4534C 8.08587 16.4534 7.88074 16.3754 7.72667 16.2197L 7.54899 16.3956C 7.75228 16.601 8.02242 16.7034 8.28809 16.7034L 8.28809 16.4534ZM 7.72622 16.2192L 0.357799 8.85044L 0.181017 9.02721L 7.54944 16.396L 7.72622 16.2192ZM 0.357799 8.85044C 0.0474006 8.54002 0.0474006 8.03519 0.357799 7.72477L 0.181017 7.548C -0.227006 7.95605 -0.227006 8.61917 0.181017 9.02721L 0.357799 8.85044ZM 0.144408 7.63639L 0.144408 7.63823L 0.394408 7.63823L 0.394408 7.63639L 0.144408 7.63639Z"/>
</defs>
</svg>
