<svg width="55" height="55" viewBox="0 0 55 55" version="1.1" xmlns="http://www.w3.org/2000/svg" xmlns:xlink="http://www.w3.org/1999/xlink">
<title>lnr-arrow-left-circle</title>
<desc>Created using Figma</desc>
<g id="Canvas" transform="translate(-2798 -1051)">
<g id="lnr-arrow-left-circle">
<g id="Ellipse 2.3">
<use xlink:href="#path0_fill" transform="translate(2798 1051)" fill="#FFFFFF"/>
</g>
<g id="Vector">
<use xlink:href="#path1_fill" transform="translate(2808 1061)" fill="#415A77"/>
<mask id="mask0_outline_out">
<rect id="mask0_outline_inv" fill="white" x="-1" y="-1" width="37" height="37" transform="translate(2808 1061)"/>
<use xlink:href="#path1_fill" fill="black" transform="translate(2808 1061)"/>
</mask>
<g mask="url(#mask0_outline_out)">
<use xlink:href="#path2_stroke_2x" transform="translate(2808 1061)" fill="#415A77"/>
</g>
</g>
<g id="Vector">
<use xlink:href="#path3_fill" transform="translate(2814.45 1070.21)" fill="#415A77"/>
<mask id="mask1_outline_out">
<rect id="mask1_outline_inv" fill="white" x="-1" y="-1" width="25" height="18" transform="translate(2814.45 1070.21)"/>
<use xlink:href="#path3_fill" fill="black" transform="translate(2814.45 1070.21)"/>
</mask>
<g mask="url(#mask1_outline_out)">
<use xlink:href="#path4_stroke_2x" transform="translate(2814.45 1070.21)" fill="#415A77"/>
</g>
</g>
</g>
</g>
<defs>
<path id="path0_fill" d="M 55 27.5C 55 42.6878 42.6878 55 27.5 55C 12.3122 55 0 42.6878 0 27.5C 0 12.3122 12.3122 0 27.5 0C 42.6878 0 55 12.3122 55 27.5Z"/>
<path id="path1_fill" d="M 5.12474 5.12501C 8.42947 1.8201 12.8247 0 17.5 0C 22.1753 0 26.5687 1.8201 29.8753 5.12501C 33.1818 8.42992 35 12.8254 35 17.4991C 35 22.1727 33.18 26.5682 29.8753 29.875C 26.5705 33.1817 22.1753 35 17.5 35C 12.8247 35 8.43132 33.1799 5.12474 29.875C 1.81816 26.5701 0 22.1746 0 17.4991C 0 12.8236 1.82 8.42992 5.12474 5.12501L 5.12474 5.12501ZM 17.5 33.1596C 26.1339 33.1596 33.1579 26.1353 33.1579 17.5009C 33.1579 8.86652 26.1339 1.8422 17.5 1.8422C 8.86605 1.8422 1.84211 8.86652 1.84211 17.5009C 1.84211 26.1353 8.86605 33.1596 17.5 33.1596Z"/>
<path id="path2_stroke_2x" d="M 29.8753 5.12501L 29.6985 5.30183L 29.8753 5.12501ZM 29.8753 29.875L 29.6984 29.6983L 29.8753 29.875ZM 5.30152 5.30178C 8.55935 2.04378 12.891 0.25 17.5 0.25L 17.5 -0.25C 12.7585 -0.25 8.2996 1.59641 4.94796 4.94823L 5.30152 5.30178ZM 17.5 0.25C 22.1089 0.25 26.4388 2.04375 29.6985 5.30183L 30.052 4.94819C 26.6986 1.59644 22.2416 -0.25 17.5 -0.25L 17.5 0.25ZM 29.6985 5.30183C 32.9581 8.55978 34.75 12.8916 34.75 17.4991L 35.25 17.4991C 35.25 12.7592 33.4056 8.30006 30.052 4.94819L 29.6985 5.30183ZM 34.75 17.4991C 34.75 22.1065 32.9563 26.4384 29.6984 29.6983L 30.0521 30.0517C 33.4037 26.6981 35.25 22.239 35.25 17.4991L 34.75 17.4991ZM 29.6984 29.6983C 26.4407 32.958 22.109 34.75 17.5 34.75L 17.5 35.25C 22.2415 35.25 26.7004 33.4055 30.0521 30.0517L 29.6984 29.6983ZM 17.5 34.75C 12.8911 34.75 8.56119 32.9562 5.30147 29.6982L 4.948 30.0518C 8.30144 33.4036 12.7584 35.25 17.5 35.25L 17.5 34.75ZM 5.30147 29.6982C 2.04189 26.4402 0.25 22.1084 0.25 17.4991L -0.25 17.4991C -0.25 22.2408 1.59443 26.6999 4.948 30.0518L 5.30147 29.6982ZM 0.25 17.4991C 0.25 12.8899 2.04367 8.5598 5.30152 5.30178L 4.94796 4.94823C 1.59633 8.30003 -0.25 12.7573 -0.25 17.4991L 0.25 17.4991ZM 17.5 33.4096C 26.272 33.4096 33.4079 26.2734 33.4079 17.5009L 32.9079 17.5009C 32.9079 25.9973 25.9959 32.9096 17.5 32.9096L 17.5 33.4096ZM 33.4079 17.5009C 33.4079 8.72846 26.272 1.5922 17.5 1.5922L 17.5 2.0922C 25.9959 2.0922 32.9079 9.00458 32.9079 17.5009L 33.4079 17.5009ZM 17.5 1.5922C 8.72797 1.5922 1.59211 8.72846 1.59211 17.5009L 2.09211 17.5009C 2.09211 9.00458 9.00414 2.0922 17.5 2.0922L 17.5 1.5922ZM 1.59211 17.5009C 1.59211 26.2734 8.72797 33.4096 17.5 33.4096L 17.5 32.9096C 9.00414 32.9096 2.09211 25.9973 2.09211 17.5009L 1.59211 17.5009Z"/>
<path id="path3_fill" d="M 0.269408 7.63823L 7.63783 0.269422C 7.99704 -0.0898077 8.58099 -0.0898077 8.9402 0.269422C 9.29941 0.628651 9.29941 1.21263 8.9402 1.57186L 3.14309 7.36743L 22.1039 7.36743C 22.6123 7.36743 23.0249 7.78008 23.0249 8.28853C 23.0249 8.79698 22.6123 9.20963 22.1039 9.20963L 3.14309 9.20963L 8.93835 15.007C 9.29756 15.3663 9.29756 15.9502 8.93835 16.3095C 8.75783 16.49 8.52204 16.5784 8.28809 16.5784C 8.05414 16.5784 7.81651 16.4882 7.63783 16.3076L 0.269408 8.93883C -0.0898025 8.5796 -0.0898025 7.99562 0.269408 7.63639L 0.269408 7.63823Z"/>
<path id="path4_stroke_2x" d="M 0.269408 7.63823L 0.019408 7.63823L 0.019408 8.24181L 0.446189 7.815L 0.269408 7.63823ZM 7.63783 0.269422L 7.46105 0.0926497L 7.46105 0.0926497L 7.63783 0.269422ZM 8.9402 1.57186L 9.11695 1.74866L 9.11698 1.74863L 8.9402 1.57186ZM 3.14309 7.36743L 2.96634 7.19063L 2.53943 7.61743L 3.14309 7.61743L 3.14309 7.36743ZM 3.14309 9.20963L 3.14309 8.95963L 2.5397 8.95963L 2.96628 9.38637L 3.14309 9.20963ZM 8.93835 15.007L 8.76155 15.1838L 8.76157 15.1838L 8.93835 15.007ZM 8.93835 16.3095L 9.11514 16.4863L 8.93835 16.3095ZM 7.63783 16.3076L 7.81552 16.1318L 7.81461 16.1309L 7.63783 16.3076ZM 0.269408 8.93883L 0.446189 8.76205L 0.446189 8.76205L 0.269408 8.93883ZM 0.269408 7.63639L 0.519408 7.63639L 0.519408 7.03281L 0.0926267 7.45962L 0.269408 7.63639ZM 0.446189 7.815L 7.81461 0.446194L 7.46105 0.0926497L 0.0926267 7.46146L 0.446189 7.815ZM 7.81461 0.446194C 8.07619 0.184602 8.50184 0.184602 8.76342 0.446194L 9.11698 0.0926497C 8.66014 -0.364217 7.91789 -0.364217 7.46105 0.0926497L 7.81461 0.446194ZM 8.76342 0.446194C 9.025 0.707793 9.025 1.13349 8.76342 1.39509L 9.11698 1.74863C 9.57381 1.29177 9.57381 0.549509 9.11698 0.0926497L 8.76342 0.446194ZM 8.76344 1.39506L 2.96634 7.19063L 3.31985 7.54423L 9.11695 1.74866L 8.76344 1.39506ZM 3.14309 7.61743L 22.1039 7.61743L 22.1039 7.11743L 3.14309 7.11743L 3.14309 7.61743ZM 22.1039 7.61743C 22.4742 7.61743 22.7749 7.91814 22.7749 8.28853L 23.2749 8.28853C 23.2749 7.64202 22.7504 7.11743 22.1039 7.11743L 22.1039 7.61743ZM 22.7749 8.28853C 22.7749 8.65892 22.4742 8.95963 22.1039 8.95963L 22.1039 9.45963C 22.7504 9.45963 23.2749 8.93504 23.2749 8.28853L 22.7749 8.28853ZM 22.1039 8.95963L 3.14309 8.95963L 3.14309 9.45963L 22.1039 9.45963L 22.1039 8.95963ZM 2.96628 9.38637L 8.76155 15.1838L 9.11516 14.8303L 3.3199 9.03289L 2.96628 9.38637ZM 8.76157 15.1838C 9.02316 15.4454 9.02316 15.8711 8.76157 16.1327L 9.11514 16.4863C 9.57197 16.0294 9.57197 15.2871 9.11514 14.8303L 8.76157 15.1838ZM 8.76157 16.1327C 8.63028 16.264 8.45913 16.3284 8.28809 16.3284L 8.28809 16.8284C 8.58494 16.8284 8.88537 16.716 9.11514 16.4863L 8.76157 16.1327ZM 8.28809 16.3284C 8.11759 16.3284 7.94497 16.2626 7.81551 16.1318L 7.46014 16.4835C 7.68806 16.7138 7.99069 16.8284 8.28809 16.8284L 8.28809 16.3284ZM 7.81461 16.1309L 0.446189 8.76205L 0.0926267 9.1156L 7.46105 16.4844L 7.81461 16.1309ZM 0.446189 8.76205C 0.184604 8.50045 0.184604 8.07476 0.446189 7.81316L 0.0926267 7.45962C -0.364209 7.91648 -0.364209 8.65874 0.0926267 9.1156L 0.446189 8.76205ZM 0.019408 7.63639L 0.019408 7.63823L 0.519408 7.63823L 0.519408 7.63639L 0.019408 7.63639Z"/>
</defs>
</svg>
