<svg width="55" height="55" viewBox="0 0 55 55" version="1.1" xmlns="http://www.w3.org/2000/svg" xmlns:xlink="http://www.w3.org/1999/xlink">
<title>lnr-thumbs-down</title>
<desc>Created using Figma</desc>
<g id="Canvas" transform="translate(-2875 -1051)">
<g id="lnr-thumbs-down">
<g id="Ellipse 2.2">
<use xlink:href="#path0_fill" transform="translate(2875 1051)" fill="#FFFFFF"/>
</g>
<g id="Vector">
<use xlink:href="#path1_fill" transform="translate(2885 1061)" fill="#415A77"/>
<mask id="mask0_outline_out">
<rect id="mask0_outline_inv" fill="white" x="-1" y="-1" width="37" height="37" transform="translate(2885 1061)"/>
<use xlink:href="#path1_fill" fill="black" transform="translate(2885 1061)"/>
</mask>
<g mask="url(#mask0_outline_out)">
<use xlink:href="#path2_stroke_2x" transform="translate(2885 1061)" fill="#415A77"/>
</g>
</g>
</g>
</g>
<defs>
<path id="path0_fill" d="M 55 27.5C 55 42.6878 42.6878 55 27.5 55C 12.3122 55 0 42.6878 0 27.5C 0 12.3122 12.3122 0 27.5 0C 42.6878 0 55 12.3122 55 27.5Z"/>
<path id="path1_fill" d="M 33.7595 15.387C 34.5502 16.2812 35 17.7581 35 19.165C 35 20.0942 34.7947 20.908 34.4056 21.5187C 33.8987 22.3131 33.0884 22.7506 32.1245 22.7506L 27.4517 22.7506C 29.9952 27.2846 30.6377 30.7005 29.3615 32.9124C 28.4709 34.454 26.8395 35 25.7114 35C 25.2652 35 24.8868 34.6763 24.8279 34.2423C 24.5084 31.9342 22.7074 29.1798 19.8873 26.6862C 17.185 24.2975 13.8651 22.3884 10.4523 21.2439C 10.0222 22.1329 9.09939 22.7489 8.03203 22.7489L 2.67734 22.7489C 1.20123 22.7489 1.69552e-10 21.5712 1.69552e-10 20.124L 1.69552e-10 4.37478C 1.69552e-10 2.9276 1.20123 1.74991 2.67734 1.74991L 8.03203 1.74991C 9.16365 1.74991 10.1311 2.44113 10.5237 3.41583C 14.0239 2.98535 15.3412 2.29589 16.6174 1.62742C 18.2149 0.790961 19.7213 -8.31234e-11 24.6548 -8.31234e-11C 25.9399 -8.31234e-11 27.15 0.328984 28.0639 0.925704C 28.9563 1.50842 29.5275 2.32738 29.7167 3.27584C 30.4289 3.55932 31.0607 4.21379 31.5444 5.18674C 32.0157 6.13344 32.3209 7.34263 32.3209 8.26834C 32.3209 8.44158 32.3102 8.60082 32.2905 8.74781C 32.7421 9.0733 33.1473 9.57552 33.4811 10.237C 33.963 11.1907 34.2521 12.3859 34.2521 13.4323C 34.2521 14.1743 34.1111 14.792 33.8345 15.2715C 33.8113 15.31 33.7881 15.3485 33.7649 15.3852L 33.7595 15.387ZM 8.02846 3.50157L 2.67377 3.50157C 2.18114 3.50157 1.78133 3.89356 1.78133 4.37653L 1.78133 20.1257C 1.78133 20.6087 2.18114 21.0007 2.67377 21.0007L 8.02846 21.0007C 8.52109 21.0007 8.9209 20.6087 8.9209 20.1257L 8.9209 4.37828L 8.9209 4.37653C 8.9209 3.89356 8.52109 3.50157 8.02846 3.50157L 8.02846 3.50157ZM 32.7296 17.0214C 32.4601 16.4894 32.187 16.2969 32.0692 16.2969C 31.5766 16.2969 31.1768 15.905 31.1768 15.422C 31.1768 14.939 31.5766 14.547 32.0692 14.547C 32.1442 14.547 32.1977 14.547 32.278 14.4105C 32.3958 14.2058 32.4637 13.8506 32.4637 13.4341C 32.4637 12.6554 32.2388 11.7297 31.8782 11.0157C 31.5248 10.3175 31.166 10.0637 31.009 10.0637C 30.5163 10.0637 30.1165 9.67177 30.1165 9.18879C 30.1165 8.87906 30.2807 8.60607 30.5288 8.45033C 30.5842 7.89561 30.32 6.41168 29.6346 5.44398C 29.3758 5.07825 29.1027 4.86826 28.8885 4.86826C 28.3959 4.86826 27.9961 4.47628 27.9961 3.9933C 27.9961 2.45338 26.2612 1.75166 24.6494 1.75166C 20.164 1.75166 18.9074 2.40963 17.4527 3.17259C 16.0926 3.88481 14.5647 4.68627 10.704 5.15699L 10.704 19.4835C 14.4541 20.6892 18.1149 22.7681 21.0778 25.386C 23.9212 27.8989 25.7882 30.6147 26.4218 33.1311C 26.9073 32.9788 27.4553 32.6569 27.8069 32.0496C 28.403 31.0172 28.8493 28.3818 25.142 22.3254C 24.976 22.0559 24.9725 21.7182 25.1313 21.4434C 25.2902 21.1687 25.5865 20.999 25.9077 20.999L 32.1245 20.999C 32.4797 20.999 32.7082 20.8765 32.892 20.5895C 33.1009 20.2622 33.2151 19.7548 33.2151 19.1633C 33.2151 18.4213 33.033 17.6199 32.7296 17.0197L 32.7296 17.0214Z"/>
<path id="path2_stroke_2x" d="M 33.7595 15.387L 33.6043 14.9117L 32.8807 15.148L 33.3849 15.7182L 33.7595 15.387ZM 34.4056 21.5187L 34.8271 21.7876L 34.8273 21.7873L 34.4056 21.5187ZM 27.4517 22.7506L 27.4517 22.2506L 26.5979 22.2506L 27.0156 22.9952L 27.4517 22.7506ZM 29.3615 32.9124L 29.7945 33.1625L 29.7946 33.1622L 29.3615 32.9124ZM 24.8279 34.2423L 25.3233 34.175L 25.3232 34.1737L 24.8279 34.2423ZM 19.8873 26.6862L 20.2185 26.3116L 20.2184 26.3115L 19.8873 26.6862ZM 10.4523 21.2439L 10.6113 20.7699L 10.194 20.6299L 10.0023 21.0262L 10.4523 21.2439ZM 10.5237 3.41583L 10.06 3.60267L 10.2035 3.95898L 10.5848 3.91209L 10.5237 3.41583ZM 16.6174 1.62742L 16.3854 1.18447L 16.3854 1.1845L 16.6174 1.62742ZM 28.0639 0.925704L 27.7905 1.34436L 27.7905 1.34436L 28.0639 0.925704ZM 29.7167 3.27584L 29.2264 3.37365L 29.2795 3.63996L 29.5318 3.74039L 29.7167 3.27584ZM 31.5444 5.18674L 31.0967 5.40933L 31.0968 5.40954L 31.5444 5.18674ZM 32.2905 8.74781L 31.7949 8.68162L 31.7553 8.97837L 31.9982 9.15343L 32.2905 8.74781ZM 33.4811 10.237L 33.0347 10.4622L 33.0348 10.4625L 33.4811 10.237ZM 33.8345 15.2715L 34.2628 15.5296L 34.2675 15.5214L 33.8345 15.2715ZM 33.7649 15.3852L 33.9201 15.8605L 34.0914 15.8046L 34.1876 15.6522L 33.7649 15.3852ZM 32.7296 17.0214L 32.2836 17.2474L 33.2296 17.0214L 32.7296 17.0214ZM 32.278 14.4105L 32.709 14.6641L 32.7114 14.6599L 32.278 14.4105ZM 31.8782 11.0157L 32.3245 10.7903L 32.3243 10.7899L 31.8782 11.0157ZM 30.5288 8.45033L 30.7947 8.8738L 31.0021 8.74362L 31.0264 8.49995L 30.5288 8.45033ZM 29.6346 5.44398L 29.2265 5.7328L 29.2266 5.73297L 29.6346 5.44398ZM 17.4527 3.17259L 17.6846 3.61554L 17.6849 3.61538L 17.4527 3.17259ZM 10.704 5.15699L 10.6435 4.66067L 10.204 4.71425L 10.204 5.15699L 10.704 5.15699ZM 10.704 19.4835L 10.204 19.4835L 10.204 19.848L 10.551 19.9595L 10.704 19.4835ZM 21.0778 25.386L 21.4089 25.0113L 21.4089 25.0113L 21.0778 25.386ZM 26.4218 33.1311L 25.9369 33.2532L 26.0662 33.7666L 26.5714 33.6082L 26.4218 33.1311ZM 27.8069 32.0496L 28.2396 32.3002L 28.2399 32.2997L 27.8069 32.0496ZM 25.142 22.3254L 25.5685 22.0643L 25.5677 22.0632L 25.142 22.3254ZM 32.892 20.5895L 33.3131 20.8592L 33.3135 20.8585L 32.892 20.5895ZM 32.7296 17.0197L 33.1758 16.7941L 32.2296 17.0197L 32.7296 17.0197ZM 33.3849 15.7182C 34.0724 16.4957 34.5 17.8415 34.5 19.165L 35.5 19.165C 35.5 17.6747 35.028 16.0667 34.1341 15.0558L 33.3849 15.7182ZM 34.5 19.165C 34.5 20.0259 34.3092 20.7395 33.9839 21.25L 34.8273 21.7873C 35.2803 21.0764 35.5 20.1626 35.5 19.165L 34.5 19.165ZM 33.9841 21.2497C 33.5716 21.8962 32.9224 22.2506 32.1245 22.2506L 32.1245 23.2506C 33.2543 23.2506 34.2258 22.73 34.8271 21.7876L 33.9841 21.2497ZM 32.1245 22.2506L 27.4517 22.2506L 27.4517 23.2506L 32.1245 23.2506L 32.1245 22.2506ZM 27.0156 22.9952C 28.2727 25.2361 29.0423 27.1705 29.3476 28.7947C 29.6525 30.4165 29.4885 31.6919 28.9284 32.6625L 29.7946 33.1622C 30.5108 31.921 30.6636 30.3824 30.3304 28.6099C 29.9976 26.8397 29.1741 24.7991 27.8878 22.506L 27.0156 22.9952ZM 28.9286 32.6622C 28.1494 34.0109 26.7102 34.5 25.7114 34.5L 25.7114 35.5C 26.9687 35.5 28.7923 34.8972 29.7945 33.1625L 28.9286 32.6622ZM 25.7114 34.5C 25.507 34.5 25.3475 34.3529 25.3233 34.175L 24.3324 34.3095C 24.4261 34.9996 25.0234 35.5 25.7114 35.5L 25.7114 34.5ZM 25.3232 34.1737C 24.9798 31.6933 23.0765 28.8387 20.2185 26.3116L 19.5561 27.0607C 22.3384 29.5209 24.037 32.175 24.3326 34.3108L 25.3232 34.1737ZM 20.2184 26.3115C 17.4655 23.8782 14.0869 21.9354 10.6113 20.7699L 10.2934 21.718C 13.6432 22.8413 16.9044 24.7169 19.5562 27.0608L 20.2184 26.3115ZM 10.0023 21.0262C 9.6538 21.7463 8.90353 22.2489 8.03203 22.2489L 8.03203 23.2489C 9.29525 23.2489 10.3906 22.5195 10.9024 21.4617L 10.0023 21.0262ZM 8.03203 22.2489L 2.67734 22.2489L 2.67734 23.2489L 8.03203 23.2489L 8.03203 22.2489ZM 2.67734 22.2489C 1.468 22.2489 0.5 21.2857 0.5 20.124L -0.5 20.124C -0.5 21.8566 0.934468 23.2489 2.67734 23.2489L 2.67734 22.2489ZM 0.5 20.124L 0.5 4.37478L -0.5 4.37478L -0.5 20.124L 0.5 20.124ZM 0.5 4.37478C 0.5 3.21303 1.468 2.24991 2.67734 2.24991L 2.67734 1.24991C 0.934468 1.24991 -0.5 2.64218 -0.5 4.37478L 0.5 4.37478ZM 2.67734 2.24991L 8.03203 2.24991L 8.03203 1.24991L 2.67734 1.24991L 2.67734 2.24991ZM 8.03203 2.24991C 8.95625 2.24991 9.74224 2.81402 10.06 3.60267L 10.9875 3.22899C 10.5199 2.06824 9.37105 1.24991 8.03203 1.24991L 8.03203 2.24991ZM 10.5848 3.91209C 14.1575 3.47268 15.5327 2.76001 16.8494 2.07034L 16.3854 1.1845C 15.1497 1.83176 13.8903 2.49802 10.4627 2.91957L 10.5848 3.91209ZM 16.8493 2.07037C 17.6439 1.6543 18.3758 1.27159 19.5079 0.984719C 20.6471 0.696041 22.2126 0.5 24.6548 0.5L 24.6548 -0.5C 22.1635 -0.5 20.509 -0.30056 19.2623 0.0153562C 18.0084 0.333077 17.1883 0.76408 16.3854 1.18447L 16.8493 2.07037ZM 24.6548 0.5C 25.8602 0.5 26.9714 0.809479 27.7905 1.34436L 28.3373 0.50705C 27.3287 -0.151512 26.0196 -0.5 24.6548 -0.5L 24.6548 0.5ZM 27.7905 1.34436C 28.5812 1.8606 29.0658 2.56896 29.2264 3.37365L 30.207 3.17802C 29.9892 2.08581 29.3315 1.15625 28.3373 0.507047L 27.7905 1.34436ZM 29.5318 3.74039C 30.0916 3.96323 30.6464 4.50359 31.0967 5.40933L 31.9922 4.96415C 31.475 3.92399 30.7661 3.15541 29.9016 2.81129L 29.5318 3.74039ZM 31.0968 5.40954C 31.5386 6.29718 31.8209 7.43055 31.8209 8.26834L 32.8209 8.26834C 32.8209 7.25472 32.4927 5.96971 31.9921 4.96394L 31.0968 5.40954ZM 31.8209 8.26834C 31.8209 8.42094 31.8114 8.558 31.7949 8.68162L 32.7861 8.81401C 32.8089 8.64364 32.8209 8.46222 32.8209 8.26834L 31.8209 8.26834ZM 31.9982 9.15343C 32.3684 9.42028 32.7267 9.852 33.0347 10.4622L 33.9274 10.0117C 33.5678 9.29904 33.1158 8.72632 32.5829 8.34219L 31.9982 9.15343ZM 33.0348 10.4625C 33.4823 11.3481 33.7521 12.4663 33.7521 13.4323L 34.7521 13.4323C 34.7521 12.3055 34.4436 11.0333 33.9273 10.0115L 33.0348 10.4625ZM 33.7521 13.4323C 33.7521 14.1147 33.622 14.6392 33.4014 15.0216L 34.2675 15.5214C 34.6002 14.9448 34.7521 14.2339 34.7521 13.4323L 33.7521 13.4323ZM 33.4062 15.0134C 33.3825 15.0527 33.362 15.0867 33.3421 15.1183L 34.1876 15.6522C 34.2141 15.6103 34.24 15.5672 34.2627 15.5296L 33.4062 15.0134ZM 33.6096 14.9099L 33.6043 14.9117L 33.9147 15.8623L 33.9201 15.8605L 33.6096 14.9099ZM 8.02846 3.00157L 2.67377 3.00157L 2.67377 4.00157L 8.02846 4.00157L 8.02846 3.00157ZM 2.67377 3.00157C 1.91438 3.00157 1.28133 3.60813 1.28133 4.37653L 2.28133 4.37653C 2.28133 4.17898 2.44791 4.00157 2.67377 4.00157L 2.67377 3.00157ZM 1.28133 4.37653L 1.28133 20.1257L 2.28133 20.1257L 2.28133 4.37653L 1.28133 4.37653ZM 1.28133 20.1257C 1.28133 20.8941 1.91438 21.5007 2.67377 21.5007L 2.67377 20.5007C 2.44791 20.5007 2.28133 20.3233 2.28133 20.1257L 1.28133 20.1257ZM 2.67377 21.5007L 8.02846 21.5007L 8.02846 20.5007L 2.67377 20.5007L 2.67377 21.5007ZM 8.02846 21.5007C 8.78785 21.5007 9.4209 20.8941 9.4209 20.1257L 8.4209 20.1257C 8.4209 20.3233 8.25432 20.5007 8.02846 20.5007L 8.02846 21.5007ZM 9.4209 20.1257L 9.4209 4.37828L 8.4209 4.37828L 8.4209 20.1257L 9.4209 20.1257ZM 9.4209 4.37828L 9.4209 4.37653L 8.4209 4.37653L 8.4209 4.37828L 9.4209 4.37828ZM 9.4209 4.37653C 9.4209 3.60813 8.78785 3.00157 8.02846 3.00157L 8.02846 4.00157C 8.25432 4.00157 8.4209 4.17898 8.4209 4.37653L 9.4209 4.37653ZM 33.1756 16.7954C 33.0223 16.4927 32.8567 16.2639 32.6929 16.103C 32.6112 16.0228 32.5236 15.9531 32.4312 15.9006C 32.3479 15.8533 32.2207 15.7969 32.0692 15.7969L 32.0692 16.7969C 32.0183 16.7969 31.9819 16.787 31.9649 16.7815C 31.9466 16.7755 31.9372 16.7701 31.9371 16.77C 31.9366 16.7697 31.9416 16.7725 31.9517 16.7804C 31.9616 16.7881 31.9752 16.7998 31.9921 16.8164C 32.0617 16.8847 32.1675 17.0181 32.2836 17.2474L 33.1756 16.7954ZM 32.0692 15.7969C 31.8433 15.7969 31.6768 15.6195 31.6768 15.422L 30.6768 15.422C 30.6768 16.1904 31.3098 16.7969 32.0692 16.7969L 32.0692 15.7969ZM 31.6768 15.422C 31.6768 15.2244 31.8433 15.047 32.0692 15.047L 32.0692 14.047C 31.3098 14.047 30.6768 14.6536 30.6768 15.422L 31.6768 15.422ZM 32.0692 15.047C 32.091 15.047 32.2453 15.0552 32.4024 14.9735C 32.5574 14.8929 32.65 14.7643 32.709 14.6641L 31.8471 14.157C 31.8258 14.1932 31.8514 14.1329 31.9409 14.0864C 32.0323 14.0388 32.1223 14.047 32.0692 14.047L 32.0692 15.047ZM 32.7114 14.6599C 32.8945 14.3416 32.9637 13.8809 32.9637 13.4341L 31.9637 13.4341C 31.9637 13.8202 31.8971 14.0699 31.8447 14.1612L 32.7114 14.6599ZM 32.9637 13.4341C 32.9637 12.5744 32.7192 11.5717 32.3245 10.7903L 31.4319 11.2411C 31.7584 11.8876 31.9637 12.7363 31.9637 13.4341L 32.9637 13.4341ZM 32.3243 10.7899C 32.129 10.4041 31.9211 10.1183 31.7203 9.92111C 31.6201 9.82278 31.5153 9.74014 31.4078 9.67927C 31.309 9.62329 31.1695 9.56375 31.009 9.56375L 31.009 10.5637C 30.927 10.5637 30.8912 10.5359 30.9149 10.5493C 30.9299 10.5579 30.9663 10.5823 31.0197 10.6347C 31.1258 10.7389 31.274 10.9291 31.4321 11.2415L 32.3243 10.7899ZM 31.009 9.56375C 30.7831 9.56375 30.6165 9.38634 30.6165 9.18879L 29.6165 9.18879C 29.6165 9.95719 30.2496 10.5637 31.009 10.5637L 31.009 9.56375ZM 30.6165 9.18879C 30.6165 9.06085 30.6838 8.94338 30.7947 8.8738L 30.263 8.02685C 29.8776 8.26876 29.6165 8.69726 29.6165 9.18879L 30.6165 9.18879ZM 31.0264 8.49995C 31.0624 8.13906 30.9952 7.56443 30.8436 6.97712C 30.6899 6.381 30.4324 5.70532 30.0426 5.15498L 29.2266 5.73297C 29.5222 6.15034 29.7395 6.70047 29.8753 7.22692C 30.0134 7.76218 30.0506 8.20688 30.0313 8.4007L 31.0264 8.49995ZM 30.0427 5.15515C 29.8937 4.94453 29.7277 4.75993 29.5501 4.62298C 29.3806 4.49231 29.1522 4.36826 28.8885 4.36826L 28.8885 5.36826C 28.839 5.36826 28.8543 5.3492 28.9396 5.41495C 29.0167 5.47444 29.1167 5.5777 29.2265 5.7328L 30.0427 5.15515ZM 28.8885 4.36826C 28.6627 4.36826 28.4961 4.19085 28.4961 3.9933L 27.4961 3.9933C 27.4961 4.7617 28.1291 5.36826 28.8885 5.36826L 28.8885 4.36826ZM 28.4961 3.9933C 28.4961 2.99838 27.9223 2.29358 27.1778 1.86235C 26.4465 1.4388 25.517 1.25166 24.6494 1.25166L 24.6494 2.25166C 25.3935 2.25166 26.1374 2.41539 26.6765 2.72767C 27.2024 3.03228 27.4961 3.4483 27.4961 3.9933L 28.4961 3.9933ZM 24.6494 1.25166C 22.3853 1.25166 20.9057 1.41736 19.7951 1.69048C 18.6756 1.96581 17.9523 2.34598 17.2205 2.7298L 17.6849 3.61538C 18.4078 3.23624 19.0402 2.90595 20.0339 2.66155C 21.0367 2.41495 22.428 2.25166 24.6494 2.25166L 24.6494 1.25166ZM 17.2208 2.72965C 15.8996 3.42149 14.4299 4.199 10.6435 4.66067L 10.7645 5.65332C 14.6995 5.17353 16.2857 4.34812 17.6846 3.61554L 17.2208 2.72965ZM 10.204 5.15699L 10.204 19.4835L 11.204 19.4835L 11.204 5.15699L 10.204 5.15699ZM 10.551 19.9595C 14.2355 21.1442 17.8357 23.1886 20.7468 25.7607L 21.4089 25.0113C 18.3941 22.3476 14.6726 20.2343 10.8571 19.0075L 10.551 19.9595ZM 20.7467 25.7606C 23.5468 28.2353 25.3367 30.8694 25.9369 33.2532L 26.9067 33.009C 26.2396 30.36 24.2955 27.5624 21.4089 25.0113L 20.7467 25.7606ZM 26.5714 33.6082C 27.1423 33.4291 27.8094 33.043 28.2396 32.3002L 27.3742 31.7991C 27.1011 32.2708 26.6722 32.5285 26.2722 32.654L 26.5714 33.6082ZM 28.2399 32.2997C 28.9824 31.0136 29.2957 28.1535 25.5685 22.0643L 24.7156 22.5864C 28.4028 28.6102 27.8236 31.0207 27.3739 31.7996L 28.2399 32.2997ZM 25.5677 22.0632C 25.4991 21.9517 25.4965 21.8108 25.5642 21.6937L 24.6985 21.1932C 24.4484 21.6256 24.453 22.1601 24.7163 22.5876L 25.5677 22.0632ZM 25.5642 21.6937C 25.6324 21.5757 25.7625 21.499 25.9077 21.499L 25.9077 20.499C 25.4105 20.499 24.9479 20.7617 24.6985 21.1932L 25.5642 21.6937ZM 25.9077 21.499L 32.1245 21.499L 32.1245 20.499L 25.9077 20.499L 25.9077 21.499ZM 32.1245 21.499C 32.3598 21.499 32.5922 21.4582 32.8081 21.3429C 33.0254 21.2268 33.1869 21.0562 33.3131 20.8592L 32.471 20.3198C 32.4134 20.4098 32.3687 20.4438 32.337 20.4608C 32.3039 20.4785 32.2445 20.499 32.1245 20.499L 32.1245 21.499ZM 33.3135 20.8585C 33.5942 20.4186 33.7151 19.8028 33.7151 19.1633L 32.7151 19.1633C 32.7151 19.7067 32.6075 20.1058 32.4706 20.3205L 33.3135 20.8585ZM 33.7151 19.1633C 33.7151 18.3508 33.518 17.4709 33.1758 16.7941L 32.2834 17.2452C 32.5481 17.7689 32.7151 18.4919 32.7151 19.1633L 33.7151 19.1633ZM 32.2296 17.0197L 32.2296 17.0214L 33.2296 17.0214L 33.2296 17.0197L 32.2296 17.0197Z"/>
</defs>
</svg>
