<svg width="56" height="55" viewBox="0 0 56 55" version="1.1" xmlns="http://www.w3.org/2000/svg" xmlns:xlink="http://www.w3.org/1999/xlink">
<title>lnr-thumbs-down</title>
<desc>Created using Figma</desc>
<g id="Canvas" transform="translate(-2861 -1052)">
<g id="lnr-thumbs-down">
<g id="Ellipse 2.3">
<use xlink:href="#path0_fill" transform="translate(2861.67 1052)" fill="#FFFFFF"/>
<use xlink:href="#path0_fill" transform="translate(2861.67 1052)" fill="url(#paint1_linear)"/>
</g>
<g id="Vector" filter="url(#filter0_d)">
<use xlink:href="#path1_fill" transform="translate(2871.67 1062)" fill="#2B73E0"/>
<use xlink:href="#path2_stroke" transform="translate(2871.67 1062)" fill="#2B73E0"/>
</g>
</g>
</g>
<defs>
<filter id="filter0_d" filterUnits="userSpaceOnUse" x="2867" y="1061" width="44" height="45" color-interpolation-filters="sRGB">
<feFlood flood-opacity="0" result="BackgroundImageFix"/>
<feColorMatrix in="SourceAlpha" type="matrix" values="0 0 0 0 0 0 0 0 0 0 0 0 0 0 0 0 0 0 255 0"/>
<feOffset dx="0" dy="4"/>
<feGaussianBlur stdDeviation="2"/>
<feColorMatrix type="matrix" values="0 0 0 0 0 0 0 0 0 0 0 0 0 0 0 0 0 0 0.25 0"/>
<feBlend mode="normal" in2="BackgroundImageFix" result="effect1_dropShadow"/>
<feBlend mode="normal" in="SourceGraphic" in2="effect1_dropShadow" result="shape"/>
</filter>
<linearGradient id="paint1_linear" x1="0" y1="0" x2="1" y2="0" gradientUnits="userSpaceOnUse" gradientTransform="matrix(-1.5691e-06 -76.5 76.5 -1.5691e-06 -10.25 55)">
<stop offset="0" stop-color="#FFFFFF"/>
<stop offset="1" stop-color="#FFFFFF" stop-opacity="0"/>
</linearGradient>
<path id="path0_fill" d="M 55 27.5C 55 42.6878 42.6878 55 27.5 55C 12.3122 55 0 42.6878 0 27.5C 0 12.3122 12.3122 0 27.5 0C 42.6878 0 55 12.3122 55 27.5Z"/>
<path id="path1_fill" d="M 33.7595 15.387C 34.5502 16.2812 35 17.7581 35 19.165C 35 20.0942 34.7947 20.908 34.4056 21.5187C 33.8987 22.3131 33.0884 22.7506 32.1245 22.7506L 27.4517 22.7506C 29.9952 27.2846 30.6377 30.7005 29.3615 32.9124C 28.4709 34.454 26.8395 35 25.7114 35C 25.2652 35 24.8868 34.6763 24.8279 34.2423C 24.5084 31.9342 22.7074 29.1798 19.8873 26.6862C 17.185 24.2975 13.8651 22.3884 10.4523 21.2439C 10.0222 22.1329 9.09939 22.7489 8.03203 22.7489L 2.67734 22.7489C 1.20123 22.7489 1.69552e-10 21.5712 1.69552e-10 20.124L 1.69552e-10 4.37478C 1.69552e-10 2.9276 1.20123 1.74991 2.67734 1.74991L 8.03203 1.74991C 9.16365 1.74991 10.1311 2.44113 10.5237 3.41583C 14.0239 2.98535 15.3412 2.29589 16.6174 1.62742C 18.2149 0.790961 19.7213 -8.31234e-11 24.6548 -8.31234e-11C 25.9399 -8.31234e-11 27.15 0.328984 28.0639 0.925704C 28.9564 1.50842 29.5275 2.32738 29.7167 3.27584C 30.4289 3.55932 31.0607 4.21379 31.5444 5.18674C 32.0157 6.13344 32.3209 7.34263 32.3209 8.26834C 32.3209 8.44158 32.3102 8.60082 32.2905 8.74781C 32.7421 9.0733 33.1473 9.57552 33.4811 10.237C 33.963 11.1907 34.2521 12.3859 34.2521 13.4323C 34.2521 14.1743 34.1111 14.792 33.8345 15.2715C 33.8113 15.31 33.7881 15.3485 33.7649 15.3852L 33.7595 15.387ZM 8.02846 3.50157L 2.67377 3.50157C 2.18114 3.50157 1.78133 3.89356 1.78133 4.37653L 1.78133 20.1257C 1.78133 20.6087 2.18114 21.0007 2.67377 21.0007L 8.02846 21.0007C 8.52109 21.0007 8.92091 20.6087 8.92091 20.1257L 8.92091 4.37828L 8.92091 4.37653C 8.92091 3.89356 8.52109 3.50157 8.02846 3.50157L 8.02846 3.50157ZM 32.7296 17.0214C 32.4601 16.4894 32.187 16.2969 32.0692 16.2969C 31.5766 16.2969 31.1768 15.905 31.1768 15.422C 31.1768 14.939 31.5766 14.547 32.0692 14.547C 32.1442 14.547 32.1977 14.547 32.278 14.4105C 32.3958 14.2058 32.4637 13.8506 32.4637 13.4341C 32.4637 12.6554 32.2388 11.7297 31.8782 11.0157C 31.5248 10.3175 31.166 10.0637 31.009 10.0637C 30.5163 10.0637 30.1165 9.67177 30.1165 9.18879C 30.1165 8.87906 30.2807 8.60607 30.5288 8.45033C 30.5842 7.89561 30.32 6.41168 29.6346 5.44398C 29.3758 5.07825 29.1027 4.86826 28.8885 4.86826C 28.3959 4.86826 27.9961 4.47628 27.9961 3.9933C 27.9961 2.45338 26.2612 1.75166 24.6494 1.75166C 20.164 1.75166 18.9074 2.40963 17.4527 3.17259C 16.0926 3.88481 14.5647 4.68627 10.704 5.15699L 10.704 19.4835C 14.4541 20.6892 18.1149 22.7681 21.0778 25.386C 23.9212 27.8989 25.7882 30.6147 26.4218 33.1311C 26.9073 32.9788 27.4553 32.6569 27.8069 32.0496C 28.403 31.0172 28.8493 28.3818 25.142 22.3254C 24.976 22.0559 24.9725 21.7182 25.1313 21.4434C 25.2902 21.1687 25.5865 20.999 25.9078 20.999L 32.1245 20.999C 32.4797 20.999 32.7082 20.8765 32.892 20.5895C 33.1009 20.2622 33.2151 19.7548 33.2151 19.1633C 33.2151 18.4213 33.0331 17.6199 32.7296 17.0197L 32.7296 17.0214Z"/>
<path id="path2_stroke" d="M 33.7595 15.387L 33.6819 15.1493L 33.3201 15.2675L 33.5722 15.5526L 33.7595 15.387ZM 34.4056 21.5187L 34.6164 21.6531L 34.6165 21.653L 34.4056 21.5187ZM 27.4517 22.7506L 27.4517 22.5006L 27.0248 22.5006L 27.2336 22.8729L 27.4517 22.7506ZM 29.3615 32.9124L 29.578 33.0374L 29.5781 33.0373L 29.3615 32.9124ZM 24.8279 34.2423L 25.0756 34.2087L 25.0755 34.208L 24.8279 34.2423ZM 19.8873 26.6862L 20.0529 26.4989L 20.0529 26.4989L 19.8873 26.6862ZM 10.4523 21.2439L 10.5318 21.0069L 10.3232 20.9369L 10.2273 21.135L 10.4523 21.2439ZM 10.5237 3.41583L 10.2919 3.50925L 10.3636 3.68741L 10.5543 3.66396L 10.5237 3.41583ZM 16.6174 1.62742L 16.5014 1.40594L 16.5014 1.40596L 16.6174 1.62742ZM 28.0639 0.925704L 27.9272 1.13503L 27.9272 1.13503L 28.0639 0.925704ZM 29.7167 3.27584L 29.4715 3.32474L 29.4981 3.4579L 29.6243 3.50811L 29.7167 3.27584ZM 31.5444 5.18674L 31.3206 5.29803L 31.3206 5.29814L 31.5444 5.18674ZM 32.2905 8.74781L 32.0427 8.71471L 32.0229 8.86309L 32.1444 8.95062L 32.2905 8.74781ZM 33.4811 10.237L 33.2579 10.3496L 33.2579 10.3497L 33.4811 10.237ZM 33.8345 15.2715L 34.0486 15.4006L 34.051 15.3964L 33.8345 15.2715ZM 33.7649 15.3852L 33.8425 15.6229L 33.9281 15.5949L 33.9762 15.5187L 33.7649 15.3852ZM 32.7296 17.0214L 32.5066 17.1344L 32.9796 17.0214L 32.7296 17.0214ZM 32.278 14.4105L 32.4935 14.5373L 32.4947 14.5352L 32.278 14.4105ZM 31.8782 11.0157L 32.1014 10.903L 32.1013 10.9028L 31.8782 11.0157ZM 30.5288 8.45033L 30.6618 8.66207L 30.7655 8.59697L 30.7776 8.47514L 30.5288 8.45033ZM 29.6346 5.44398L 29.4305 5.58839L 29.4306 5.58847L 29.6346 5.44398ZM 17.4527 3.17259L 17.5687 3.39406L 17.5688 3.39399L 17.4527 3.17259ZM 10.704 5.15699L 10.6738 4.90883L 10.454 4.93562L 10.454 5.15699L 10.704 5.15699ZM 10.704 19.4835L 10.454 19.4835L 10.454 19.6658L 10.6275 19.7215L 10.704 19.4835ZM 21.0778 25.386L 21.2434 25.1987L 21.2434 25.1986L 21.0778 25.386ZM 26.4218 33.1311L 26.1794 33.1921L 26.244 33.4488L 26.4966 33.3696L 26.4218 33.1311ZM 27.8069 32.0496L 28.0232 32.1749L 28.0234 32.1747L 27.8069 32.0496ZM 25.142 22.3254L 25.3553 22.1949L 25.3549 22.1943L 25.142 22.3254ZM 32.892 20.5895L 33.1026 20.7243L 33.1028 20.724L 32.892 20.5895ZM 32.7296 17.0197L 32.9527 16.9069L 32.4796 17.0197L 32.7296 17.0197ZM 33.5722 15.5526C 34.3113 16.3884 34.75 17.7998 34.75 19.165L 35.25 19.165C 35.25 17.7164 34.7891 16.1739 33.9468 15.2214L 33.5722 15.5526ZM 34.75 19.165C 34.75 20.0601 34.552 20.8237 34.1948 21.3843L 34.6165 21.653C 35.0375 20.9922 35.25 20.1284 35.25 19.165L 34.75 19.165ZM 34.1949 21.3842C 33.7352 22.1047 33.0054 22.5006 32.1245 22.5006L 32.1245 23.0006C 33.1713 23.0006 34.0623 22.5216 34.6164 21.6531L 34.1949 21.3842ZM 32.1245 22.5006L 27.4517 22.5006L 27.4517 23.0006L 32.1245 23.0006L 32.1245 22.5006ZM 27.2336 22.8729C 28.4981 25.1269 29.2811 27.0878 29.5933 28.7485C 29.9053 30.408 29.744 31.7491 29.145 32.7874L 29.5781 33.0373C 30.2552 31.8637 30.4108 30.3909 30.0847 28.6561C 29.7588 26.9224 28.9488 24.9084 27.6697 22.6283L 27.2336 22.8729ZM 29.145 32.7873C 28.3102 34.2324 26.7748 34.75 25.7114 34.75L 25.7114 35.25C 26.9041 35.25 28.6316 34.6756 29.578 33.0374L 29.145 32.7873ZM 25.7114 34.75C 25.3861 34.75 25.1171 34.5146 25.0756 34.2087L 24.5802 34.2759C 24.6564 34.8379 25.1443 35.25 25.7114 35.25L 25.7114 34.75ZM 25.0755 34.208C 24.7441 31.8137 22.8919 29.0092 20.0529 26.4989L 19.7217 26.8735C 22.5229 29.3504 24.2727 32.0546 24.5802 34.2766L 25.0755 34.208ZM 20.0529 26.4989C 17.3252 24.0879 13.976 22.1619 10.5318 21.0069L 10.3729 21.481C 13.7541 22.6149 17.0447 24.5072 19.7217 26.8735L 20.0529 26.4989ZM 10.2273 21.135C 9.83799 21.9396 9.00146 22.4989 8.03203 22.4989L 8.03203 22.9989C 9.19732 22.9989 10.2064 22.3262 10.6774 21.3528L 10.2273 21.135ZM 8.03203 22.4989L 2.67734 22.4989L 2.67734 22.9989L 8.03203 22.9989L 8.03203 22.4989ZM 2.67734 22.4989C 1.33462 22.4989 0.25 21.4285 0.25 20.124L -0.25 20.124C -0.25 21.7139 1.06785 22.9989 2.67734 22.9989L 2.67734 22.4989ZM 0.25 20.124L 0.25 4.37478L -0.25 4.37478L -0.25 20.124L 0.25 20.124ZM 0.25 4.37478C 0.25 3.07032 1.33462 1.99991 2.67734 1.99991L 2.67734 1.49991C 1.06785 1.49991 -0.25 2.78489 -0.25 4.37478L 0.25 4.37478ZM 2.67734 1.99991L 8.03203 1.99991L 8.03203 1.49991L 2.67734 1.49991L 2.67734 1.99991ZM 8.03203 1.99991C 9.05995 1.99991 9.93665 2.62757 10.2919 3.50925L 10.7556 3.32241C 10.3255 2.25468 9.26735 1.49991 8.03203 1.49991L 8.03203 1.99991ZM 10.5543 3.66396C 14.0907 3.22902 15.4369 2.52795 16.7334 1.84888L 16.5014 1.40596C 15.2454 2.06382 13.9571 2.74168 10.4932 3.1677L 10.5543 3.66396ZM 16.7333 1.84889C 17.53 1.43174 18.2839 1.03696 19.4465 0.742378C 20.6126 0.44689 22.2003 0.25 24.6548 0.25L 24.6548 -0.25C 22.1758 -0.25 20.5435 -0.0514101 19.3237 0.257697C 18.1003 0.567706 17.3022 0.986635 16.5014 1.40594L 16.7333 1.84889ZM 24.6548 0.25C 25.9 0.25 27.0607 0.569231 27.9272 1.13503L 28.2006 0.716377C 27.2394 0.0887359 25.9797 -0.25 24.6548 -0.25L 24.6548 0.25ZM 27.9272 1.13503C 28.7688 1.68451 29.2967 2.44817 29.4715 3.32474L 29.9619 3.22693C 29.7583 2.2066 29.1439 1.33234 28.2006 0.716375L 27.9272 1.13503ZM 29.6243 3.50811C 30.2603 3.76128 30.8536 4.35869 31.3206 5.29803L 31.7683 5.07545C 31.2679 4.06889 30.5975 3.35737 29.8092 3.04356L 29.6243 3.50811ZM 31.3206 5.29814C 31.7772 6.21531 32.0709 7.38659 32.0709 8.26834L 32.5709 8.26834C 32.5709 7.29868 32.2542 6.05157 31.7683 5.07534L 31.3206 5.29814ZM 32.0709 8.26834C 32.0709 8.43126 32.0608 8.57941 32.0427 8.71471L 32.5383 8.78091C 32.5595 8.62223 32.5709 8.4519 32.5709 8.26834L 32.0709 8.26834ZM 32.1444 8.95062C 32.5553 9.24679 32.937 9.71376 33.2579 10.3496L 33.7043 10.1244C 33.3576 9.43728 32.929 8.89981 32.4367 8.545L 32.1444 8.95062ZM 33.2579 10.3497C 33.7227 11.2694 34.0021 12.4261 34.0021 13.4323L 34.5021 13.4323C 34.5021 12.3457 34.2033 11.112 33.7042 10.1242L 33.2579 10.3497ZM 34.0021 13.4323C 34.0021 14.1445 33.8666 14.7156 33.6179 15.1465L 34.051 15.3964C 34.3557 14.8684 34.5021 14.2041 34.5021 13.4323L 34.0021 13.4323ZM 33.6204 15.1424C 33.5969 15.1814 33.575 15.2176 33.5535 15.2518L 33.9762 15.5187C 34.0011 15.4794 34.0256 15.4386 34.0486 15.4005L 33.6204 15.1424ZM 33.6872 15.1476L 33.6819 15.1493L 33.8371 15.6246L 33.8425 15.6229L 33.6872 15.1476ZM 8.02846 3.25157L 2.67377 3.25157L 2.67377 3.75157L 8.02846 3.75157L 8.02846 3.25157ZM 2.67377 3.25157C 2.04776 3.25157 1.53133 3.75084 1.53133 4.37653L 2.03133 4.37653C 2.03133 4.03627 2.31452 3.75157 2.67377 3.75157L 2.67377 3.25157ZM 1.53133 4.37653L 1.53133 20.1257L 2.03133 20.1257L 2.03133 4.37653L 1.53133 4.37653ZM 1.53133 20.1257C 1.53133 20.7514 2.04776 21.2507 2.67377 21.2507L 2.67377 20.7507C 2.31452 20.7507 2.03133 20.466 2.03133 20.1257L 1.53133 20.1257ZM 2.67377 21.2507L 8.02846 21.2507L 8.02846 20.7507L 2.67377 20.7507L 2.67377 21.2507ZM 8.02846 21.2507C 8.65447 21.2507 9.17091 20.7514 9.17091 20.1257L 8.67091 20.1257C 8.67091 20.466 8.38771 20.7507 8.02846 20.7507L 8.02846 21.2507ZM 9.17091 20.1257L 9.17091 4.37828L 8.67091 4.37828L 8.67091 20.1257L 9.17091 20.1257ZM 9.17091 4.37828L 9.17091 4.37653L 8.67091 4.37653L 8.67091 4.37828L 9.17091 4.37828ZM 9.17091 4.37653C 9.17091 3.75084 8.65447 3.25157 8.02846 3.25157L 8.02846 3.75157C 8.38771 3.75157 8.67091 4.03627 8.67091 4.37653L 9.17091 4.37653ZM 32.9526 16.9084C 32.8086 16.624 32.658 16.4191 32.5177 16.2813C 32.4477 16.2126 32.3771 16.1574 32.3077 16.118C 32.2429 16.0811 32.1597 16.0469 32.0692 16.0469L 32.0692 16.5469C 32.0376 16.5469 32.0328 16.5368 32.0607 16.5527C 32.0841 16.566 32.1206 16.5922 32.1673 16.638C 32.2604 16.7295 32.3812 16.8868 32.5066 17.1344L 32.9526 16.9084ZM 32.0692 16.0469C 31.71 16.0469 31.4268 15.7622 31.4268 15.422L 30.9268 15.422C 30.9268 16.0477 31.4432 16.5469 32.0692 16.5469L 32.0692 16.0469ZM 31.4268 15.422C 31.4268 15.0817 31.71 14.797 32.0692 14.797L 32.0692 14.297C 31.4432 14.297 30.9268 14.7963 30.9268 15.422L 31.4268 15.422ZM 32.0692 14.797C 32.0989 14.797 32.1921 14.8011 32.287 14.7517C 32.3809 14.7029 32.4439 14.6216 32.4935 14.5373L 32.0626 14.2837C 32.0556 14.2957 32.0498 14.3044 32.0454 14.3106C 32.041 14.3168 32.0382 14.32 32.0373 14.3211C 32.0363 14.3221 32.0375 14.3207 32.0408 14.3181C 32.0442 14.3153 32.0494 14.3117 32.0562 14.3082C 32.0631 14.3046 32.0702 14.3018 32.0769 14.2999C 32.0835 14.298 32.0884 14.2972 32.0907 14.2969C 32.0928 14.2966 32.0927 14.2968 32.0888 14.2969C 32.0845 14.297 32.0793 14.297 32.0692 14.297L 32.0692 14.797ZM 32.4947 14.5352C 32.6452 14.2737 32.7137 13.8657 32.7137 13.4341L 32.2137 13.4341C 32.2137 13.8354 32.1465 14.1379 32.0613 14.2859L 32.4947 14.5352ZM 32.7137 13.4341C 32.7137 12.6149 32.479 11.6507 32.1014 10.903L 31.6551 11.1284C 31.9986 11.8086 32.2137 12.6958 32.2137 13.4341L 32.7137 13.4341ZM 32.1013 10.9028C 31.9153 10.5353 31.7223 10.2734 31.5451 10.0995C 31.4567 10.0127 31.3689 9.94457 31.2846 9.89679C 31.2046 9.85145 31.1089 9.81375 31.009 9.81375L 31.009 10.3137C 30.9876 10.3137 30.9957 10.3078 31.0381 10.3318C 31.0763 10.3534 31.1298 10.3924 31.1948 10.4563C 31.3247 10.5838 31.4878 10.7979 31.6552 11.1286L 32.1013 10.9028ZM 31.009 9.81375C 30.6497 9.81375 30.3665 9.52905 30.3665 9.18879L 29.8665 9.18879C 29.8665 9.81448 30.383 10.3137 31.009 10.3137L 31.009 9.81375ZM 30.3665 9.18879C 30.3665 8.96995 30.4823 8.77473 30.6618 8.66207L 30.3959 8.23859C 30.0792 8.43741 29.8665 8.78816 29.8665 9.18879L 30.3665 9.18879ZM 30.7776 8.47514C 30.8094 8.15601 30.7497 7.61387 30.6016 7.03957C 30.4523 6.46087 30.2049 5.81657 29.8386 5.29948L 29.4306 5.58847C 29.7498 6.03908 29.9771 6.6206 30.1174 7.16447C 30.2589 7.71274 30.3036 8.18992 30.2801 8.42551L 30.7776 8.47514ZM 29.8387 5.29957C 29.6995 5.10282 29.55 4.93855 29.3975 4.82097C 29.249 4.70653 29.0739 4.61826 28.8885 4.61826L 28.8885 5.11826C 28.9173 5.11826 28.9858 5.13497 29.0922 5.21696C 29.1945 5.29581 29.311 5.4194 29.4305 5.58839L 29.8387 5.29957ZM 28.8885 4.61826C 28.5293 4.61826 28.2461 4.33356 28.2461 3.9933L 27.7461 3.9933C 27.7461 4.61899 28.2625 5.11826 28.8885 5.11826L 28.8885 4.61826ZM 28.2461 3.9933C 28.2461 3.11086 27.7423 2.47825 27.0525 2.07868C 26.3692 1.68294 25.4862 1.50166 24.6494 1.50166L 24.6494 2.00166C 25.4244 2.00166 26.2147 2.17124 26.8018 2.51134C 27.3824 2.8476 27.7461 3.33582 27.7461 3.9933L 28.2461 3.9933ZM 24.6494 1.50166C 22.396 1.50166 20.9384 1.66676 19.8548 1.93325C 18.7667 2.20085 18.0662 2.56854 17.3366 2.9512L 17.5688 3.39399C 18.2939 3.01368 18.949 2.67091 19.9742 2.41878C 21.0039 2.16555 22.4174 2.00166 24.6494 2.00166L 24.6494 1.50166ZM 17.3367 2.95112C 15.9961 3.65315 14.4973 4.44263 10.6738 4.90883L 10.7343 5.40515C 14.6321 4.9299 16.1891 4.11646 17.5687 3.39406L 17.3367 2.95112ZM 10.454 5.15699L 10.454 19.4835L 10.954 19.4835L 10.954 5.15699L 10.454 5.15699ZM 10.6275 19.7215C 14.3448 20.9167 17.9753 22.9784 20.9123 25.5733L 21.2434 25.1986C 18.2545 22.5579 14.5634 20.4617 10.7805 19.2455L 10.6275 19.7215ZM 20.9123 25.5733C 23.734 28.0671 25.5624 30.7421 26.1794 33.1921L 26.6642 33.07C 26.0139 30.4874 24.1083 27.7306 21.2434 25.1987L 20.9123 25.5733ZM 26.4966 33.3696C 27.0248 33.204 27.6324 32.8499 28.0232 32.1749L 27.5905 31.9244C 27.2782 32.4638 26.7898 32.7537 26.347 32.8925L 26.4966 33.3696ZM 28.0234 32.1747C 28.6927 31.0154 29.0725 28.2677 25.3553 22.1949L 24.9288 22.4559C 28.626 28.496 28.1133 31.019 27.5904 31.9246L 28.0234 32.1747ZM 25.3549 22.1943C 25.2376 22.0038 25.2345 21.7645 25.3477 21.5686L 24.9149 21.3183C 24.7105 21.6719 24.7145 22.108 24.9292 22.4565L 25.3549 22.1943ZM 25.3477 21.5686C 25.4613 21.3722 25.6745 21.249 25.9078 21.249L 25.9078 20.749C 25.4985 20.749 25.1191 20.9652 24.9149 21.3183L 25.3477 21.5686ZM 25.9078 21.249L 32.1245 21.249L 32.1245 20.749L 25.9078 20.749L 25.9078 21.249ZM 32.1245 21.249C 32.331 21.249 32.5201 21.2133 32.6903 21.1223C 32.8612 21.0311 32.9935 20.8946 33.1026 20.7243L 32.6815 20.4546C 32.6067 20.5714 32.5329 20.6396 32.4548 20.6813C 32.376 20.7234 32.2733 20.749 32.1245 20.749L 32.1245 21.249ZM 33.1028 20.724C 33.3475 20.3404 33.4651 19.7788 33.4651 19.1633L 32.9651 19.1633C 32.9651 19.7307 32.8542 20.184 32.6813 20.455L 33.1028 20.724ZM 33.4651 19.1633C 33.4651 18.3861 33.2755 17.5454 32.9527 16.9069L 32.5065 17.1324C 32.7906 17.6944 32.9651 18.4566 32.9651 19.1633L 33.4651 19.1633ZM 32.4796 17.0197L 32.4796 17.0214L 32.9796 17.0214L 32.9796 17.0197L 32.4796 17.0197Z"/>
</defs>
</svg>
