<svg width="55" height="55" viewBox="0 0 55 55" version="1.1" xmlns="http://www.w3.org/2000/svg" xmlns:xlink="http://www.w3.org/1999/xlink">
<title>lnr-thumbs-down</title>
<desc>Created using Figma</desc>
<g id="Canvas" transform="translate(-2875 -1051)">
<g id="lnr-thumbs-down">
<g id="Ellipse 2.2">
<use xlink:href="#path0_fill" transform="translate(2875 1051)" fill="#FFFFFF"/>
</g>
<g id="Vector">
<use xlink:href="#path1_fill" transform="translate(2885 1061)" fill="#FF0000"/>
</g>
</g>
</g>
<defs>
<path id="path0_fill" d="M 55 27.5C 55 42.6878 42.6878 55 27.5 55C 12.3122 55 0 42.6878 0 27.5C 0 12.3122 12.3122 0 27.5 0C 42.6878 0 55 12.3122 55 27.5Z"/>
<path id="path1_fill" d="M 33.7595 15.387C 34.5502 16.2812 35 17.7581 35 19.165C 35 20.0942 34.7947 20.908 34.4056 21.5187C 33.8987 22.3131 33.0884 22.7506 32.1245 22.7506L 27.4517 22.7506C 29.9952 27.2846 30.6377 30.7005 29.3615 32.9124C 28.4709 34.454 26.8395 35 25.7114 35C 25.2652 35 24.8868 34.6763 24.8279 34.2423C 24.5084 31.9342 22.7074 29.1798 19.8873 26.6862C 17.185 24.2975 13.8651 22.3884 10.4523 21.2439C 10.0222 22.1329 9.09939 22.7489 8.03203 22.7489L 2.67734 22.7489C 1.20123 22.7489 1.69552e-10 21.5712 1.69552e-10 20.124L 1.69552e-10 4.37478C 1.69552e-10 2.9276 1.20123 1.74991 2.67734 1.74991L 8.03203 1.74991C 9.16365 1.74991 10.1311 2.44113 10.5237 3.41583C 14.0239 2.98535 15.3412 2.29589 16.6174 1.62742C 18.2149 0.79096 19.7213 -8.31234e-11 24.6548 -8.31234e-11C 25.9399 -8.31234e-11 27.15 0.328984 28.0639 0.925704C 28.9563 1.50842 29.5275 2.32738 29.7167 3.27584C 30.4289 3.55932 31.0607 4.21379 31.5444 5.18674C 32.0157 6.13344 32.3209 7.34263 32.3209 8.26834C 32.3209 8.44158 32.3102 8.60082 32.2905 8.74781C 32.7421 9.0733 33.1473 9.57552 33.4811 10.237C 33.963 11.1907 34.2521 12.3859 34.2521 13.4323C 34.2521 14.1743 34.1111 14.792 33.8345 15.2715C 33.8113 15.31 33.7881 15.3485 33.7649 15.3852L 33.7595 15.387ZM 8.02846 3.50157L 2.67377 3.50157C 2.18114 3.50157 1.78132 3.89356 1.78132 4.37653L 1.78132 20.1257C 1.78132 20.6087 2.18114 21.0007 2.67377 21.0007L 8.02846 21.0007C 8.52109 21.0007 8.9209 20.6087 8.9209 20.1257L 8.9209 4.37828L 8.9209 4.37653C 8.9209 3.89356 8.52109 3.50157 8.02846 3.50157ZM 32.7296 17.0214C 32.4601 16.4894 32.187 16.2969 32.0692 16.2969C 31.5766 16.2969 31.1768 15.905 31.1768 15.422C 31.1768 14.939 31.5766 14.547 32.0692 14.547C 32.1442 14.547 32.1977 14.547 32.278 14.4105C 32.3958 14.2058 32.4637 13.8506 32.4637 13.4341C 32.4637 12.6554 32.2388 11.7297 31.8782 11.0157C 31.5248 10.3175 31.166 10.0637 31.009 10.0637C 30.5163 10.0637 30.1165 9.67177 30.1165 9.18879C 30.1165 8.87906 30.2807 8.60607 30.5288 8.45033C 30.5842 7.89561 30.32 6.41168 29.6346 5.44398C 29.3758 5.07825 29.1027 4.86826 28.8885 4.86826C 28.3959 4.86826 27.9961 4.47628 27.9961 3.9933C 27.9961 2.45338 26.2612 1.75166 24.6494 1.75166C 20.164 1.75166 18.9074 2.40963 17.4527 3.17259C 16.0926 3.88481 14.5647 4.68627 10.704 5.15699L 10.704 19.4835C 14.4541 20.6892 18.1149 22.7681 21.0778 25.386C 23.9212 27.8989 25.7882 30.6147 26.4218 33.1311C 26.9073 32.9789 27.4553 32.6569 27.8069 32.0496C 28.403 31.0172 28.8493 28.3818 25.142 22.3254C 24.976 22.0559 24.9725 21.7182 25.1313 21.4434C 25.2902 21.1687 25.5865 20.999 25.9077 20.999L 32.1245 20.999C 32.4797 20.999 32.7082 20.8765 32.892 20.5895C 33.1009 20.2622 33.2151 19.7548 33.2151 19.1633C 33.2151 18.4213 33.033 17.6199 32.7296 17.0197L 32.7296 17.0214Z"/>
</defs>
</svg>
