<svg width="55" height="55" viewBox="0 0 55 55" version="1.1" xmlns="http://www.w3.org/2000/svg" xmlns:xlink="http://www.w3.org/1999/xlink">
<title>lnr-arrow-left-circle</title>
<desc>Created using Figma</desc>
<g id="Canvas" transform="translate(-2798 -1051)">
<g id="lnr-arrow-left-circle">
<g id="Ellipse 2.3">
<use xlink:href="#path0_fill" transform="translate(2798 1051)" fill="#FFFFFF"/>
</g>
<g id="Vector">
<use xlink:href="#path1_fill" transform="translate(2808 1061)" fill="#F2C94C"/>
</g>
<g id="Vector">
<use xlink:href="#path2_fill" transform="translate(2814.45 1070.21)" fill="#F2C94C"/>
</g>
</g>
</g>
<defs>
<path id="path0_fill" d="M 55 27.5C 55 42.6878 42.6878 55 27.5 55C 12.3122 55 0 42.6878 0 27.5C 0 12.3122 12.3122 0 27.5 0C 42.6878 0 55 12.3122 55 27.5Z"/>
<path id="path1_fill" d="M 5.12474 5.12501C 8.42947 1.8201 12.8247 0 17.5 0C 22.1753 0 26.5687 1.8201 29.8753 5.12501C 33.1818 8.42992 35 12.8254 35 17.4991C 35 22.1727 33.18 26.5682 29.8753 29.875C 26.5705 33.1817 22.1753 35 17.5 35C 12.8247 35 8.43132 33.1799 5.12474 29.875C 1.81816 26.5701 0 22.1746 0 17.4991C 0 12.8236 1.82 8.42992 5.12474 5.12501ZM 17.5 33.1596C 26.1339 33.1596 33.1579 26.1353 33.1579 17.5009C 33.1579 8.86652 26.1339 1.8422 17.5 1.8422C 8.86605 1.8422 1.84211 8.86652 1.84211 17.5009C 1.84211 26.1353 8.86605 33.1596 17.5 33.1596Z"/>
<path id="path2_fill" d="M 0.269408 7.63823L 7.63783 0.269422C 7.99704 -0.0898077 8.58099 -0.0898077 8.9402 0.269422C 9.29941 0.628651 9.29941 1.21263 8.9402 1.57186L 3.14309 7.36743L 22.1039 7.36743C 22.6123 7.36743 23.0249 7.78008 23.0249 8.28853C 23.0249 8.79698 22.6123 9.20963 22.1039 9.20963L 3.14309 9.20963L 8.93835 15.007C 9.29757 15.3663 9.29757 15.9502 8.93835 16.3095C 8.75783 16.49 8.52204 16.5784 8.28809 16.5784C 8.05414 16.5784 7.81651 16.4882 7.63783 16.3076L 0.269408 8.93883C -0.0898025 8.5796 -0.0898025 7.99562 0.269408 7.63639L 0.269408 7.63823Z"/>
</defs>
</svg>
