<svg width="55" height="55" viewBox="0 0 55 55" version="1.1" xmlns="http://www.w3.org/2000/svg" xmlns:xlink="http://www.w3.org/1999/xlink">
<title>lnr-heart</title>
<desc>Created using Figma</desc>
<g id="Canvas" transform="translate(-2952 -1051)">
<g id="lnr-heart">
<g id="Ellipse 2">
<use xlink:href="#path0_fill" transform="translate(2952 1051)" fill="#FFFFFF"/>
</g>
<g id="Vector">
<use xlink:href="#path1_fill" transform="translate(2962 1061)" fill="#0075FF"/>
</g>
</g>
</g>
<defs>
<path id="path0_fill" d="M 55 27.5C 55 42.6878 42.6878 55 27.5 55C 12.3122 55 0 42.6878 0 27.5C 0 12.3122 12.3122 0 27.5 0C 42.6878 0 55 12.3122 55 27.5Z"/>
<path id="path1_fill" d="M 17.5 35C 17.3453 35 17.1924 34.9568 17.0524 34.8703C 16.8792 34.7632 12.7676 32.1918 8.59342 27.9794C 6.12316 25.4882 4.15211 22.9394 2.73 20.4029C 0.917368 17.1685 0 13.9403 0 10.8088C 0 4.84853 4.33816 -3.65721e-15 9.67105 -3.65721e-15C 11.4763 -3.65721e-15 13.3939 0.755588 15.0703 2.12882C 16.0503 2.93176 16.8847 3.89941 17.5 4.92676C 18.1153 3.89941 18.9497 2.93176 19.9297 2.12882C 21.6061 0.755588 23.5237 -3.65721e-15 25.3289 -3.65721e-15C 30.6618 -3.65721e-15 35 4.84853 35 10.8088C 35 13.9403 34.0808 17.1685 32.27 20.4029C 30.8497 22.9394 28.8768 25.4882 26.4084 27.9794C 22.2342 32.1918 18.1226 34.7632 17.9495 34.8703C 17.8095 34.9568 17.6566 35 17.5018 35L 17.5 35ZM 9.67105 2.05882C 5.355 2.05882 1.84211 5.985 1.84211 10.8088C 1.84211 17.0676 6.17105 22.7541 9.80184 26.425C 13.0439 29.7026 16.3303 32.0003 17.5 32.7806C 18.6697 32.0003 21.9561 29.7026 25.1982 26.425C 28.8289 22.7562 33.1579 17.0676 33.1579 10.8088C 33.1579 5.985 29.645 2.05882 25.3289 2.05882C 22.1918 2.05882 19.145 4.94324 18.3732 7.53118C 18.2479 7.95118 17.8961 8.23529 17.5 8.23529C 17.1039 8.23529 16.7521 7.95118 16.6268 7.53118C 15.855 4.94324 12.8082 2.05882 9.67105 2.05882Z"/>
</defs>
</svg>
