<svg width="55" height="55" viewBox="0 0 55 55" version="1.1" xmlns="http://www.w3.org/2000/svg" xmlns:xlink="http://www.w3.org/1999/xlink">
<title>lnr-heart</title>
<desc>Created using Figma</desc>
<g id="Canvas" transform="translate(-2952 -1051)">
<g id="lnr-heart">
<g id="Ellipse 2">
<use xlink:href="#path0_fill" transform="translate(2952 1051)" fill="#FFFFFF"/>
</g>
<g id="Vector">
<use xlink:href="#path1_fill" transform="translate(2962 1061)" fill="#415A77"/>
<mask id="mask0_outline_out">
<rect id="mask0_outline_inv" fill="white" x="-1" y="-1" width="37" height="37" transform="translate(2962 1061)"/>
<use xlink:href="#path1_fill" fill="black" transform="translate(2962 1061)"/>
</mask>
<g mask="url(#mask0_outline_out)">
<use xlink:href="#path2_stroke_2x" transform="translate(2962 1061)" fill="#415A77"/>
</g>
</g>
</g>
</g>
<defs>
<path id="path0_fill" d="M 55 27.5C 55 42.6878 42.6878 55 27.5 55C 12.3122 55 0 42.6878 0 27.5C 0 12.3122 12.3122 0 27.5 0C 42.6878 0 55 12.3122 55 27.5Z"/>
<path id="path1_fill" d="M 17.5 35C 17.3453 35 17.1924 34.9568 17.0524 34.8703C 16.8792 34.7632 12.7676 32.1918 8.59342 27.9794C 6.12316 25.4882 4.15211 22.9394 2.73 20.4029C 0.917368 17.1685 0 13.9403 0 10.8088C 0 4.84853 4.33816 -3.65721e-15 9.67105 -3.65721e-15C 11.4763 -3.65721e-15 13.3939 0.755588 15.0703 2.12882C 16.0503 2.93176 16.8847 3.89941 17.5 4.92676C 18.1153 3.89941 18.9497 2.93176 19.9297 2.12882C 21.6061 0.755588 23.5237 -3.65721e-15 25.3289 -3.65721e-15C 30.6618 -3.65721e-15 35 4.84853 35 10.8088C 35 13.9403 34.0808 17.1685 32.27 20.4029C 30.8497 22.9394 28.8768 25.4882 26.4084 27.9794C 22.2342 32.1918 18.1226 34.7632 17.9495 34.8703C 17.8095 34.9568 17.6566 35 17.5018 35L 17.5 35ZM 9.67105 2.05882C 5.355 2.05882 1.84211 5.985 1.84211 10.8088C 1.84211 17.0676 6.17105 22.7541 9.80184 26.425C 13.0439 29.7026 16.3303 32.0003 17.5 32.7806C 18.6697 32.0003 21.9561 29.7026 25.1982 26.425C 28.8289 22.7562 33.1579 17.0676 33.1579 10.8088C 33.1579 5.985 29.645 2.05882 25.3289 2.05882C 22.1918 2.05882 19.145 4.94324 18.3732 7.53118C 18.2479 7.95118 17.8961 8.23529 17.5 8.23529C 17.1039 8.23529 16.7521 7.95118 16.6268 7.53118C 15.855 4.94324 12.8082 2.05882 9.67105 2.05882L 9.67105 2.05882Z"/>
<path id="path2_stroke_2x" d="M 17.0524 34.8703L 16.658 35.5082L 16.6582 35.5084L 17.0524 34.8703ZM 8.59342 27.9794L 9.12616 27.4515L 9.12598 27.4513L 8.59342 27.9794ZM 2.73 20.4029L 2.07574 20.7696L 2.07581 20.7697L 2.73 20.4029ZM 15.0703 2.12882L 15.5456 1.54868L 15.5455 1.54864L 15.0703 2.12882ZM 17.5 4.92676L 16.8566 5.31211L 17.5 6.3865L 18.1434 5.31211L 17.5 4.92676ZM 19.9297 2.12882L 19.4545 1.54864L 19.4544 1.54868L 19.9297 2.12882ZM 32.27 20.4029L 32.9244 20.7694L 32.9244 20.7693L 32.27 20.4029ZM 26.4084 27.9794L 26.9412 28.5073L 26.9412 28.5073L 26.4084 27.9794ZM 17.9495 34.8703L 18.3436 35.5084L 18.3439 35.5082L 17.9495 34.8703ZM 9.80184 26.425L 9.26861 26.9524L 9.26863 26.9524L 9.80184 26.425ZM 17.5 32.7806L 17.0838 33.4045L 17.5 33.6821L 17.9162 33.4045L 17.5 32.7806ZM 25.1982 26.425L 24.6651 25.8974L 24.6649 25.8976L 25.1982 26.425ZM 18.3732 7.53118L 19.0919 7.74553L 18.3732 7.53118ZM 16.6268 7.53118L 15.9081 7.74553L 16.6268 7.53118ZM 17.5 34.25C 17.4883 34.25 17.4714 34.2476 17.4465 34.2322L 16.6582 35.5084C 16.9134 35.666 17.2022 35.75 17.5 35.75L 17.5 34.25ZM 17.4468 34.2324C 17.2986 34.1407 13.242 31.605 9.12616 27.4515L 8.06068 28.5073C 12.2932 32.7786 16.4598 35.3857 16.658 35.5082L 17.4468 34.2324ZM 9.12598 27.4513C 6.69411 24.9989 4.76736 22.5032 3.38419 20.0362L 2.07581 20.7697C 3.53685 23.3757 5.55221 25.9776 8.06086 28.5075L 9.12598 27.4513ZM 3.38426 20.0363C 1.62297 16.8935 0.75 13.7904 0.75 10.8088L -0.75 10.8088C -0.75 14.0902 0.211769 17.4436 2.07574 20.7696L 3.38426 20.0363ZM 0.75 10.8088C 0.75 5.18212 4.82864 0.75 9.67105 0.75L 9.67105 -0.75C 3.84768 -0.75 -0.75 4.51494 -0.75 10.8088L 0.75 10.8088ZM 9.67105 0.75C 11.2702 0.75 13.025 1.42284 14.595 2.709L 15.5455 1.54864C 13.7629 0.0883394 11.6824 -0.75 9.67105 -0.75L 9.67105 0.75ZM 14.5949 2.70897C 15.5098 3.45857 16.2868 4.3608 16.8566 5.31211L 18.1434 4.54142C 17.4826 3.43803 16.5907 2.40496 15.5456 1.54868L 14.5949 2.70897ZM 18.1434 5.31211C 18.7132 4.3608 19.4902 3.45857 20.4051 2.70897L 19.4544 1.54868C 18.4093 2.40496 17.5174 3.43803 16.8566 4.54142L 18.1434 5.31211ZM 20.405 2.709C 21.975 1.42284 23.7298 0.75 25.3289 0.75L 25.3289 -0.75C 23.3176 -0.75 21.2371 0.0883394 19.4545 1.54864L 20.405 2.709ZM 25.3289 0.75C 30.1714 0.75 34.25 5.18212 34.25 10.8088L 35.75 10.8088C 35.75 4.51494 31.1523 -0.75 25.3289 -0.75L 25.3289 0.75ZM 34.25 10.8088C 34.25 13.7902 33.3753 16.8933 31.6156 20.0366L 32.9244 20.7693C 34.7863 17.4437 35.75 14.0904 35.75 10.8088L 34.25 10.8088ZM 31.6156 20.0365C 30.2345 22.5031 28.306 24.9987 25.8757 27.4515L 26.9412 28.5073C 29.4476 25.9777 31.465 23.3757 32.9244 20.7694L 31.6156 20.0365ZM 25.8757 27.4515C 21.7598 31.605 17.7033 34.1407 17.5551 34.2324L 18.3439 35.5082C 18.542 35.3857 22.7086 32.7786 26.9412 28.5073L 25.8757 27.4515ZM 17.5554 34.2322C 17.5305 34.2476 17.5135 34.25 17.5018 34.25L 17.5018 35.75C 17.7997 35.75 18.0885 35.666 18.3436 35.5084L 17.5554 34.2322ZM 17.5018 34.25L 17.5 34.25L 17.5 35.75L 17.5018 35.75L 17.5018 34.25ZM 9.67105 1.30882C 4.86452 1.30882 1.09211 5.65141 1.09211 10.8088L 2.59211 10.8088C 2.59211 6.31859 5.84548 2.80882 9.67105 2.80882L 9.67105 1.30882ZM 1.09211 10.8088C 1.09211 17.3855 5.61638 23.2599 9.26861 26.9524L 10.3351 25.8976C 6.72573 22.2484 2.59211 16.7498 2.59211 10.8088L 1.09211 10.8088ZM 9.26863 26.9524C 12.5604 30.2803 15.8926 32.6099 17.0838 33.4045L 17.9162 32.1567C 16.7679 31.3907 13.5275 29.125 10.3351 25.8976L 9.26863 26.9524ZM 17.9162 33.4045C 19.1074 32.6099 22.4396 30.2803 25.7314 26.9524L 24.6649 25.8976C 21.4725 29.125 18.2321 31.3907 17.0838 32.1567L 17.9162 33.4045ZM 25.7312 26.9526C 29.3837 23.2618 33.9079 17.3854 33.9079 10.8088L 32.4079 10.8088C 32.4079 16.7499 28.2742 22.2505 24.6651 25.8974L 25.7312 26.9526ZM 33.9079 10.8088C 33.9079 5.65141 30.1355 1.30882 25.3289 1.30882L 25.3289 2.80882C 29.1545 2.80882 32.4079 6.31859 32.4079 10.8088L 33.9079 10.8088ZM 25.3289 1.30882C 23.5349 1.30882 21.8246 2.12829 20.4832 3.24896C 19.1429 4.36873 18.0903 5.85543 17.6544 7.31682L 19.0919 7.74553C 19.4279 6.61898 20.2846 5.36951 21.4449 4.40009C 22.6042 3.43156 23.9859 2.80882 25.3289 2.80882L 25.3289 1.30882ZM 17.6544 7.31682C 17.6099 7.46601 17.5178 7.48529 17.5 7.48529L 17.5 8.98529C 18.2743 8.98529 18.8858 8.43634 19.0919 7.74553L 17.6544 7.31682ZM 17.5 7.48529C 17.4822 7.48529 17.3901 7.46601 17.3456 7.31682L 15.9081 7.74553C 16.1142 8.43634 16.7257 8.98529 17.5 8.98529L 17.5 7.48529ZM 17.3456 7.31682C 16.9097 5.85543 15.8571 4.36873 14.5168 3.24896C 13.1754 2.12829 11.4651 1.30882 9.67105 1.30882L 9.67105 2.80882C 11.0141 2.80882 12.3958 3.43156 13.5551 4.40009C 14.7154 5.36951 15.5721 6.61898 15.9081 7.74553L 17.3456 7.31682Z"/>
</defs>
</svg>
