<svg width="55" height="55" viewBox="0 0 55 55" version="1.1" xmlns="http://www.w3.org/2000/svg" xmlns:xlink="http://www.w3.org/1999/xlink">
<title>lnr-diamond</title>
<desc>Created using Figma</desc>
<g id="Canvas" transform="translate(-3106 -1051)">
<g id="lnr-diamond">
<g id="Ellipse 2.4">
<use xlink:href="#path0_fill" transform="translate(3106 1051)" fill="#FFFFFF"/>
</g>
<g id="Vector">
<use xlink:href="#path1_fill" transform="translate(3116 1061)" fill="#415A77"/>
<mask id="mask0_outline_out">
<rect id="mask0_outline_inv" fill="white" x="-1" y="-1" width="37" height="37" transform="translate(3116 1061)"/>
<use xlink:href="#path1_fill" fill="black" transform="translate(3116 1061)"/>
</mask>
<g mask="url(#mask0_outline_out)">
<use xlink:href="#path2_stroke_2x" transform="translate(3116 1061)" fill="#415A77"/>
</g>
</g>
</g>
</g>
<defs>
<path id="path0_fill" d="M 55 27.5C 55 42.6878 42.6878 55 27.5 55C 12.3122 55 0 42.6878 0 27.5C 0 12.3122 12.3122 0 27.5 0C 42.6878 0 55 12.3122 55 27.5Z"/>
<path id="path1_fill" d="M 34.8149 11.3746L 29.2886 2.62449C 29.1468 2.39918 28.9368 2.24824 28.7029 2.2023L 17.6504 0.0147658C 17.5509 -0.00492202 17.4477 -0.00492202 17.3483 0.0147658L 6.29577 2.2023C 6.06182 2.24824 5.85183 2.39918 5.70999 2.62449L 0.183741 11.3746C -0.0796767 11.7924 -0.0575717 12.3743 0.235319 12.7615L 16.8141 34.6369C 16.9891 34.8666 17.2377 35 17.4993 35C 17.7609 35 18.0096 34.8687 18.1846 34.6369L 34.7633 12.7615C 35.058 12.3721 35.0801 11.7924 34.8149 11.3746L 34.8149 11.3746ZM 23.5524 10.9371L 17.4993 30.7059L 11.4462 10.9371L 23.5524 10.9371L 23.5524 10.9371ZM 12.3544 8.74959L 17.4993 2.63981L 22.6442 8.74959L 12.3544 8.74959L 12.3544 8.74959ZM 20.1832 2.73387L 26.9952 4.08139L 24.724 8.12614L 20.1814 2.73387L 20.1832 2.73387ZM 10.2747 8.12614L 8.00338 4.08139L 14.8154 2.73387L 10.2747 8.12614L 10.2747 8.12614ZM 8.60206 9.09085L 3.10344 10.3968L 6.40261 5.17297L 8.60206 9.09085L 8.60206 9.09085ZM 9.53599 11.1012L 15.0143 28.993L 2.68713 12.7265L 9.53599 11.099L 9.53599 11.1012ZM 25.4626 11.1012L 32.3115 12.7287L 19.9843 28.9952L 25.4626 11.1034L 25.4626 11.1012ZM 26.3966 9.09085L 28.596 5.17297L 31.8952 10.3968L 26.3966 9.09085L 26.3966 9.09085Z"/>
<path id="path2_stroke_2x" d="M 29.2886 2.62449L 29.0771 2.75768L 29.0773 2.75799L 29.2886 2.62449ZM 28.7029 2.2023L 28.6543 2.44754L 28.6547 2.44762L 28.7029 2.2023ZM 17.6504 0.0147658L 17.6989 -0.230477L 17.6504 0.0147658ZM 17.3483 0.0147658L 17.2997 -0.230477L 17.3483 0.0147658ZM 6.29577 2.2023L 6.34394 2.44762L 6.34431 2.44754L 6.29577 2.2023ZM 5.70999 2.62449L 5.92136 2.75799L 5.92156 2.75768L 5.70999 2.62449ZM 0.183741 11.3746L -0.027633 11.2411L -0.0277381 11.2413L 0.183741 11.3746ZM 0.235319 12.7615L 0.0359379 12.9123L 0.0360749 12.9125L 0.235319 12.7615ZM 16.8141 34.6369L 16.6148 34.7879L 16.6152 34.7884L 16.8141 34.6369ZM 18.1846 34.6369L 17.9853 34.4859L 17.985 34.4863L 18.1846 34.6369ZM 34.7633 12.7615L 34.9625 12.9125L 34.9626 12.9124L 34.7633 12.7615ZM 17.4993 30.7059L 17.2603 30.7791L 17.4993 31.5598L 17.7384 30.7791L 17.4993 30.7059ZM 11.4462 10.9371L 11.4462 10.6871L 11.1082 10.6871L 11.2072 11.0103L 11.4462 10.9371ZM 17.4993 2.63981L 17.6905 2.47878L 17.4993 2.25168L 17.3081 2.47878L 17.4993 2.63981ZM 22.6442 8.74959L 22.6442 8.99959L 23.1816 8.99959L 22.8355 8.58856L 22.6442 8.74959ZM 20.1832 2.73387L 20.2317 2.48862L 20.2077 2.48387L 20.1832 2.48387L 20.1832 2.73387ZM 26.9952 4.08139L 27.2132 4.2038L 27.3821 3.90307L 27.0438 3.83614L 26.9952 4.08139ZM 24.724 8.12614L 24.5328 8.28721L 24.7653 8.5632L 24.9419 8.24855L 24.724 8.12614ZM 20.1814 2.73387L 20.1814 2.48387L 19.6439 2.48387L 19.9902 2.89494L 20.1814 2.73387ZM 8.00338 4.08139L 7.95486 3.83614L 7.61653 3.90307L 7.7854 4.2038L 8.00338 4.08139ZM 14.8154 2.73387L 15.0066 2.8949L 15.465 2.35052L 14.7669 2.48862L 14.8154 2.73387ZM 3.10344 10.3968L 2.89207 10.2633L 2.56466 10.7817L 3.16121 10.64L 3.10344 10.3968ZM 6.40261 5.17297L 6.62061 5.05059L 6.41525 4.68478L 6.19124 5.03948L 6.40261 5.17297ZM 9.53599 11.1012L 9.28599 11.1012L 9.28599 11.1386L 9.29695 11.1744L 9.53599 11.1012ZM 15.0143 28.993L 14.8151 29.144L 15.2534 28.9198L 15.0143 28.993ZM 2.68713 12.7265L 2.62933 12.4833L 2.25631 12.5719L 2.48788 12.8775L 2.68713 12.7265ZM 9.53599 11.099L 9.78599 11.099L 9.78599 10.7826L 9.47819 10.8558L 9.53599 11.099ZM 25.4626 11.1012L 25.5204 10.858L 25.2126 10.7848L 25.2126 11.1012L 25.4626 11.1012ZM 32.3115 12.7287L 32.5107 12.8797L 32.7423 12.5741L 32.3693 12.4855L 32.3115 12.7287ZM 19.9843 28.9952L 19.7452 28.922L 20.1835 29.1462L 19.9843 28.9952ZM 25.4626 11.1034L 25.7017 11.1766L 25.7126 11.1408L 25.7126 11.1034L 25.4626 11.1034ZM 28.596 5.17297L 28.8074 5.03948L 28.5834 4.68478L 28.378 5.05059L 28.596 5.17297ZM 31.8952 10.3968L 31.8374 10.64L 32.434 10.7817L 32.1066 10.2633L 31.8952 10.3968ZM 35.0263 11.2411L 29.5 2.491L 29.0773 2.75799L 34.6035 11.5081L 35.0263 11.2411ZM 29.5002 2.49131C 29.3262 2.21487 29.0604 2.01774 28.751 1.95698L 28.6547 2.44762C 28.8132 2.47873 28.9674 2.58348 29.0771 2.75768L 29.5002 2.49131ZM 28.7514 1.95706L 17.6989 -0.230477L 17.6018 0.260008L 28.6543 2.44754L 28.7514 1.95706ZM 17.6989 -0.230477C 17.5674 -0.256508 17.4312 -0.256508 17.2997 -0.230477L 17.3968 0.260008C 17.4642 0.246664 17.5344 0.246664 17.6018 0.260008L 17.6989 -0.230477ZM 17.2997 -0.230477L 6.24723 1.95706L 6.34431 2.44754L 17.3968 0.260008L 17.2997 -0.230477ZM 6.2476 1.95698C 5.93818 2.01774 5.67244 2.21487 5.49842 2.49131L 5.92156 2.75768C 6.03122 2.58348 6.18547 2.47873 6.34394 2.44762L 6.2476 1.95698ZM 5.49861 2.491L -0.0276329 11.2411L 0.395115 11.5081L 5.92136 2.75799L 5.49861 2.491ZM -0.0277381 11.2413C -0.345525 11.7454 -0.32097 12.4405 0.0359379 12.9123L 0.434701 12.6107C 0.205826 12.3081 0.186172 11.8395 0.39522 11.508L -0.0277381 11.2413ZM 0.0360749 12.9125L 16.6148 34.7879L 17.0133 34.4859L 0.434564 12.6105L 0.0360749 12.9125ZM 16.6152 34.7884C 16.8308 35.0714 17.1493 35.25 17.4993 35.25L 17.4993 34.75C 17.3262 34.75 17.1473 34.6618 17.0129 34.4854L 16.6152 34.7884ZM 17.4993 35.25C 17.8483 35.25 18.1676 35.0744 18.3841 34.7875L 17.985 34.4863C 17.8516 34.6631 17.6735 34.75 17.4993 34.75L 17.4993 35.25ZM 18.3838 34.7879L 34.9625 12.9125L 34.5641 12.6105L 17.9853 34.4859L 18.3838 34.7879ZM 34.9626 12.9124C 35.3213 12.4386 35.3463 11.7453 35.0259 11.2406L 34.6038 11.5086C 34.814 11.8396 34.7948 12.3057 34.564 12.6106L 34.9626 12.9124ZM 23.3133 10.8639L 17.2603 30.6327L 17.7384 30.7791L 23.7914 11.0103L 23.3133 10.8639ZM 17.7384 30.6327L 11.6853 10.8639L 11.2072 11.0103L 17.2603 30.7791L 17.7384 30.6327ZM 11.4462 11.1871L 23.5524 11.1871L 23.5524 10.6871L 11.4462 10.6871L 11.4462 11.1871ZM 12.5456 8.91062L 17.6905 2.80084L 17.3081 2.47878L 12.1631 8.58856L 12.5456 8.91062ZM 17.3081 2.80084L 22.453 8.91062L 22.8355 8.58856L 17.6905 2.47878L 17.3081 2.80084ZM 22.6442 8.49959L 12.3544 8.49959L 12.3544 8.99959L 22.6442 8.99959L 22.6442 8.49959ZM 20.1347 2.97912L 26.9467 4.32664L 27.0438 3.83614L 20.2317 2.48862L 20.1347 2.97912ZM 26.7773 3.95899L 24.506 8.00374L 24.9419 8.24855L 27.2132 4.2038L 26.7773 3.95899ZM 24.9152 7.96507L 20.3726 2.5728L 19.9902 2.89494L 24.5328 8.28721L 24.9152 7.96507ZM 20.1814 2.98387L 20.1832 2.98387L 20.1832 2.48387L 20.1814 2.48387L 20.1814 2.98387ZM 10.4926 8.00374L 8.22136 3.95899L 7.7854 4.2038L 10.0567 8.24855L 10.4926 8.00374ZM 8.05189 4.32664L 14.8639 2.97912L 14.7669 2.48862L 7.95486 3.83614L 8.05189 4.32664ZM 14.6242 2.57284L 10.0834 7.96511L 10.4659 8.28717L 15.0066 2.8949L 14.6242 2.57284ZM 8.54429 8.84761L 3.04567 10.1536L 3.16121 10.64L 8.65983 9.33408L 8.54429 8.84761ZM 3.31481 10.5303L 6.61398 5.30647L 6.19124 5.03948L 2.89207 10.2633L 3.31481 10.5303ZM 6.18461 5.29535L 8.38406 9.21323L 8.82005 8.96846L 6.62061 5.05059L 6.18461 5.29535ZM 9.29695 11.1744L 14.7753 29.0662L 15.2534 28.9198L 9.77504 11.028L 9.29695 11.1744ZM 15.2136 28.842L 2.88638 12.5755L 2.48788 12.8775L 14.8151 29.144L 15.2136 28.842ZM 2.74493 12.9698L 9.59379 11.3422L 9.47819 10.8558L 2.62933 12.4833L 2.74493 12.9698ZM 9.28599 11.099L 9.28599 11.1012L 9.78599 11.1012L 9.78599 11.099L 9.28599 11.099ZM 25.4048 11.3444L 32.2537 12.9719L 32.3693 12.4855L 25.5204 10.858L 25.4048 11.3444ZM 32.1122 12.5777L 19.785 28.8442L 20.1835 29.1462L 32.5107 12.8797L 32.1122 12.5777ZM 20.2233 29.0684L 25.7017 11.1766L 25.2236 11.0302L 19.7452 28.922L 20.2233 29.0684ZM 25.7126 11.1034L 25.7126 11.1012L 25.2126 11.1012L 25.2126 11.1034L 25.7126 11.1034ZM 26.6146 9.21323L 28.814 5.29535L 28.378 5.05059L 26.1786 8.96846L 26.6146 9.21323ZM 28.3846 5.30647L 31.6838 10.5303L 32.1066 10.2633L 28.8074 5.03948L 28.3846 5.30647ZM 31.953 10.1536L 26.4543 8.84761L 26.3388 9.33408L 31.8374 10.64L 31.953 10.1536Z"/>
</defs>
</svg>
