<svg width="55" height="55" viewBox="0 0 55 55" version="1.1" xmlns="http://www.w3.org/2000/svg" xmlns:xlink="http://www.w3.org/1999/xlink">
<title>lnr-thumbs-up</title>
<desc>Created using Figma</desc>
<g id="Canvas" transform="translate(-3029 -1051)">
<g id="lnr-thumbs-up">
<g id="Ellipse 2.1">
<use xlink:href="#path0_fill" transform="translate(3029 1051)" fill="#FFFFFF"/>
</g>
<g id="Vector">
<use xlink:href="#path1_fill" transform="translate(3039 1061)" fill="#00FF94"/>
</g>
</g>
</g>
<defs>
<path id="path0_fill" d="M 55 27.5C 55 42.6878 42.6878 55 27.5 55C 12.3122 55 0 42.6878 0 27.5C 0 12.3122 12.3122 0 27.5 0C 42.6878 0 55 12.3122 55 27.5Z"/>
<path id="path1_fill" d="M 33.7595 19.613C 34.5502 18.7188 35 17.2419 35 15.835C 35 14.9058 34.7947 14.092 34.4056 13.4813C 33.8987 12.6869 33.0884 12.2494 32.1245 12.2494L 27.4517 12.2494C 29.9952 7.71536 30.6377 4.29954 29.3615 2.08765C 28.4709 0.545973 26.8395 0 25.7114 0C 25.2652 0 24.8868 0.323734 24.8279 0.757712C 24.5084 3.06585 22.7074 5.82021 19.8873 8.31383C 17.185 10.7025 13.8651 12.6116 10.4523 13.7561C 10.0222 12.8671 9.09939 12.2511 8.03203 12.2511L 2.67734 12.2511C 1.20123 12.2511 1.69552e-10 13.4288 1.69552e-10 14.876L 1.69552e-10 30.6252C 1.69552e-10 32.0724 1.20123 33.2501 2.67734 33.2501L 8.03203 33.2501C 9.16365 33.2501 10.1311 32.5589 10.5237 31.5842C 14.0239 32.0146 15.3412 32.7041 16.6174 33.3726C 18.2149 34.209 19.7213 35 24.6548 35C 25.9399 35 27.15 34.671 28.0639 34.0743C 28.9563 33.4916 29.5275 32.6726 29.7167 31.7242C 30.4289 31.4407 31.0607 30.7862 31.5444 29.8133C 32.0157 28.8666 32.3209 27.6574 32.3209 26.7317C 32.3209 26.5584 32.3102 26.3992 32.2905 26.2522C 32.7421 25.9267 33.1473 25.4245 33.4811 24.763C 33.963 23.8093 34.2521 22.6141 34.2521 21.5677C 34.2521 20.8257 34.1111 20.208 33.8345 19.7285C 33.8113 19.69 33.7881 19.6515 33.7649 19.6148L 33.7595 19.613ZM 8.02846 31.4984L 2.67377 31.4984C 2.18114 31.4984 1.78133 31.1064 1.78133 30.6235L 1.78133 14.8743C 1.78133 14.3913 2.18114 13.9993 2.67377 13.9993L 8.02846 13.9993C 8.52109 13.9993 8.9209 14.3913 8.9209 14.8743L 8.9209 30.6217L 8.9209 30.6235C 8.9209 31.1064 8.52109 31.4984 8.02846 31.4984L 8.02846 31.4984ZM 32.7296 17.9786C 32.4601 18.5106 32.187 18.7031 32.0692 18.7031C 31.5766 18.7031 31.1768 19.095 31.1768 19.578C 31.1768 20.061 31.5766 20.453 32.0692 20.453C 32.1442 20.453 32.1977 20.453 32.278 20.5895C 32.3958 20.7942 32.4637 21.1494 32.4637 21.5659C 32.4637 22.3446 32.2388 23.2703 31.8782 23.9843C 31.5248 24.6825 31.166 24.9363 31.009 24.9363C 30.5163 24.9363 30.1165 25.3282 30.1165 25.8112C 30.1165 26.1209 30.2807 26.3939 30.5288 26.5497C 30.5842 27.1044 30.32 28.5883 29.6346 29.556C 29.3758 29.9218 29.1027 30.1317 28.8885 30.1317C 28.3959 30.1317 27.9961 30.5237 27.9961 31.0067C 27.9961 32.5466 26.2612 33.2483 24.6494 33.2483C 20.164 33.2483 18.9074 32.5904 17.4527 31.8274C 16.0926 31.1152 14.5647 30.3137 10.704 29.843L 10.704 15.5165C 14.4541 14.3108 18.1149 12.2319 21.0778 9.61402C 23.9212 7.10115 25.7882 4.38528 26.4218 1.86891C 26.9073 2.02115 27.4553 2.34313 27.8069 2.95035C 28.403 3.9828 28.8493 6.61817 25.142 12.6746C 24.976 12.9441 24.9725 13.2818 25.1313 13.5566C 25.2902 13.8313 25.5865 14.0011 25.9077 14.0011L 32.1245 14.0011C 32.4797 14.0011 32.7082 14.1235 32.892 14.4105C 33.1009 14.7378 33.2151 15.2452 33.2151 15.8367C 33.2151 16.5787 33.033 17.3801 32.7296 17.9804L 32.7296 17.9786Z"/>
</defs>
</svg>
