<svg width="56" height="55" viewBox="0 0 56 55" version="1.1" xmlns="http://www.w3.org/2000/svg" xmlns:xlink="http://www.w3.org/1999/xlink">
<title>lnr-diamond</title>
<desc>Created using Figma</desc>
<g id="Canvas" transform="translate(-3067 -1052)">
<g id="lnr-diamond">
<g id="Ellipse 2.6">
<use xlink:href="#path0_fill" transform="translate(3067.68 1052)" fill="#FFFFFF"/>
<use xlink:href="#path0_fill" transform="translate(3067.68 1052)" fill="url(#paint1_linear)"/>
</g>
<g id="Vector" filter="url(#filter0_d)">
<use xlink:href="#path1_fill" transform="translate(3077.68 1062)" fill="#9B51E0"/>
<use xlink:href="#path2_stroke" transform="translate(3077.68 1062)" fill="#9B51E0"/>
</g>
</g>
</g>
<defs>
<filter id="filter0_d" filterUnits="userSpaceOnUse" x="3073" y="1061" width="44" height="45" color-interpolation-filters="sRGB">
<feFlood flood-opacity="0" result="BackgroundImageFix"/>
<feColorMatrix in="SourceAlpha" type="matrix" values="0 0 0 0 0 0 0 0 0 0 0 0 0 0 0 0 0 0 255 0"/>
<feOffset dx="0" dy="4"/>
<feGaussianBlur stdDeviation="2"/>
<feColorMatrix type="matrix" values="0 0 0 0 0 0 0 0 0 0 0 0 0 0 0 0 0 0 0.25 0"/>
<feBlend mode="normal" in2="BackgroundImageFix" result="effect1_dropShadow"/>
<feBlend mode="normal" in="SourceGraphic" in2="effect1_dropShadow" result="shape"/>
</filter>
<linearGradient id="paint1_linear" x1="0" y1="0" x2="1" y2="0" gradientUnits="userSpaceOnUse" gradientTransform="matrix(-1.5691e-06 -76.5 76.5 -1.5691e-06 -10.25 55)">
<stop offset="0" stop-color="#FFFFFF"/>
<stop offset="1" stop-color="#FFFFFF" stop-opacity="0"/>
</linearGradient>
<path id="path0_fill" d="M 55 27.5C 55 42.6878 42.6878 55 27.5 55C 12.3122 55 0 42.6878 0 27.5C 0 12.3122 12.3122 0 27.5 0C 42.6878 0 55 12.3122 55 27.5Z"/>
<path id="path1_fill" d="M 34.8149 11.3746L 29.2886 2.62449C 29.1468 2.39918 28.9368 2.24824 28.7029 2.2023L 17.6504 0.0147658C 17.5509 -0.00492202 17.4477 -0.00492202 17.3483 0.0147658L 6.29577 2.2023C 6.06182 2.24824 5.85183 2.39918 5.70999 2.62449L 0.183741 11.3746C -0.0796767 11.7924 -0.0575717 12.3743 0.235319 12.7615L 16.8141 34.6369C 16.9891 34.8666 17.2377 35 17.4993 35C 17.7609 35 18.0096 34.8687 18.1846 34.6369L 34.7633 12.7615C 35.058 12.3721 35.0801 11.7924 34.8149 11.3746L 34.8149 11.3746ZM 23.5524 10.9371L 17.4993 30.7059L 11.4462 10.9371L 23.5524 10.9371L 23.5524 10.9371ZM 12.3544 8.74959L 17.4993 2.63981L 22.6442 8.74959L 12.3544 8.74959L 12.3544 8.74959ZM 20.1832 2.73387L 26.9952 4.08139L 24.724 8.12614L 20.1814 2.73387L 20.1832 2.73387ZM 10.2747 8.12614L 8.00338 4.08139L 14.8154 2.73387L 10.2747 8.12614L 10.2747 8.12614ZM 8.60205 9.09085L 3.10344 10.3968L 6.40261 5.17297L 8.60205 9.09085L 8.60205 9.09085ZM 9.53599 11.1012L 15.0143 28.993L 2.68713 12.7265L 9.53599 11.099L 9.53599 11.1012ZM 25.4626 11.1012L 32.3115 12.7287L 19.9843 28.9952L 25.4626 11.1034L 25.4626 11.1012ZM 26.3966 9.09085L 28.596 5.17297L 31.8952 10.3968L 26.3966 9.09085L 26.3966 9.09085Z"/>
<path id="path2_stroke" d="M 29.2886 2.62449L 29.1828 2.69109L 29.1829 2.69124L 29.2886 2.62449ZM 28.7029 2.2023L 28.6786 2.32492L 28.6788 2.32496L 28.7029 2.2023ZM 17.6504 0.0147658L 17.6746 -0.107856L 17.6746 -0.107856L 17.6504 0.0147658ZM 17.3483 0.0147658L 17.324 -0.107856L 17.3483 0.0147658ZM 6.29577 2.2023L 6.31985 2.32496L 6.32004 2.32492L 6.29577 2.2023ZM 5.70999 2.62449L 5.81567 2.69124L 5.81577 2.69109L 5.70999 2.62449ZM 0.183741 11.3746L 0.078054 11.3079L 0.0780015 11.308L 0.183741 11.3746ZM 0.235319 12.7615L 0.135629 12.8369L 0.135697 12.837L 0.235319 12.7615ZM 16.8141 34.6369L 16.7144 34.7124L 16.7146 34.7126L 16.8141 34.6369ZM 18.1846 34.6369L 18.0849 34.5614L 18.0848 34.5616L 18.1846 34.6369ZM 34.7633 12.7615L 34.8629 12.837L 34.863 12.837L 34.7633 12.7615ZM 17.4993 30.7059L 17.3798 30.7425L 17.4993 31.1328L 17.6188 30.7425L 17.4993 30.7059ZM 11.4462 10.9371L 11.4462 10.8121L 11.2772 10.8121L 11.3267 10.9737L 11.4462 10.9371ZM 17.4993 2.63981L 17.5949 2.55929L 17.4993 2.44575L 17.4037 2.55929L 17.4993 2.63981ZM 22.6442 8.74959L 22.6442 8.87459L 22.9129 8.87459L 22.7399 8.66907L 22.6442 8.74959ZM 20.1832 2.73387L 20.2075 2.61125L 20.1955 2.60887L 20.1832 2.60887L 20.1832 2.73387ZM 26.9952 4.08139L 27.1042 4.14259L 27.1887 3.99223L 27.0195 3.95877L 26.9952 4.08139ZM 24.724 8.12614L 24.6284 8.20668L 24.7446 8.34467L 24.8329 8.18735L 24.724 8.12614ZM 20.1814 2.73387L 20.1814 2.60887L 19.9126 2.60887L 20.0858 2.81441L 20.1814 2.73387ZM 8.00338 4.08139L 7.97912 3.95877L 7.80995 3.99223L 7.89439 4.14259L 8.00338 4.08139ZM 14.8154 2.73387L 14.911 2.81439L 15.1402 2.54219L 14.7911 2.61125L 14.8154 2.73387ZM 3.10344 10.3968L 2.99775 10.3301L 2.83405 10.5893L 3.13233 10.5184L 3.10344 10.3968ZM 6.40261 5.17297L 6.51161 5.11178L 6.40893 4.92888L 6.29692 5.10622L 6.40261 5.17297ZM 9.53599 11.1012L 9.41099 11.1012L 9.41099 11.1199L 9.41647 11.1378L 9.53599 11.1012ZM 15.0143 28.993L 14.9147 29.0685L 15.1339 28.9564L 15.0143 28.993ZM 2.68713 12.7265L 2.65823 12.6049L 2.47172 12.6492L 2.58751 12.802L 2.68713 12.7265ZM 9.53599 11.099L 9.66099 11.099L 9.66099 10.9408L 9.50709 10.9774L 9.53599 11.099ZM 25.4626 11.1012L 25.4915 10.9796L 25.3376 10.943L 25.3376 11.1012L 25.4626 11.1012ZM 32.3115 12.7287L 32.4111 12.8042L 32.5269 12.6514L 32.3404 12.6071L 32.3115 12.7287ZM 19.9843 28.9952L 19.8648 28.9586L 20.0839 29.0707L 19.9843 28.9952ZM 25.4626 11.1034L 25.5822 11.14L 25.5876 11.1221L 25.5876 11.1034L 25.4626 11.1034ZM 28.596 5.17297L 28.7017 5.10622L 28.5897 4.92888L 28.487 5.11178L 28.596 5.17297ZM 31.8952 10.3968L 31.8663 10.5184L 32.1646 10.5893L 32.0009 10.3301L 31.8952 10.3968ZM 34.9206 11.3079L 29.3943 2.55775L 29.1829 2.69124L 34.7092 11.4414L 34.9206 11.3079ZM 29.3944 2.5579C 29.2365 2.30703 28.9986 2.13299 28.7269 2.07964L 28.6788 2.32496C 28.875 2.36349 29.0571 2.49133 29.1828 2.69109L 29.3944 2.5579ZM 28.7271 2.07968L 17.6746 -0.107856L 17.6261 0.137387L 28.6786 2.32492L 28.7271 2.07968ZM 17.6746 -0.107856C 17.5591 -0.130715 17.4395 -0.130715 17.324 -0.107856L 17.3725 0.137387C 17.456 0.120871 17.5426 0.120871 17.6261 0.137387L 17.6746 -0.107856ZM 17.324 -0.107856L 6.2715 2.07968L 6.32004 2.32492L 17.3725 0.137387L 17.324 -0.107856ZM 6.27168 2.07964C 6 2.13299 5.76213 2.30703 5.6042 2.5579L 5.81577 2.69109C 5.94152 2.49133 6.12365 2.36349 6.31985 2.32496L 6.27168 2.07964ZM 5.6043 2.55775L 0.0780541 11.3079L 0.289428 11.4414L 5.81567 2.69124L 5.6043 2.55775ZM 0.0780015 11.308C -0.212601 11.7689 -0.189271 12.4074 0.135629 12.8369L 0.33501 12.6861C 0.0741274 12.3412 0.0532477 11.816 0.289481 11.4413L 0.0780015 11.308ZM 0.135697 12.837L 16.7144 34.7124L 16.9137 34.5614L 0.334942 12.686L 0.135697 12.837ZM 16.7146 34.7126C 16.9099 34.969 17.1935 35.125 17.4993 35.125L 17.4993 34.875C 17.2819 34.875 17.0682 34.7642 16.9135 34.5611L 16.7146 34.7126ZM 17.4993 35.125C 17.8046 35.125 18.0886 34.9716 18.2843 34.7122L 18.0848 34.5616C 17.9306 34.7659 17.7172 34.875 17.4993 34.875L 17.4993 35.125ZM 18.2842 34.7124L 34.8629 12.837L 34.6637 12.686L 18.0849 34.5614L 18.2842 34.7124ZM 34.863 12.837C 35.1896 12.4054 35.2132 11.7689 34.9204 11.3076L 34.7093 11.4416C 34.947 11.816 34.9264 12.3389 34.6636 12.6861L 34.863 12.837ZM 23.4329 10.9005L 17.3798 30.6693L 17.6188 30.7425L 23.6719 10.9737L 23.4329 10.9005ZM 17.6188 30.6693L 11.5658 10.9005L 11.3267 10.9737L 17.3798 30.7425L 17.6188 30.6693ZM 11.4462 11.0621L 23.5524 11.0621L 23.5524 10.8121L 11.4462 10.8121L 11.4462 11.0621ZM 12.45 8.83011L 17.5949 2.72032L 17.4037 2.55929L 12.2588 8.66907L 12.45 8.83011ZM 17.4037 2.72032L 22.5486 8.83011L 22.7399 8.66907L 17.5949 2.55929L 17.4037 2.72032ZM 22.6442 8.62459L 12.3544 8.62459L 12.3544 8.87459L 22.6442 8.87459L 22.6442 8.62459ZM 20.159 2.85649L 26.971 4.20402L 27.0195 3.95877L 20.2075 2.61125L 20.159 2.85649ZM 26.8862 4.02019L 24.615 8.06494L 24.8329 8.18735L 27.1042 4.14259L 26.8862 4.02019ZM 24.8196 8.04561L 20.277 2.65334L 20.0858 2.81441L 24.6284 8.20668L 24.8196 8.04561ZM 20.1814 2.85887L 20.1832 2.85887L 20.1832 2.60887L 20.1814 2.60887L 20.1814 2.85887ZM 10.3837 8.06494L 8.11237 4.02019L 7.89439 4.14259L 10.1657 8.18735L 10.3837 8.06494ZM 8.02763 4.20402L 14.8397 2.85649L 14.7911 2.61125L 7.97912 3.95877L 8.02763 4.20402ZM 14.7198 2.65336L 10.179 8.04563L 10.3703 8.20666L 14.911 2.81439L 14.7198 2.65336ZM 8.57317 8.96923L 3.07456 10.2752L 3.13233 10.5184L 8.63094 9.21246L 8.57317 8.96923ZM 3.20913 10.4636L 6.5083 5.23972L 6.29692 5.10622L 2.99775 10.3301L 3.20913 10.4636ZM 6.29361 5.23416L 8.49306 9.15204L 8.71105 9.02966L 6.51161 5.11178L 6.29361 5.23416ZM 9.41647 11.1378L 14.8948 29.0296L 15.1339 28.9564L 9.65551 11.0646L 9.41647 11.1378ZM 15.114 28.9175L 2.78675 12.651L 2.58751 12.802L 14.9147 29.0685L 15.114 28.9175ZM 2.71603 12.8481L 9.56489 11.2206L 9.50709 10.9774L 2.65823 12.6049L 2.71603 12.8481ZM 9.41099 11.099L 9.41099 11.1012L 9.66099 11.1012L 9.66099 11.099L 9.41099 11.099ZM 25.4337 11.2228L 32.2826 12.8503L 32.3404 12.6071L 25.4915 10.9796L 25.4337 11.2228ZM 32.2119 12.6532L 19.8847 28.9197L 20.0839 29.0707L 32.4111 12.8042L 32.2119 12.6532ZM 20.1038 29.0318L 25.5822 11.14L 25.3431 11.0668L 19.8648 28.9586L 20.1038 29.0318ZM 25.5876 11.1034L 25.5876 11.1012L 25.3376 11.1012L 25.3376 11.1034L 25.5876 11.1034ZM 26.5056 9.15204L 28.705 5.23416L 28.487 5.11178L 26.2876 9.02966L 26.5056 9.15204ZM 28.4903 5.23972L 31.7895 10.4636L 32.0009 10.3301L 28.7017 5.10622L 28.4903 5.23972ZM 31.9241 10.2752L 26.4254 8.96923L 26.3677 9.21246L 31.8663 10.5184L 31.9241 10.2752Z"/>
</defs>
</svg>
