<svg width="60" height="60" viewBox="0 0 60 60" fill="none" xmlns="http://www.w3.org/2000/svg">
<circle cx="30" cy="30" r="30" fill="url(#paint0_linear)"/>
<path d="M33.8751 16.375H20.7501C19.5397 16.375 18.5043 17.1042 18.0668 18.1542L13.6626 28.4354C13.5314 28.7708 13.4584 29.1208 13.4584 29.5V32.4167C13.4584 34.0208 14.7709 35.3333 16.3751 35.3333H25.5772L24.1918 41.9979L24.148 42.4646C24.148 43.0625 24.3959 43.6167 24.7897 44.0104L26.3355 45.5417L35.9459 35.9313C36.4709 35.4062 36.7918 34.6771 36.7918 33.875V19.2917C36.7918 17.6875 35.4793 16.375 33.8751 16.375ZM39.7084 16.375V33.875H45.5418V16.375H39.7084Z" fill="white"/>
<defs>
<linearGradient id="paint0_linear" x1="30" y1="0" x2="30" y2="60" gradientUnits="userSpaceOnUse">
<stop stop-color="#F6267D"/>
<stop offset="1" stop-color="#FFA654"/>
</linearGradient>
</defs>
</svg>
