<svg width="55" height="55" viewBox="0 0 55 55" version="1.1" xmlns="http://www.w3.org/2000/svg" xmlns:xlink="http://www.w3.org/1999/xlink">
<title>lnr-diamond</title>
<desc>Created using Figma</desc>
<g id="Canvas" transform="translate(-3106 -1051)">
<g id="lnr-diamond">
<g id="Ellipse 2.4">
<use xlink:href="#path0_fill" transform="translate(3106 1051)" fill="#FFFFFF"/>
</g>
<g id="Vector">
<use xlink:href="#path1_fill" transform="translate(3116 1061)" fill="#BB6BD9"/>
</g>
</g>
</g>
<defs>
<path id="path0_fill" d="M 55 27.5C 55 42.6878 42.6878 55 27.5 55C 12.3122 55 0 42.6878 0 27.5C 0 12.3122 12.3122 0 27.5 0C 42.6878 0 55 12.3122 55 27.5Z"/>
<path id="path1_fill" d="M 34.8149 11.3746L 29.2886 2.62449C 29.1468 2.39918 28.9368 2.24824 28.7029 2.2023L 17.6504 0.0147658C 17.5509 -0.00492202 17.4477 -0.00492202 17.3483 0.0147658L 6.29577 2.2023C 6.06182 2.24824 5.85183 2.39918 5.70999 2.62449L 0.183741 11.3746C -0.0796767 11.7924 -0.0575717 12.3743 0.235319 12.7615L 16.8141 34.6369C 16.9891 34.8666 17.2377 35 17.4993 35C 17.7609 35 18.0096 34.8687 18.1846 34.6369L 34.7633 12.7615C 35.058 12.3721 35.0801 11.7924 34.8149 11.3746ZM 23.5524 10.9371L 17.4993 30.7059L 11.4462 10.9371L 23.5524 10.9371ZM 12.3544 8.74959L 17.4993 2.63981L 22.6442 8.74959L 12.3544 8.74959ZM 20.1832 2.73387L 26.9952 4.08139L 24.724 8.12614L 20.1814 2.73387L 20.1832 2.73387ZM 10.2747 8.12614L 8.00338 4.08139L 14.8154 2.73387L 10.2747 8.12614ZM 8.60206 9.09085L 3.10344 10.3968L 6.40261 5.17297L 8.60206 9.09085ZM 9.53599 11.1012L 15.0143 28.993L 2.68713 12.7265L 9.53599 11.099L 9.53599 11.1012ZM 25.4626 11.1012L 32.3115 12.7287L 19.9843 28.9952L 25.4626 11.1034L 25.4626 11.1012ZM 26.3966 9.09085L 28.596 5.17297L 31.8952 10.3968L 26.3966 9.09085Z"/>
</defs>
</svg>
