<svg width="22" height="22" viewBox="0 0 22 22" version="1.1" xmlns="http://www.w3.org/2000/svg" xmlns:xlink="http://www.w3.org/1999/xlink">
<title>lnr-magnifier</title>
<desc>Created using Figma</desc>
<g id="Canvas" transform="translate(-4567 478)">
<g id="lnr-magnifier">
<g id="Vector">
<use xlink:href="#path0_fill" transform="translate(4568 -477)" fill="#FF5C00"/>
<mask id="mask0_outline_out">
<rect id="mask0_outline_inv" fill="white" x="-1" y="-1" width="23" height="22" transform="translate(4568 -477)"/>
<use xlink:href="#path0_fill" fill="black" transform="translate(4568 -477)"/>
</mask>
<g mask="url(#mask0_outline_out)">
<use xlink:href="#path1_stroke_2x" transform="translate(4568 -477)" fill="#FF5C00"/>
</g>
</g>
</g>
</g>
<defs>
<path id="path0_fill" d="M 19.8608 19.162L 13.6051 12.678C 15.0146 11.277 15.7893 9.445 15.7893 7.5C 15.7893 5.497 14.9683 3.613 13.4767 2.197C 11.9851 0.781 10.003 0 7.89465 0C 5.78625 0 3.80311 0.78 2.31261 2.197C 0.822096 3.614 4.99945e-11 5.497 4.99945e-11 7.5C 4.99945e-11 9.503 0.821043 11.387 2.31261 12.803C 3.80417 14.219 5.78625 15 7.89465 15C 9.71147 15 11.4336 14.421 12.8293 13.355L 19.085 19.838C 19.1893 19.946 19.3303 20 19.4735 20C 19.6008 20 19.7282 19.957 19.8293 19.869C 20.044 19.682 20.0577 19.366 19.8619 19.163L 19.8608 19.162ZM 1.05157 7.5C 1.05157 3.916 4.12101 1 7.8936 1C 11.6662 1 14.7356 3.916 14.7356 7.5C 14.7356 11.084 11.6662 14 7.8936 14C 4.12101 14 1.05157 11.084 1.05157 7.5Z"/>
<path id="path1_stroke_2x" d="M 19.8608 19.162L 19.1412 19.8563L 19.1566 19.8723L 19.1728 19.8877L 19.8608 19.162ZM 13.6051 12.678L 12.9001 11.9688L 12.2014 12.6633L 12.8854 13.3723L 13.6051 12.678ZM 12.8293 13.355L 13.5489 12.6606L 12.9303 12.0196L 12.2224 12.5603L 12.8293 13.355ZM 19.085 19.838L 19.8047 19.1436L 19.8047 19.1436L 19.085 19.838ZM 19.8293 19.869L 20.486 20.6231L 19.8293 19.869ZM 19.8619 19.163L 20.5817 18.4688L 20.5662 18.4527L 20.5499 18.4373L 19.8619 19.163ZM 20.5805 18.4677L 14.3248 11.9837L 12.8854 13.3723L 19.1412 19.8563L 20.5805 18.4677ZM 14.3101 13.3872C 15.903 11.8039 16.7893 9.71873 16.7893 7.5L 14.7893 7.5C 14.7893 9.17127 14.1261 10.7501 12.9001 11.9688L 14.3101 13.3872ZM 16.7893 7.5C 16.7893 5.21488 15.8498 3.07107 14.1652 1.47176L 12.7882 2.92224C 14.0867 4.15493 14.7893 5.77912 14.7893 7.5L 16.7893 7.5ZM 14.1652 1.47176C 12.483 -0.125212 10.2526 -1 7.89465 -1L 7.89465 1C 9.75353 1 11.4873 1.68721 12.7882 2.92224L 14.1652 1.47176ZM 7.89465 -1C 5.53724 -1 3.30532 -0.126532 1.6236 1.47225L 3.00161 2.92175C 4.30092 1.68653 6.03526 1 7.89465 1L 7.89465 -1ZM 1.6236 1.47225C -0.0591316 3.07199 -1 5.21437 -1 7.5L 1 7.5C 1 5.77963 1.70332 4.15601 3.00161 2.92175L 1.6236 1.47225ZM -1 7.5C -1 9.78512 -0.0605402 11.9289 1.62411 13.5282L 3.0011 12.0778C 1.70263 10.8451 1 9.22088 1 7.5L -1 7.5ZM 1.62411 13.5282C 3.3063 15.1252 5.53673 16 7.89465 16L 7.89465 14C 6.03577 14 4.30203 13.3128 3.0011 12.0778L 1.62411 13.5282ZM 7.89465 16C 9.92562 16 11.8621 15.352 13.4363 14.1497L 12.2224 12.5603C 11.005 13.49 9.49732 14 7.89465 14L 7.89465 16ZM 12.1097 14.0494L 18.3654 20.5324L 19.8047 19.1436L 13.5489 12.6606L 12.1097 14.0494ZM 18.3654 20.5324C 18.6722 20.8503 19.0799 21 19.4735 21L 19.4735 19C 19.5807 19 19.7063 19.0417 19.8047 19.1436L 18.3654 20.5324ZM 19.4735 21C 19.8241 21 20.1896 20.8812 20.486 20.6231L 19.1725 19.1149C 19.2668 19.0328 19.3776 19 19.4735 19L 19.4735 21ZM 20.486 20.6231C 21.1297 20.0626 21.1771 19.0862 20.5817 18.4688L 19.1421 19.8572C 18.9382 19.6458 18.9583 19.3014 19.1725 19.1149L 20.486 20.6231ZM 20.5499 18.4373L 20.5489 18.4363L 19.1728 19.8877L 19.1738 19.8887L 20.5499 18.4373ZM 2.05157 7.5C 2.05157 4.51599 4.62435 2 7.8936 2L 7.8936 0C 3.61766 0 0.0515671 3.31601 0.0515671 7.5L 2.05157 7.5ZM 7.8936 2C 11.1628 2 13.7356 4.51599 13.7356 7.5L 15.7356 7.5C 15.7356 3.31601 12.1695 0 7.8936 0L 7.8936 2ZM 13.7356 7.5C 13.7356 10.484 11.1628 13 7.8936 13L 7.8936 15C 12.1695 15 15.7356 11.684 15.7356 7.5L 13.7356 7.5ZM 7.8936 13C 4.62435 13 2.05157 10.484 2.05157 7.5L 0.0515671 7.5C 0.0515671 11.684 3.61766 15 7.8936 15L 7.8936 13Z"/>
</defs>
</svg>
