<svg width="45" height="45" viewBox="0 0 45 45" version="1.1" xmlns="http://www.w3.org/2000/svg" xmlns:xlink="http://www.w3.org/1999/xlink">
<title>lnr-arrow-left-circle</title>
<desc>Created using Figma</desc>
<g id="Canvas" transform="translate(-276 -189)">
<g id="lnr-arrow-left-circle">
<g id="Vector" filter="url(#filter0_d)">
<use xlink:href="#path0_fill" transform="translate(281 190)" fill="#FFFFFF"/>
<mask id="mask0_outline_out">
<rect id="mask0_outline_inv" fill="white" x="-1" y="-1" width="37" height="37" transform="translate(281 190)"/>
<use xlink:href="#path0_fill" fill="black" transform="translate(281 190)"/>
</mask>
<g mask="url(#mask0_outline_out)">
<use xlink:href="#path1_stroke_2x" transform="translate(281 190)" fill="#FFFFFF"/>
</g>
</g>
<g id="Vector" filter="url(#filter1_d)">
<use xlink:href="#path2_fill" transform="translate(287.449 199.212)" fill="#FFFFFF"/>
<mask id="mask1_outline_out">
<rect id="mask1_outline_inv" fill="white" x="-1" y="-2" width="26" height="20" transform="translate(287.449 199.212)"/>
<use xlink:href="#path2_fill" fill="black" transform="translate(287.449 199.212)"/>
</mask>
<g mask="url(#mask1_outline_out)">
<use xlink:href="#path3_stroke_2x" transform="translate(287.449 199.212)" fill="#FFFFFF"/>
</g>
</g>
</g>
</g>
<defs>
<filter id="filter0_d" filterUnits="userSpaceOnUse" x="276" y="189" width="45" height="45" color-interpolation-filters="sRGB">
<feFlood flood-opacity="0" result="BackgroundImageFix"/>
<feColorMatrix in="SourceAlpha" type="matrix" values="0 0 0 0 0 0 0 0 0 0 0 0 0 0 0 0 0 0 255 0"/>
<feOffset dx="0" dy="4"/>
<feGaussianBlur stdDeviation="2"/>
<feColorMatrix type="matrix" values="0 0 0 0 0 0 0 0 0 0 0 0 0 0 0 0 0 0 0.25 0"/>
<feBlend mode="normal" in2="BackgroundImageFix" result="effect1_dropShadow"/>
<feBlend mode="normal" in="SourceGraphic" in2="effect1_dropShadow" result="shape"/>
</filter>
<filter id="filter1_d" filterUnits="userSpaceOnUse" x="282" y="198" width="34" height="27" color-interpolation-filters="sRGB">
<feFlood flood-opacity="0" result="BackgroundImageFix"/>
<feColorMatrix in="SourceAlpha" type="matrix" values="0 0 0 0 0 0 0 0 0 0 0 0 0 0 0 0 0 0 255 0"/>
<feOffset dx="0" dy="4"/>
<feGaussianBlur stdDeviation="2"/>
<feColorMatrix type="matrix" values="0 0 0 0 0 0 0 0 0 0 0 0 0 0 0 0 0 0 0.25 0"/>
<feBlend mode="normal" in2="BackgroundImageFix" result="effect1_dropShadow"/>
<feBlend mode="normal" in="SourceGraphic" in2="effect1_dropShadow" result="shape"/>
</filter>
<path id="path0_fill" d="M 5.12474 5.12501C 8.42947 1.8201 12.8247 0 17.5 0C 22.1753 0 26.5687 1.8201 29.8753 5.12501C 33.1818 8.42992 35 12.8254 35 17.4991C 35 22.1727 33.18 26.5682 29.8753 29.875C 26.5705 33.1817 22.1753 35 17.5 35C 12.8247 35 8.43132 33.1799 5.12474 29.875C 1.81816 26.5701 0 22.1746 0 17.4991C 0 12.8236 1.82 8.42992 5.12474 5.12501L 5.12474 5.12501ZM 17.5 33.1596C 26.1339 33.1596 33.1579 26.1353 33.1579 17.5009C 33.1579 8.86652 26.1339 1.8422 17.5 1.8422C 8.86605 1.8422 1.84211 8.86652 1.84211 17.5009C 1.84211 26.1353 8.86605 33.1596 17.5 33.1596Z"/>
<path id="path1_stroke_2x" d="M 29.8753 5.12501L 29.1683 5.83229L 29.8753 5.12501ZM 29.8753 29.875L 29.1679 29.1681L 29.8753 29.875ZM 5.83186 5.83209C 8.94897 2.71482 13.0898 1 17.5 1L 17.5 -1C 12.5596 -1 7.90998 0.92537 4.41761 4.41792L 5.83186 5.83209ZM 17.5 1C 21.91 1 26.0492 2.71472 29.1683 5.83229L 30.5822 4.41772C 27.0882 0.925475 22.4405 -1 17.5 -1L 17.5 1ZM 29.1683 5.83229C 32.287 8.94935 34 13.0903 34 17.4991L 36 17.4991C 36 12.5605 34.0767 7.91048 30.5822 4.41772L 29.1683 5.83229ZM 34 17.4991C 34 21.9076 32.2853 26.0488 29.1679 29.1681L 30.5826 30.5819C 34.0747 27.0877 36 22.4379 36 17.4991L 34 17.4991ZM 29.1679 29.1681C 26.0511 32.2869 21.9104 34 17.5 34L 17.5 36C 22.4401 36 27.09 34.0766 30.5826 30.5819L 29.1679 29.1681ZM 17.5 34C 13.09 34 8.95081 32.2853 5.83167 29.1677L 4.41781 30.5823C 7.91182 34.0745 12.5595 36 17.5 36L 17.5 34ZM 5.83167 29.1677C 2.71307 26.0507 1 21.9098 1 17.4991L -1 17.4991C -1 22.4394 0.923245 27.0895 4.41781 30.5823L 5.83167 29.1677ZM 1 17.4991C 1 13.0887 2.71467 8.94945 5.83186 5.83209L 4.41761 4.41792C 0.925328 7.91039 -1 12.5584 -1 17.4991L 1 17.4991ZM 17.5 34.1596C 26.6863 34.1596 34.1579 26.6876 34.1579 17.5009L 32.1579 17.5009C 32.1579 25.5831 25.5816 32.1596 17.5 32.1596L 17.5 34.1596ZM 34.1579 17.5009C 34.1579 8.31428 26.6863 0.842202 17.5 0.842202L 17.5 2.8422C 25.5816 2.8422 32.1579 9.41875 32.1579 17.5009L 34.1579 17.5009ZM 17.5 0.842202C 8.31372 0.842202 0.842105 8.31428 0.842105 17.5009L 2.84211 17.5009C 2.84211 9.41875 9.41839 2.8422 17.5 2.8422L 17.5 0.842202ZM 0.842105 17.5009C 0.842105 26.6876 8.31372 34.1596 17.5 34.1596L 17.5 32.1596C 9.41839 32.1596 2.84211 25.5831 2.84211 17.5009L 0.842105 17.5009Z"/>
<path id="path2_fill" d="M 0.269408 7.63823L 7.63783 0.269422C 7.99704 -0.0898077 8.58099 -0.0898077 8.9402 0.269422C 9.29941 0.628651 9.29941 1.21263 8.9402 1.57186L 3.14309 7.36743L 22.1039 7.36743C 22.6123 7.36743 23.0249 7.78008 23.0249 8.28853C 23.0249 8.79698 22.6123 9.20963 22.1039 9.20963L 3.14309 9.20963L 8.93835 15.007C 9.29756 15.3663 9.29756 15.9502 8.93835 16.3095C 8.75783 16.49 8.52204 16.5784 8.28809 16.5784C 8.05414 16.5784 7.81651 16.4882 7.63783 16.3076L 0.269408 8.93883C -0.0898025 8.5796 -0.0898025 7.99562 0.269408 7.63639L 0.269408 7.63823Z"/>
<path id="path3_stroke_2x" d="M 0.269408 7.63823L -0.730592 7.63823L -0.730592 10.0525L 0.976533 8.34532L 0.269408 7.63823ZM 7.63783 0.269422L 6.9307 -0.437666L 6.9307 -0.437666L 7.63783 0.269422ZM 8.9402 1.57186L 9.64721 2.27906L 9.64732 2.27895L 8.9402 1.57186ZM 3.14309 7.36743L 2.43608 6.66023L 0.728425 8.36743L 3.14309 8.36743L 3.14309 7.36743ZM 3.14309 9.20963L 3.14309 8.20963L 0.729511 8.20963L 2.43585 9.91661L 3.14309 9.20963ZM 8.93835 15.007L 8.23112 15.714L 8.23123 15.7141L 8.93835 15.007ZM 8.93835 16.3095L 9.64548 17.0166L 8.93835 16.3095ZM 7.63783 16.3076L 8.34858 15.6042L 8.34495 15.6005L 7.63783 16.3076ZM 0.269408 8.93883L 0.976533 8.23174L 0.976533 8.23174L 0.269408 8.93883ZM 0.269408 7.63639L 1.26941 7.63639L 1.26941 5.22209L -0.437717 6.9293L 0.269408 7.63639ZM 0.976533 8.34532L 8.34495 0.97651L 6.9307 -0.437666L -0.437717 6.93114L 0.976533 8.34532ZM 8.34495 0.97651C 8.31364 1.00783 8.26439 1.00783 8.23307 0.97651L 9.64732 -0.437666C 8.89758 -1.18744 7.68044 -1.18744 6.9307 -0.437666L 8.34495 0.97651ZM 8.23307 0.97651C 8.20178 0.945219 8.20178 0.896062 8.23307 0.864771L 9.64732 2.27895C 10.397 1.5292 10.397 0.312083 9.64732 -0.437666L 8.23307 0.97651ZM 8.23318 0.864659L 2.43608 6.66023L 3.8501 8.07463L 9.64721 2.27906L 8.23318 0.864659ZM 3.14309 8.36743L 22.1039 8.36743L 22.1039 6.36743L 3.14309 6.36743L 3.14309 8.36743ZM 22.1039 8.36743C 22.06 8.36743 22.0249 8.33232 22.0249 8.28853L 24.0249 8.28853C 24.0249 7.22785 23.1646 6.36743 22.1039 6.36743L 22.1039 8.36743ZM 22.0249 8.28853C 22.0249 8.24474 22.06 8.20963 22.1039 8.20963L 22.1039 10.2096C 23.1646 10.2096 24.0249 9.34921 24.0249 8.28853L 22.0249 8.28853ZM 22.1039 8.20963L 3.14309 8.20963L 3.14309 10.2096L 22.1039 10.2096L 22.1039 8.20963ZM 2.43585 9.91661L 8.23112 15.714L 9.64559 14.3001L 3.85033 8.50265L 2.43585 9.91661ZM 8.23123 15.7141C 8.19994 15.6828 8.19994 15.6337 8.23123 15.6024L 9.64548 17.0166C 10.3952 16.2668 10.3952 15.0497 9.64548 14.3L 8.23123 15.7141ZM 8.23123 15.6024C 8.23807 15.5955 8.24793 15.5888 8.25919 15.5843C 8.26965 15.58 8.27942 15.5784 8.28809 15.5784L 8.28809 17.5784C 8.77366 17.5784 9.26801 17.3941 9.64548 17.0166L 8.23123 15.6024ZM 8.28809 15.5784C 8.30795 15.5784 8.33034 15.5858 8.34857 15.6042L 6.92709 17.0111C 7.30268 17.3906 7.80034 17.5784 8.28809 17.5784L 8.28809 15.5784ZM 8.34495 15.6005L 0.976533 8.23174L -0.437717 9.64591L 6.9307 17.0147L 8.34495 15.6005ZM 0.976533 8.23174C 1.00782 8.26303 1.00782 8.31219 0.976533 8.34348L -0.437717 6.9293C -1.18743 7.67905 -1.18743 8.89616 -0.437717 9.64591L 0.976533 8.23174ZM -0.730592 7.63639L -0.730592 7.63823L 1.26941 7.63823L 1.26941 7.63639L -0.730592 7.63639Z"/>
</defs>
</svg>
